<?xml version="1.0" standalone="no"?>
<!DOCTYPE svg PUBLIC "-//W3C//DTD SVG 20010904//EN"
 "http://www.w3.org/TR/2001/REC-SVG-20010904/DTD/svg10.dtd">
<svg version="1.0" xmlns="http://www.w3.org/2000/svg"
 viewBox="0 0 700.000000 700.000000"
 preserveAspectRatio="xMidYMid meet">
<metadata>
Created by potrace 1.11, written by Peter Selinger 2001-2013
</metadata>
<g transform="translate(0.000000,700.000000) scale(0.100000,-0.100000)"
fill="#000000" stroke="none">
<path d="M3457 6846 c-92 -33 -157 -124 -157 -221 0 -63 38 -145 84 -180 93
-71 221 -68 303 8 32 28 19 39 -24 20 -47 -19 -125 -13 -161 14 -84 63 -98
184 -29 257 44 46 104 64 164 48 57 -16 67 -7 29 23 -53 42 -140 55 -209 31z"/>
<path d="M3253 5906 c-134 -228 -246 -421 -249 -430 -6 -15 40 -16 500 -16
l506 0 -27 48 c-135 233 -479 812 -483 812 -3 -1 -114 -187 -247 -414z"/>
<path d="M1859 6056 l-33 -108 -30 7 c-17 3 -68 14 -114 24 l-82 19 49 -57
c27 -31 61 -67 75 -80 14 -14 26 -30 26 -36 0 -6 -21 -31 -46 -55 -25 -25 -59
-61 -75 -81 l-29 -37 101 24 c55 13 106 24 113 24 7 0 27 -45 45 -105 18 -58
34 -105 36 -105 3 0 19 47 36 105 19 60 38 105 45 105 7 0 58 -11 113 -24
l101 -24 -19 27 c-11 14 -36 42 -56 61 -20 19 -46 47 -57 63 l-20 27 64 68
c102 108 102 103 6 81 -46 -10 -97 -21 -114 -25 l-30 -6 -28 95 c-15 51 -32
100 -36 107 -5 9 -20 -24 -41 -94z"/>
<path d="M5069 6056 l-33 -108 -30 7 c-17 3 -68 14 -114 24 l-82 19 39 -47
c22 -25 55 -62 75 -80 20 -19 36 -40 36 -46 0 -6 -21 -31 -46 -55 -25 -25 -59
-61 -74 -81 l-29 -36 102 23 c56 13 107 24 113 24 6 0 25 -47 43 -105 17 -58
34 -105 36 -105 2 0 19 47 36 105 24 76 37 105 48 105 9 0 60 -11 114 -24 53
-13 97 -21 97 -19 0 2 -34 40 -75 83 -86 90 -86 87 -10 160 26 25 55 57 66 71
l19 27 -83 -19 c-45 -10 -96 -21 -113 -25 l-30 -6 -28 95 c-15 51 -32 100 -36
107 -5 9 -20 -24 -41 -94z"/>
<path d="M1810 5400 c-110 -23 -224 -110 -274 -208 -40 -79 -56 -155 -56 -269
l0 -103 415 0 415 0 0 108 c0 182 -50 304 -160 391 -89 70 -229 104 -340 81z"/>
<path d="M5020 5400 c-117 -25 -230 -114 -280 -222 -37 -80 -50 -146 -50 -264
l0 -94 415 0 415 0 0 108 c0 182 -50 304 -160 391 -89 70 -229 104 -340 81z"/>
<path d="M2877 5354 c-4 -4 -7 -64 -7 -134 l0 -126 44 -43 44 -43 -6 -184 -5
-184 552 0 553 0 -3 186 -4 187 43 36 43 37 -3 135 -3 134 -125 0 -125 0 -3
-118 -3 -118 -122 3 -122 3 -3 113 -3 112 -119 0 -119 0 -3 -112 -3 -113 -122
-3 -122 -3 -3 118 -3 118 -121 3 c-66 1 -123 -1 -127 -4z"/>
<path d="M1380 4592 l0 -78 46 -44 46 -45 -4 -227 -4 -228 -41 -42 -41 -43
-11 -465 c-6 -256 -14 -547 -18 -647 l-6 -183 547 0 546 0 0 49 c0 27 -7 319
-15 648 l-16 598 -40 41 -40 40 -5 230 -6 229 46 45 46 44 0 78 0 78 -515 0
-515 0 0 -78z"/>
<path d="M4590 4592 l0 -78 46 -44 46 -45 -4 -228 -5 -228 -40 -42 -41 -42
-11 -475 c-6 -261 -14 -553 -17 -647 l-7 -173 547 0 546 0 0 23 c0 12 -7 303
-16 647 l-15 625 -40 41 -41 41 -5 229 -5 229 46 45 46 44 0 78 0 78 -515 0
-515 0 0 -78z"/>
<path d="M2810 4398 l0 -102 41 -42 41 -42 -21 -758 c-12 -418 -21 -783 -21
-811 l0 -53 200 0 200 0 0 321 c0 192 4 337 11 362 26 106 130 187 238 187
101 -1 184 -54 227 -145 24 -49 24 -54 24 -387 l0 -338 200 0 200 0 0 83 c0
45 -9 397 -20 782 -11 385 -20 712 -20 728 0 18 13 42 40 71 l40 43 0 102 0
101 -690 0 -690 0 0 -102z"/>
<path d="M2610 2688 c-19 -82 -84 -212 -141 -284 -180 -227 -497 -323 -805
-244 -234 60 -380 193 -449 410 -36 114 -57 89 -39 -48 52 -403 170 -625 388
-732 165 -82 357 -90 555 -24 116 39 205 96 307 198 78 78 98 106 136 186 25
52 51 109 58 125 l12 30 38 -77 c130 -266 352 -442 632 -504 96 -21 299 -22
394 -1 146 33 280 97 392 188 94 77 216 241 258 347 9 23 19 42 24 42 4 0 13
-19 20 -42 17 -60 66 -153 110 -212 40 -54 135 -147 186 -183 56 -40 170 -92
250 -115 103 -29 286 -31 384 -4 253 69 405 263 475 607 27 130 44 273 34 284
-13 14 -24 -2 -44 -65 -63 -195 -168 -307 -355 -379 -220 -85 -462 -76 -664
25 -192 97 -320 260 -376 482 -13 50 -36 55 -45 10 -4 -18 -27 -75 -52 -127
-38 -80 -59 -108 -137 -186 -181 -182 -391 -268 -656 -268 -139 0 -226 16
-346 62 -233 91 -427 285 -489 491 -10 33 -24 60 -31 60 -6 0 -17 -24 -24 -52z"/>
<path d="M2627 1973 c-2 -4 -14 -42 -26 -83 -74 -250 -281 -451 -531 -516 -88
-23 -253 -23 -345 0 -201 51 -339 176 -410 371 -29 78 -42 96 -55 75 -16 -27
59 -305 115 -425 45 -97 126 -207 188 -256 100 -80 259 -138 377 -139 174 0
365 77 493 199 95 90 177 232 193 333 4 21 9 37 11 34 3 -3 16 -34 28 -70 92
-264 334 -477 620 -548 128 -31 306 -31 430 1 174 45 310 123 435 251 100 102
139 169 206 355 5 15 10 8 20 -35 24 -103 90 -216 173 -300 198 -199 471 -268
714 -180 196 72 321 217 409 474 44 130 79 289 67 308 -12 18 -21 4 -54 -81
-96 -252 -298 -384 -585 -384 -167 0 -314 51 -441 153 -135 109 -212 227 -271
418 -7 24 -17 44 -23 44 -5 0 -21 -31 -35 -69 -77 -204 -223 -365 -425 -464
-150 -74 -230 -92 -405 -92 -175 0 -255 18 -405 92 -119 59 -228 148 -303 246
-58 76 -118 189 -128 242 -6 33 -28 61 -37 46z"/>
<path d="M2611 1128 c-38 -191 -179 -350 -365 -416 -57 -20 -91 -25 -171 -26
-180 -2 -281 47 -399 191 -82 99 -103 78 -37 -36 167 -285 438 -458 664 -423
168 26 278 126 328 297 10 33 18 53 18 44 2 -27 81 -181 126 -244 23 -33 72
-88 107 -121 445 -427 1156 -295 1427 266 23 46 41 91 42 99 0 9 8 -11 18 -45
47 -164 162 -269 322 -295 231 -37 496 128 668 415 42 71 51 106 29 106 -7 0
-24 -16 -37 -36 -44 -64 -159 -162 -215 -183 -326 -122 -664 60 -744 399 -20
85 -37 89 -63 12 -53 -156 -187 -333 -322 -424 -78 -53 -205 -111 -292 -134
-98 -26 -332 -26 -430 0 -155 41 -305 128 -417 243 -97 100 -139 170 -209 351
-16 41 -34 25 -48 -40z"/>
</g>
</svg>
