<svg viewBox="0 0 240 240"><path d="M201.702,111.58 L174.07,139.646 C172.566,141.174 170.512,142.034 168.368,142.034 C166.224,142.034 164.17,141.174 162.666,139.646 L135.034,111.58 C131.934,108.432 131.974,103.368 135.122,100.266 C138.27,97.166 143.334,97.206 146.436,100.356 L161.882,116.042 C159.878,87.006 136.046,64 107.018,64 C76.682,64 52,89.122 52,120 C52,150.88 76.682,176 107.018,176 C118.184,176 128.93,172.62 138.09,166.222 C141.714,163.694 146.702,164.58 149.23,168.202 C151.76,171.824 150.872,176.812 147.25,179.342 C135.39,187.622 121.478,192 107.018,192 C67.86,192 36,159.702 36,120 C36,80.3 67.86,48 107.018,48 C143.896,48 174.288,76.65 177.704,113.148 L190.3,100.356 C193.402,97.206 198.468,97.168 201.614,100.266 C204.762,103.368 204.802,108.432 201.702,111.58"/></svg>
