<svg id="DK_primaer_logo" xmlns="http://www.w3.org/2000/svg" viewBox="0 0 283.46 65.17"><defs><style>.cls-1{fill:white;}</style></defs><rect class="cls-1" width="115.85" height="65.17"/><path class="cls-1" d="M132.12,29.69h-9.07V0h9c7.44,0,10.79,4.47,10.79,10.74v8.17C142.86,25.18,139,29.69,132.12,29.69Zm4.59-20.11a4.3,4.3,0,0,0-4.59-4.64h-2.93V24.75h2.88a4.28,4.28,0,0,0,4.64-4.64Z"/><path class="cls-1" d="M150.87,23.08l-1.08,6.61h-6.44L149.62,0h8.43l6.4,29.69h-6.32l-1.24-6.61Zm5.11-4.9L153.7,6.1l-2,12.08Z"/><path class="cls-1" d="M166.61,29.69V0H174l7,19.12V0h5.54V29.69h-7.44l-7-19.16V29.69Z"/><path class="cls-1" d="M211.53,29.69V6.36l-5.11,23.33h-6.19L195.5,6.1V29.69H190V0h9.75l3.79,21.14L207.32,0H217V29.69Z"/><path class="cls-1" d="M226.71,23.08l-1.07,6.61H219.2L225.47,0h8.42l6.41,29.69H234l-1.25-6.61Zm5.12-4.9L229.55,6.1l-2,12.08Z"/><path class="cls-1" d="M261.06,29.69h-6.83L249.72,16.8h-1.29V29.69h-6V0H252c5.71,0,8.25,4,8.25,8.25a8.07,8.07,0,0,1-4.77,7.61ZM250.23,12c3.4,0,4.3-1.59,4.3-3.83s-1.33-3.31-4.3-3.31h-1.8V12Z"/><path class="cls-1" d="M274.74,14.4s8.68,15.29,8.72,15.29h-7s-4.82-8.63-7.05-12.8v12.8h-6.15V0h6.15V12C271.43,7.78,276,0,276,0h7S274.74,14.4,274.74,14.4Z"/><path class="cls-1" d="M140.88,43.68c0,4.43-3,8.6-9,8.6H129V65.17h-6V35.47h9.24C137.83,35.47,140.88,38.78,140.88,43.68Zm-10,3.74c3.39,0,4.29-1.59,4.29-3.82s-1.33-3.31-4.29-3.31H129v7.13Z"/><path class="cls-1" d="M154,65.13l-1.25-6.53h-6.1l-1.25,6.53h-6.31L144.56,39a3.91,3.91,0,0,1-.94-2.75c0-3,3.86-4.52,6.83-4.52,2.79,0,5.11,1.51,5.11,4.52a3.3,3.3,0,0,1-.94,2.75l5.71,26.13Zm-7.35-28.88c0,1.5,1.72,2,3,2s3-.52,3-2c0-1.25-1.72-2-3-2S146.67,35,146.67,36.25Zm.77,17.23h4.3l-2.28-12.07Z"/><path class="cls-1" d="M176.83,40.42v6.83h7.6v4.94h-7.6v13h-6.15V35.47h15.69v5Z"/><path class="cls-1" d="M194.72,35.47v29.7h-6.14V35.47Z"/><path class="cls-1" d="M198.16,65.17V35.47h6.15V60.23h8.12v4.94Z"/><path class="cls-1" d="M236.17,65.17V41.83l-5.11,23.34h-6.19l-4.73-23.59V65.17h-5.5V35.47h9.76l3.78,21.15L232,35.47h9.71v29.7Z"/></svg>