<svg id="Layer_5" data-name="Layer 5" xmlns="http://www.w3.org/2000/svg" viewBox="0 0 625.4 219.22"><defs><style>.cls-1{fill:#fff;stroke:#fff;stroke-width:0.25px;}</style></defs><rect class="cls-1" x="0.13" y="0.13" width="22.12" height="164.38"/><rect class="cls-1" x="30.95" y="0.13" width="5.85" height="82.77"/><rect class="cls-1" x="43.21" y="0.13" width="5.85" height="82.77"/><path class="cls-1" d="M308.24,0,276.81,148.54H239.69V.06H227.38V0H185.92V15.81h18V148.54H190.75V82.62H174.08V72.45H153.82V22.12h20.26V0H103V.06h-21V164.35h28.61V94.57h21.16v69.78h22.11V94.57h19.72v69.78h124.4V148.54h-7.23L322.49,0ZM110.55,72.45V22.12h21.16V72.45Zm99.2,76.09V15.81h7.82V148.54Z" transform="translate(0.13 0.16)"/><polygon class="cls-1" points="395.07 164.52 361.51 0.16 336.27 0.16 336.28 0.22 327.7 0.22 327.7 164.5 349.81 164.5 349.81 65.76 370.21 164.52 395.07 164.52"/><path class="cls-1" d="M146.77,208.09c0,3.45-2.24,5.1-5.14,5.1h-3.18V191.43h3.23a4.74,4.74,0,0,1,5.09,5.1Zm6.75-1.32v-9c0-6.89-3.69-11.8-11.89-11.8H131.7v32.62h10C149.27,218.62,153.52,213.66,153.52,206.77Z" transform="translate(0.13 0.16)"/><path class="cls-1" d="M174,218.62H158.44V186h15.17v5.43h-8.42v7.51h8.18v5.43h-8.18v8.82H174Z" transform="translate(0.13 0.16)"/><path class="cls-1" d="M183.76,218.62V191.43H177V186h20.22l-.05,5.43h-6.66v27.19Z" transform="translate(0.13 0.16)"/><path class="cls-1" d="M228.79,208.09c0,3.45-2.23,5.1-5.13,5.1h-3.18V191.43h3.23a4.74,4.74,0,0,1,5.08,5.1Zm6.75-1.32v-9c0-6.89-3.68-11.8-11.88-11.8h-9.93v32.62h10C231.29,218.62,235.54,213.66,235.54,206.77Z" transform="translate(0.13 0.16)"/><path class="cls-1" d="M247.05,206l2.22-13.27L251.78,206Zm5.72,5.39,1.37,7.25h6.94L254,186h-9.26l-6.9,32.62H245l1.18-7.25Z" transform="translate(0.13 0.16)"/><path class="cls-1" d="M264.62,218.62V186h8.14l7.67,21V186h6.11v32.62h-8.18l-7.63-21.05v21.05Z" transform="translate(0.13 0.16)"/><path class="cls-1" d="M301,218.93c-6.56,0-10-2.83-10-9.34V207.8h6.75v1.6c0,2.59.57,4.29,3.16,4.29,1.56,0,3.21-.71,3.21-3.44,0-7.12-13.07-4.53-13.07-15,0-5.09,3.49-9.53,9.86-9.53,6.57,0,10,3.26,10,9.43v2.22h-6.75v-2.12c0-3.06-1.32-4.29-3.16-4.29-2.17,0-3.16,1.23-3.16,3.54,0,6.54,13.07,4,13.07,14.84C310.93,216.71,305.74,218.93,301,218.93Z" transform="translate(0.13 0.16)"/><path class="cls-1" d="M322.15,218.62H315.4V186h6.75v14.64L329,186h7.75l-8,15.63,8.6,17h-7.7l-7.42-15.34Z" transform="translate(0.13 0.16)"/><path class="cls-1" d="M355.94,218.62H340.35V186h15.16v5.43H347.1v7.51h8.18v5.43H347.1v8.82h8.84Z" transform="translate(0.13 0.16)"/><path class="cls-1" d="M380.17,191.43v7.51h8.37v5.43h-8.37v14.25h-6.75V186h17.24v5.43Z" transform="translate(0.13 0.16)"/><path class="cls-1" d="M401,186v32.62h-6.76V186Z" transform="translate(0.13 0.16)"/><path class="cls-1" d="M405.93,218.62V186h6.75v27.19h9.73v5.43Z" transform="translate(0.13 0.16)"/><path class="cls-1" d="M449.66,218.62V193L444,218.62h-6.81L432,192.7v25.92h-6V186H436.7l4.16,23.23L445,186h10.69v32.62Z" transform="translate(0.13 0.16)"/><path class="cls-1" d="M467.4,186v32.62h-6.75V186Z" transform="translate(0.13 0.16)"/><path class="cls-1" d="M472.37,218.62V186h8.14l7.67,21V186h6.11v32.62h-8.18l-7.63-21.05v21.05Z" transform="translate(0.13 0.16)"/><path class="cls-1" d="M508.77,218.93c-6.56,0-10-2.83-10-9.34V207.8h6.75v1.6c0,2.59.57,4.29,3.16,4.29,1.56,0,3.22-.71,3.22-3.44,0-7.12-13.08-4.53-13.08-15,0-5.09,3.49-9.53,9.86-9.53,6.57,0,10,3.26,10,9.43v2.22h-6.75v-2.12c0-3.06-1.33-4.29-3.17-4.29-2.17,0-3.16,1.23-3.16,3.54,0,6.54,13.08,4,13.08,14.84C518.69,216.71,513.49,218.93,508.77,218.93Z" transform="translate(0.13 0.16)"/><path class="cls-1" d="M528.06,218.62V191.43H521.3V186h20.22l0,5.43h-6.66v27.19Z" transform="translate(0.13 0.16)"/><path class="cls-1" d="M551.79,186v32.62H545V186Z" transform="translate(0.13 0.16)"/><path class="cls-1" d="M562.12,218.62V191.43h-6.75V186h20.21l0,5.43h-6.67v27.19Z" transform="translate(0.13 0.16)"/><path class="cls-1" d="M590.25,218.93c-6.57,0-11.15-3.39-11.15-11.32V186h7v22.46c0,4,1.32,5.1,4.11,5.1s4.15-1.13,4.15-5.1V186h7v21.57C601.34,215.54,596.76,218.93,590.25,218.93Z" transform="translate(0.13 0.16)"/><path class="cls-1" d="M611.69,218.62V191.43h-6.76V186h20.22l0,5.43h-6.66v27.19Z" transform="translate(0.13 0.16)"/></svg>