<svg viewBox="0 0 240 240"><path d="M112.856,158.084 C114.736,160.004 117.312,161.086 120,161.086 C122.69,161.086 125.264,160.004 127.146,158.084 L167.04,117.352 C170.904,113.408 170.838,107.076 166.892,103.21 C162.946,99.348 156.614,99.412 152.75,103.358 L130,126.586 L130,40 C130,34.478 125.522,30 120,30 C114.478,30 110,34.478 110,40 L110,126.584 L87.254,103.358 C83.39,99.412 77.062,99.348 73.112,103.21 C69.168,107.076 69.102,113.406 72.966,117.352 L112.856,158.084 Z M206,145.542 L206,200 C206,205.522 201.522,210 196,210 L44,210 C38.478,210 34,205.522 34,200 L34,145.542 C34,140.02 38.478,135.542 44,135.542 C49.522,135.542 54,140.02 54,145.542 L54,190 L186,190 L186,145.542 C186,140.02 190.478,135.542 196,135.542 C201.522,135.542 206,140.02 206,145.542 L206,145.542 Z"/></svg>
