<svg viewBox="0 0 7860 2240" xmlns="http://www.w3.org/2000/svg"><path d="M363 2183l71-271a1186 1186 0 0 1-369-860v-52A760 760 0 0 1 2 632v-10c0-52 10-101 29-147 12-40 27-80 46-119l2-270a60 60 0 0 1 72-59l262 58a764 764 0 0 1 704 2l273-59a60 60 0 0 1 72 59l-3 285c15 33 27 67 37 101 19 46 30 96 30 149v10a761 761 0 0 1-65 372v1236h-210c-126 0-248-20-362-57H363zm904 17a648 648 0 0 1-486-627v-117l-17 1h-7a765 765 0 0 1-650-378c14 621 522 1121 1144 1121h16zm154-8a620 620 0 0 1-614-619v-118a758 758 0 0 0 614-373v1110zm-670-63c-99-46-190-106-272-176l-47 176h319zm3667-566c-137-28-168-66-168-127v-1c0-61 56-110 141-110 63 0 118 19 172 66l28-34c-59-47-114-71-198-71-108 0-186 67-186 153v1c0 88 56 135 195 163 131 27 163 62 163 123v2c0 66-59 115-146 115-85 0-144-27-207-86l-28 32c69 62 140 93 232 93 112 0 192-65 192-158v-2c0-84-56-132-190-159zm-2264 0c-137-28-169-66-169-127v-1c0-61 56-110 141-110 64 0 118 19 173 66l27-34c-59-47-114-71-198-71-107 0-186 67-186 153v1c0 88 56 135 195 163 131 27 163 62 163 123v2c0 66-59 115-146 115-85 0-143-27-207-86l-28 32c70 62 140 93 233 93 111 0 191-65 191-158v-2c0-84-56-132-189-159zm4871 264l227-532h45l-254 583h-38l-254-583h48l226 532zm-997-152l368-380h58l-252 255 263 324h-56l-238-293-143 145v148h-43v-579h43v380zm-2876-384h41l269 583h-47l-73-163h-341l-74 163h-44l269-583zm3428 4h43v579h-43v-579zm-3704 0v39h-201v540h-43v-540h-201v-39h445zm900 0c182 0 307 125 307 288v1c0 163-125 290-307 290h-192v-579h192zm1180-4h41l269 583h-47l-73-163h-341l-73 163h-45l269-583zm675 4c71 0 128 22 162 57 28 27 44 66 44 107v2c0 97-72 152-169 165l191 248h-55l-184-240h-189v240h-43v-579h243zm-1855 539c161 0 263-110 263-248v-2c0-137-102-250-263-250h-149v500h149zm-453-161l-151-335-153 335h304zm1805 0l-152-335-153 335h305zm500-339h-197v261h195c96 0 168-49 168-132v-2c0-78-61-127-166-127zM393 1014c71 0 138-20 195-53l179 179 176-177a388 388 0 0 0 535-153 721 721 0 0 1-207 397 718 718 0 0 1-507 209h-7A727 727 0 0 1 50 810a391 391 0 0 0 343 204zm371-268c27 79 78 147 145 195l-142 142-144-144c65-48 115-115 141-193zm1758 271h-49l81-87c-47-55-75-128-75-205v-1a291 291 0 0 1 480-231l58-63h50l-83 89c49 54 76 126 76 203v2c0 158-116 299-291 299-76 0-139-25-188-68l-59 62zm5148-315c-137-28-168-65-168-126v-2c0-60 56-109 141-109 64 0 118 18 172 65l28-34c-59-47-114-70-198-70-108 0-186 66-186 152v2c0 88 56 135 195 163 131 26 163 62 163 123v2c0 66-59 115-146 115-85 0-144-28-207-86l-28 32c69 62 140 92 233 92 111 0 191-64 191-157v-2c0-84-56-132-190-160zM6427 967l227-533h45l-254 583h-38l-254-583h48l226 533zm-574-537h41l269 583h-47l-73-162h-341l-74 162h-44l269-583zM1999 815l368-381h59l-253 256 264 323h-57l-237-292-144 145v147h-43V434h43v381zm3050-113h370V434h43v579h-43V742h-370v271h-43V434h43v268zM3445 434c65 0 118 19 150 52 24 24 37 54 37 91v1c0 79-51 119-98 138 69 18 130 57 130 138v1c0 97-82 158-207 158h-251V434h239zm768 0v40h-368v228h331v39h-331v233h372v39h-415V434h411zm581 504V434h41v579h-32l-407-514v514h-41V434h40l399 504zm2466 0V434h41v579h-32l-406-514v514h-42V434h41l398 504zM3016 725c0 144-102 260-245 260-65 0-121-23-163-62l347-374c38 47 61 109 61 176zm429 16h-196v233h210c99 0 161-46 161-119v-1c0-71-61-113-175-113zM784 622a351 351 0 0 1 674-136c14 48 23 97 27 147a351 351 0 0 1-701-11zM69 488a351 351 0 1 1-26 145c4-49 12-98 26-145zm2454 234c0-144 102-259 246-259 64 0 120 23 163 62l-348 373c-39-46-61-108-61-176zm3501 90l-151-335-153 335h304zM1340 622a183 183 0 1 0-367 0 183 183 0 0 0 367 0zM393 805a183 183 0 1 0-1-367 183 183 0 0 0 1 367zm608-183a156 156 0 1 1 312 0 156 156 0 0 1-312 0zM393 465a156 156 0 1 1 0 313 156 156 0 0 1 0-313zm855 157a91 91 0 1 0-183-1 91 91 0 0 0 183 1zm-855 91a91 91 0 1 0 0-183 91 91 0 0 0 0 183zm3051-239h-195v228h191c86 0 148-43 148-120v-1c0-64-52-107-144-107zM126 71a20 20 0 0 1 17-4l276 61 7-3a723 723 0 0 1 679 1l7 3 286-62c6-1 12 0 17 4s7 9 7 15l-3 267a390 390 0 0 0-655 145 392 392 0 0 0-647-153l2-259c0-6 3-11 7-15z" /></svg>
