<?xml version="1.0" encoding="UTF-8" standalone="no"?>
<svg
  xmlns:dc="http://purl.org/dc/elements/1.1/"
  xmlns:cc="http://creativecommons.org/ns#"
  xmlns:rdf="http://www.w3.org/1999/02/22-rdf-syntax-ns#"
  xmlns:svg="http://www.w3.org/2000/svg"
  xmlns="http://www.w3.org/2000/svg"
  viewBox="0 0 108.78667 113.38667"
  xml:space="preserve"
  id="svg2"
  version="1.1"><metadata
    id="metadata8"><rdf:RDF><cc:Work
        rdf:about=""><dc:format>image/svg+xml</dc:format><dc:type
          rdf:resource="http://purl.org/dc/dcmitype/StillImage" /></cc:Work></rdf:RDF></metadata><defs
    id="defs6" /><g
    transform="matrix(1.3333333,0,0,-1.3333333,0,113.38667)"
    id="g10"><g
      transform="scale(0.1)"
      id="g12"><path
        id="path14"
        style="fill:#ffffff;fill-opacity:1;fill-rule:nonzero;stroke:none"
        d="m 521.238,50.3008 -31.035,-9.1211 7.981,-28.2344 -16.438,-4.83983 -18.824,67.99613 16.062,4.7382 7.434,-26.2812 30.738,9.043 -8.008,26.125 15.969,4.707 21.063,-67.3438 -16.336,-4.8164 z M 750.027,586.102 c -11.425,-5.981 -24.937,-1.508 -30.664,9.429 -5.769,11.032 -1.758,24.688 9.68,30.668 11.426,5.981 24.941,1.508 30.715,-9.527 5.73,-10.938 1.695,-24.59 -9.731,-30.57 z m 23.371,37.711 c -9.921,18.941 -32.218,27.296 -51.98,16.953 -19.77,-10.348 -25.609,-33.43 -15.688,-52.371 9.915,-18.938 32.208,-27.297 51.973,-16.954 19.766,10.348 25.606,33.434 15.695,52.372 z m -298.164,189.906 -5.461,-40.531 -16.589,2.269 4.609,36.891 c 1.531,12.199 -1.105,20.351 -12.813,21.816 -11.894,1.488 -16.484,-5.961 -17.988,-17.965 l -4.621,-36.89 -16.633,1.886 4.653,40.332 c 2.425,19.403 15.418,30.68 36.523,28.036 20.996,-2.625 30.723,-16.641 28.32,-35.844 z M 354.887,71.6289 l 15.093,-0.293 35.7,-43.3515 -0.184,42.8242 16.445,-0.2734 0.039,-70.53910625 -16.359,0.25781225 -0.016,1.718754 c 0.036,2.41015 -1.429,5.75781 -4.023,8.68754 L 370.332,48.8555 369.234,0.800781 352.598,1.0625 Z m 175.25,758.0901 15.586,-5.59 -12.813,-44.801 35.469,33.098 9.422,-4.367 -2.254,-48.454 25.664,38.684 14.473,-8.437 -40.625,-57.457 -14.914,6.902 2.003,47.055 -35.031,-31.778 -15.183,7.02 z m 126.867,-68.516 12.82,-10.469 -26.933,-37.636 44.519,19.257 7.414,-7.269 -18.398,-44.883 37.082,27.75 10.847,-12.762 -57.531,-40.457 -11.726,11.504 17.683,43.653 -43.66,-18.168 -11.945,11.718 z m -545.5,-612.062 c -11.34,-6.157 -24.9142,-1.887 -30.8009,8.964 -0.7226,1.336 -1.2929,2.704 -1.7343,4.098 l 44.4262,4.57 c -0.739,-7.128 -4.872,-13.828 -11.891,-17.632 z m -21.5782,39.773 c 11.3402,6.152 24.9142,1.887 30.8552,-9.062 0.645,-1.204 1.157,-2.43 1.571,-3.68 L 78.0938,171.57 c 0.8164,7.032 4.914,13.594 11.832,17.344 z m 58.9882,-19.512 -1,9.422 -9.891,-1.023 c -0.835,3.191 -2.066,6.347 -3.718,9.387 -10.196,18.796 -32.606,26.824 -52.2191,16.179 C 68.8516,196.188 62.0586,183.309 62.1641,169.91 l -10.1172,-1.047 1.289,-9.297 10.0196,1.028 c 0.832,-3.34 2.0937,-6.641 3.8164,-9.824 10.1953,-18.79 32.6133,-26.817 52.2231,-16.172 13.355,7.234 20.156,20.293 19.921,33.816 z m 475.078,-14.531 13.547,12.149 52.402,-20.332 -23.144,51.359 11.141,14.07 32.472,-72.512 -12.18,-12.91 z m -256.019,625.727 -14.891,-2.469 -43.019,36.094 8.003,-42.071 -16.222,-2.734 -12.93,69.344 16.137,2.742 0.332,-1.68 c 0.402,-2.39 2.453,-5.41 5.539,-7.82 l 37.699,-31.836 -7.699,47.453 16.406,2.774 z m 326.507,-544.684 6.848,13.457 54.57,13.242 -38.625,18.496 7.415,14.692 63.503,-30.703 -7.351,-14.614 -1.555,0.727 c -2.156,1.094 -5.808,1.227 -9.578,0.164 l -47.988,-11.484 42.773,-21.922 -7.488,-14.864 z M 63.5508,295.801 70.8633,280.633 46.3516,268.809 c 9.5937,-6.672 24.5742,-11.985 35.8515,-11.692 l 7.7461,-16.062 c -13.4453,-1.125 -31.164,5.222 -42.1133,11.914 L 27.8867,207.313 18.7852,226.199 35.3672,263.516 7.30859,249.988 0,265.145 Z M 187.816,101.297 c 5.161,-3.5275 10.332,-3.6329 13.399,0.867 2.726,3.996 1.68,8 -4.481,12.207 l -9.074,6.192 -8.922,-13.075 z M 174.863,74.6289 c 6.157,-4.2109 10.946,-3.4492 13.961,0.9649 2.668,3.9179 1.906,8.7031 -4.422,13.0156 l -12.648,8.6328 -9.547,-13.9805 z m 6.051,65.9061 23.059,-15.73 c 16.742,-11.418 18.562,-21.075 12.371,-30.1605 -3.641,-5.3203 -9.313,-7.9179 -16.18,-6.8906 6.324,-7.3633 6.91,-15.0898 2.137,-22.082 -6.535,-9.5781 -17.613,-13.125 -34.512,-1.5938 l -26.648,18.1758 z m 613.363,174.91 -7.843,13.879 c 7.746,4.324 12.16,9.512 13.644,17.031 1.328,6.731 -0.508,12.012 -5.547,13.016 -5.73,1.137 -9.551,-5.476 -12.336,-12.32 -4.734,-12.531 -12.398,-23.781 -27.136,-20.863 -13.157,2.597 -19.211,14.582 -15.95,31.093 2.207,11.172 6.7,18.813 16.329,24.922 l 7.5,-13.504 c -5.477,-3.332 -8.915,-8.203 -10.176,-14.629 -1.336,-6.718 0.293,-10.949 4.25,-11.726 4.953,-0.981 8.625,4.07 11.445,11.629 5.242,13.554 12.227,24.773 27.949,21.672 15.723,-3.11 20.528,-17.317 17.512,-32.54 -2.578,-13.046 -9.223,-21.703 -19.641,-27.66 z m -47.343,158.762 -3.575,16.449 26.59,5.774 c -7.769,8.73 -21.101,17.39 -32.129,19.742 l -3.789,17.43 c 13.34,-2.055 29.094,-12.356 38.176,-21.422 l 30.059,39.738 4.445,-20.488 -24.836,-32.414 30.43,6.605 3.574,-16.449 z m -480.903,282.895 -48.222,-22.743 -5.977,12.668 32.996,15.563 -5.844,12.398 -27.535,-12.984 -5.976,12.672 27.535,12.988 -6.324,13.399 -32.996,-15.567 -5.977,12.676 48.223,22.742 z m -2.379,-662.1801 50.856,-16.0078 -4.207,-13.3594 -34.805,10.9492 -4.113,-13.0664 29.039,-9.1406 -4.207,-13.3711 -29.039,9.1406 -4.442,-14.1289 34.801,-10.957 -4.207,-13.3633 -50.859,16.0078 z M 595.41,82.8008 591.238,110.895 614.844,94.9102 Z m 45.106,-5.2813 14.257,10.5743 -64.578,41.4962 -15.011,-9.445 9.613,-76.0825 15.191,7.9648 -2.32,15.6641 29.871,18.6172 z M 394.098,205.191 c -25.957,0 -37.047,-19.453 -71.325,-19.453 13.207,-3.906 41.797,-10.222 71.325,-10.222 29.523,0 58.109,6.316 71.324,10.222 -34.281,0 -45.371,19.453 -71.324,19.453 z m 133.656,42.075 c -10.75,-5.969 -21.535,-9.914 -41.152,-9.914 -19.61,0 -30.274,4.519 -41.028,10.488 -11.961,6.64 -25.847,15.058 -51.476,15.273 -25.629,-0.215 -39.52,-8.633 -51.481,-15.273 -10.754,-5.969 -21.418,-10.488 -41.031,-10.488 -19.617,0 -30.395,3.945 -41.148,9.914 -12.114,6.738 -28.309,17.722 -55.411,14.707 40.985,-52.707 97.27,-51.899 97.27,-51.899 24.832,0 38.922,5.063 51.039,11.789 10.609,5.899 21.625,12.996 40.762,13.172 19.132,-0.176 30.148,-7.273 40.754,-13.172 12.121,-6.726 26.211,-11.789 51.046,-11.789 0,0 56.278,-0.808 97.266,51.899 -27.101,3.015 -43.301,-7.969 -55.41,-14.707 z m 54.121,74.761 c -26.926,0 -41.008,-10.418 -53.43,-17.312 -11.023,-6.113 -20.535,-12.051 -40.644,-12.051 -20.106,0 -29.617,5.938 -40.645,12.051 -12.343,6.855 -26.441,14.629 -53.058,14.719 -26.621,-0.09 -40.715,-7.864 -53.063,-14.719 -11.019,-6.113 -20.543,-12.051 -40.648,-12.051 -20.11,0 -29.621,5.938 -40.641,12.051 -12.426,6.894 -26.508,17.312 -53.43,17.312 -17.015,0 -37.328,-5.347 -37.328,-5.347 l 14.602,-25.403 c 0,0 12.219,2.2 22.726,2.2 20.106,0 30.95,-5.918 41.969,-12.043 12.418,-6.907 22.778,-16.414 49.707,-16.414 26.934,0 41.613,8.718 54.028,15.613 10.953,6.086 22.234,11.328 42.078,11.406 19.836,-0.078 31.125,-5.32 42.074,-11.406 12.414,-6.895 27.09,-15.613 54.023,-15.613 26.934,0 37.293,9.507 49.715,16.414 11.016,6.125 21.856,12.043 41.965,12.043 10.508,0 22.734,-2.2 22.734,-2.2 l 14.602,25.403 c 0,0 -20.324,5.347 -37.336,5.347 z m -296.016,314.567 -21.402,4.847 14.898,-16.113 -14.898,-16.105 21.402,4.847 6.504,-20.961 6.504,20.961 21.403,-4.847 -14.903,16.105 14.903,16.113 -21.403,-4.847 -6.504,20.957 z M 557.883,458.168 h 6.785 v 10.004 c 0,0 -8.73,1.793 -8.73,10.891 h -0.051 l -0.489,8.753 8.403,6.821 1.668,17.984 h -12.278 l -1.597,-12.738 h -11.867 l -1.758,12.738 h -6.77 -6.765 l -1.758,-12.738 h -11.867 l -1.598,12.738 h -12.277 l 1.668,-17.984 8.402,-6.821 -0.481,-8.753 h -0.058 c 0,-9.098 -8.723,-10.891 -8.723,-10.891 v -10.004 h 6.778 c -0.301,-33.801 -17.079,-82.652 -17.079,-119.344 h 43.758 43.762 c 0,36.692 -16.777,85.543 -17.078,119.344 z m 0.633,66.187 -0.02,5.875 c 0,16.852 -12.394,27.395 -27.297,27.395 -14.898,0 -27.293,-10.543 -27.293,-27.395 l -0.011,-5.875 z M 283.672,458.168 h 6.781 v 10.004 c 0,0 -8.726,1.793 -8.726,10.891 h -0.051 l -0.485,8.753 8.399,6.821 1.672,17.984 H 278.98 l -1.597,-12.738 h -11.867 l -1.754,12.738 h -6.77 -6.773 l -1.75,-12.738 H 236.598 L 235,512.621 h -12.281 l 1.672,-17.984 8.402,-6.821 -0.484,-8.753 h -0.059 c 0,-9.098 -8.719,-10.891 -8.719,-10.891 v -10.004 h 6.778 c -0.305,-33.801 -17.082,-82.652 -17.082,-119.344 h 43.765 43.762 c 0,36.692 -16.781,85.543 -17.082,119.344 z m 124.203,221.043 c 0,7.613 -6.164,13.785 -13.773,13.785 -7.618,0 -13.786,-6.172 -13.786,-13.785 0,-7.609 6.168,-13.777 13.786,-13.777 7.609,0 13.773,6.168 13.773,13.777 M 450.43,488.801 H 337.773 v -17.012 c 0,0 7.024,-3.125 7.024,-10.918 0,-15.605 -12.145,-77.433 -9.809,-122.047 h 39.231 l 2.945,42.364 c 1.313,10.707 8.172,16.945 16.934,16.945 8.757,0 15.621,-6.238 16.925,-16.945 l 2.95,-42.364 h 39.23 c 2.332,44.614 -9.805,106.442 -9.805,122.047 0,7.793 7.024,10.918 7.024,10.918 v 17.012 m -166.125,35.554 -0.012,5.875 c 0,16.852 -12.387,27.395 -27.293,27.395 -14.906,0 -27.301,-10.543 -27.301,-27.395 l -0.007,-5.875 z m 152.754,-22.097 c 0,0 -2.766,21.14 -2.766,28.156 0,10.137 9.719,14.043 9.719,14.043 l 1.199,22.563 -18.457,-0.008 -1.894,-14.184 H 408.57 L 406.676,567 H 381.52 l -1.895,-14.172 H 363.34 l -1.899,14.184 -18.453,0.008 1.2,-22.563 c 0,0 9.718,-3.906 9.718,-14.043 0,-7.016 -2.758,-28.156 -2.758,-28.156 z m 57.07,150.012 c -7.488,0.418 -14.336,-2.235 -19.465,-6.793 -0.351,-0.317 -0.039,-0.887 0.41,-0.758 3.204,0.926 6.731,1.09 10.383,0.207 7.735,-1.867 13.778,-8.332 15.067,-16.188 2.074,-12.652 -7.633,-23.586 -19.903,-23.586 -1.922,0 -3.789,0.282 -5.554,0.793 -0.45,0.133 -0.754,-0.445 -0.403,-0.761 4.77,-4.246 11.035,-6.836 17.934,-6.836 15.32,0 27.664,12.773 26.953,28.257 -0.637,13.649 -11.781,24.907 -25.422,25.665 m -58.508,-68.098 v -3.992 h -83.035 v 3.992 0 c 0,9.625 41.52,72.945 41.52,72.945 0,0 41.515,-63.32 41.515,-72.945 v 0" /></g></g></svg>
