<?xml version="1.0" encoding="UTF-8"?>
<svg viewBox="0 0 444 195" xmlns="http://www.w3.org/2000/svg" xmlns:xlink="http://www.w3.org/1999/xlink" version="1.1">
 <path id="path" d="M85.859 63.694 L54.87 63.694 54.87 59.501 C57.543 59.501 59.503 59.236 60.748 58.704 61.994 58.172 62.807 57.397 63.187 56.379 63.566 55.361 63.756 53.972 63.756 52.209 L63.756 13.472 40.423 63.694 37.643 63.694 13.991 13.472 13.991 50.249 C13.991 52.195 14.059 53.683 14.196 54.716 14.333 55.749 14.682 56.631 15.244 57.36 15.806 58.088 16.695 58.628 17.91 58.977 19.125 59.327 20.811 59.501 22.969 59.501 L22.969 63.694 0.091 63.694 0.091 59.501 C2.279 59.501 3.972 59.319 5.172 58.955 6.372 58.589 7.246 58.043 7.793 57.313 8.339 56.584 8.674 55.712 8.795 54.693 8.917 53.676 8.978 52.195 8.978 50.249 L8.978 15.249 C8.978 12.637 8.841 10.753 8.568 9.599 8.294 8.444 7.542 7.571 6.312 6.979 5.081 6.385 3.008 6.089 0.091 6.089 L0.091 1.897 22.695 1.897 43.203 45.511 63.756 1.897 85.859 1.897 85.859 6.089 C82.061 6.089 79.608 6.644 78.499 7.753 77.39 8.863 76.836 10.739 76.836 13.381 L76.836 52.209 C76.836 53.881 77.018 55.233 77.383 56.265 77.747 57.299 78.591 58.096 79.912 58.657 81.234 59.22 83.216 59.501 85.859 59.501 L85.859 63.694" fill="#ffffff" fill-opacity="1" stroke="none"/>
 <path id="path-1" d="M124.368 41.955 L115.846 20.4 107.734 41.955 Z M151.529 63.694 L122.409 63.694 122.409 59.501 C124.87 59.501 126.662 59.327 127.786 58.977 128.91 58.628 129.473 57.8 129.473 56.493 129.473 55.581 129.29 54.655 128.925 53.713 L126.009 46.421 105.957 46.421 104.453 50.432 C103.602 52.681 103.177 54.305 103.177 55.308 103.177 57.131 103.883 58.287 105.296 58.772 106.709 59.259 108.357 59.501 110.241 59.501 L110.241 63.694 88.958 63.694 88.958 59.501 C90.659 59.501 92.103 59.183 93.287 58.544 94.473 57.905 95.604 56.699 96.683 54.921 97.761 53.144 98.923 50.631 100.169 47.379 L117.988 0.712 122.318 0.712 141.139 48.837 C142.507 52.24 143.509 54.541 144.147 55.741 144.785 56.941 145.665 57.868 146.791 58.521 147.913 59.175 149.495 59.501 151.529 59.501 L151.529 63.694" fill="#ffffff" fill-opacity="1" stroke="none"/>
 <path id="path-2" d="M220.481 39.312 C218.719 39.495 217.389 39.776 216.493 40.155 215.597 40.536 214.981 41.188 214.648 42.115 214.313 43.043 214.147 44.477 214.147 46.421 L214.147 60.915 C209.741 60.915 204.972 61.491 199.837 62.646 196.131 63.466 193.351 64.036 191.497 64.355 189.643 64.674 187.456 64.833 184.935 64.833 178.251 64.833 172.524 63.269 167.753 60.139 162.984 57.011 159.407 52.984 157.021 48.063 154.636 43.14 153.444 38.081 153.444 32.887 153.444 26.932 154.856 21.501 157.683 16.595 160.508 11.688 164.336 7.829 169.167 5.019 173.997 2.209 179.284 0.803 185.027 0.803 192.013 0.803 198.379 3.219 204.121 8.049 204.819 6.743 205.381 4.949 205.807 2.672 L210.228 2.672 210.684 22.905 206.491 22.905 C205.853 19.837 204.652 17.027 202.891 14.475 201.128 11.923 198.932 9.903 196.305 8.415 193.677 6.925 190.783 6.181 187.624 6.181 185.313 6.181 183.051 6.584 180.833 7.388 178.615 8.193 176.541 9.592 174.612 11.581 172.683 13.572 171.133 16.283 169.964 19.716 168.795 23.149 168.209 27.388 168.209 32.431 168.209 36.745 168.665 40.892 169.577 44.872 170.488 48.852 172.341 52.271 175.136 55.127 177.932 57.983 181.881 59.409 186.985 59.409 190.996 59.409 194.033 58.78 196.1 57.519 198.165 56.259 199.511 54.716 200.135 52.893 200.755 51.071 201.068 49.035 201.068 46.787 201.068 44.66 200.908 43.111 200.589 42.139 200.269 41.165 199.524 40.452 198.356 39.996 197.187 39.54 195.385 39.312 192.956 39.312 L192.956 35.12 220.481 35.12 220.481 39.312" fill="#ffffff" fill-opacity="1" stroke="none"/>
 <path id="path-3" d="M257.368 41.955 L248.846 20.4 240.734 41.955 Z M284.529 63.694 L255.409 63.694 255.409 59.501 C257.87 59.501 259.662 59.327 260.786 58.977 261.91 58.628 262.473 57.8 262.473 56.493 262.473 55.581 262.29 54.655 261.925 53.713 L259.009 46.421 238.957 46.421 237.453 50.432 C236.602 52.681 236.177 54.305 236.177 55.308 236.177 57.131 236.883 58.287 238.296 58.772 239.709 59.259 241.357 59.501 243.241 59.501 L243.241 63.694 221.958 63.694 221.958 59.501 C223.659 59.501 225.103 59.183 226.287 58.544 227.473 57.905 228.604 56.699 229.683 54.921 230.761 53.144 231.923 50.631 233.169 47.379 L250.988 0.712 255.318 0.712 274.139 48.837 C275.507 52.24 276.509 54.541 277.147 55.741 277.785 56.941 278.665 57.868 279.791 58.521 280.913 59.175 282.495 59.501 284.529 59.501 L284.529 63.694" fill="#ffffff" fill-opacity="1" stroke="none"/>
 <path id="path-4" d="M334.505 45.967 C334.505 47.88 334.095 49.908 333.275 52.049 332.455 54.192 331.216 56.243 329.561 58.203 327.904 60.161 325.815 61.757 323.295 62.988 320.772 64.218 317.856 64.833 314.544 64.833 311.263 64.833 308.004 64.119 304.769 62.691 301.532 61.264 298.791 59.136 296.543 56.311 295.571 58.56 294.948 60.64 294.675 62.555 L290.481 62.555 290.481 41.409 294.675 41.409 C295.433 44.447 296.481 47.303 297.819 49.976 299.155 52.649 301.047 54.952 303.493 56.881 305.937 58.811 308.939 59.775 312.493 59.775 315.592 59.775 318.077 58.924 319.944 57.223 321.813 55.521 322.748 53.379 322.748 50.797 322.748 49.339 322.459 48.063 321.881 46.969 321.303 45.875 320.469 44.895 319.375 44.029 318.281 43.163 316.784 42.237 314.887 41.249 312.987 40.261 310.821 39.221 308.392 38.127 304.655 36.365 301.585 34.588 299.187 32.795 296.785 31.003 294.969 29.264 293.741 27.577 292.509 25.891 291.659 24.288 291.189 22.769 290.716 21.251 290.481 19.716 290.481 18.167 290.481 15.403 291.225 12.675 292.715 9.985 294.203 7.297 296.384 5.095 299.253 3.379 302.127 1.661 305.444 0.803 309.212 0.803 312.097 0.803 314.848 1.449 317.461 2.74 320.073 4.032 322.337 5.801 324.251 8.049 324.799 6.773 325.3 4.981 325.755 2.672 L330.039 2.672 330.039 19.899 325.755 19.899 C322.716 10.511 317.429 5.816 309.896 5.816 307.161 5.816 304.967 6.539 303.311 7.981 301.653 9.424 300.827 11.285 300.827 13.564 300.827 15.357 301.343 16.913 302.376 18.235 303.409 19.556 304.769 20.688 306.455 21.631 308.141 22.572 310.867 23.924 314.636 25.685 319.193 27.844 322.753 29.712 325.321 31.292 327.889 32.872 330.061 34.861 331.84 37.261 333.616 39.661 334.505 42.564 334.505 45.967" fill="#ffffff" fill-opacity="1" stroke="none"/>
 <path id="path-5" d="M371.693 63.694 L340.339 63.694 340.339 59.501 C342.951 59.501 344.925 59.251 346.263 58.749 347.599 58.248 348.472 57.496 348.884 56.493 349.293 55.491 349.499 54.063 349.499 52.209 L349.499 13.381 C349.499 10.708 348.944 8.824 347.835 7.731 346.725 6.636 344.227 6.089 340.339 6.089 L340.339 1.897 371.693 1.897 371.693 6.089 C369.079 6.089 367.104 6.348 365.768 6.864 364.431 7.381 363.559 8.133 363.147 9.12 362.739 10.108 362.532 11.528 362.532 13.381 L362.532 52.209 C362.532 53.972 362.729 55.355 363.125 56.357 363.52 57.36 364.361 58.133 365.655 58.681 366.945 59.228 368.959 59.501 371.693 59.501 L371.693 63.694" fill="#ffffff" fill-opacity="1" stroke="none"/>
 <path id="path-6" d="M443.015 6.089 C440.067 6.089 437.956 6.385 436.68 6.979 435.404 7.571 434.613 8.444 434.309 9.599 434.005 10.753 433.855 12.637 433.855 15.249 L433.855 64.241 429.661 64.241 389.239 16.207 389.239 50.249 C389.239 52.832 389.397 54.709 389.717 55.879 390.035 57.048 390.848 57.944 392.155 58.567 393.461 59.191 395.573 59.501 398.489 59.501 L398.489 63.694 375.521 63.694 375.521 59.501 C378.255 59.501 380.239 59.191 381.468 58.567 382.699 57.944 383.457 57.048 383.745 55.879 384.035 54.709 384.18 52.832 384.18 50.249 L384.18 18.713 C384.18 16.161 384.111 14.248 383.975 12.972 383.837 11.695 383.511 10.579 382.995 9.621 382.477 8.664 381.635 7.889 380.465 7.297 379.296 6.705 377.677 6.303 375.612 6.089 L375.612 1.897 393.613 1.897 428.796 43.46 428.796 15.249 C428.796 12.941 428.636 11.171 428.316 9.94 427.999 8.709 427.207 7.761 425.947 7.092 424.687 6.424 422.689 6.089 419.955 6.089 L419.955 1.897 443.015 1.897 443.015 6.089" fill="#ffffff" fill-opacity="1" stroke="none"/>
 <path id="path-7" d="M50.495 98.827 C50.495 94.663 49.271 91.178 46.826 88.366 44.38 85.554 41.061 83.606 36.868 82.521 35.045 82.048 33.109 81.748 31.058 81.619 29.007 81.491 26.068 81.427 22.24 81.427 L22.24 109.626 C22.24 111.245 22.36 112.424 22.604 113.162 22.847 113.903 23.561 114.465 24.746 114.85 25.931 115.235 27.769 115.425 30.26 115.425 37.643 115.425 42.861 113.752 45.914 110.395 48.968 107.042 50.495 103.186 50.495 98.827 Z M65.26 99.003 C65.26 101.904 64.5 104.523 62.982 106.861 61.462 109.198 59.503 111.147 57.103 112.704 54.703 114.264 52.135 115.437 49.401 116.226 43.628 117.884 36.564 118.712 28.209 118.712 L0 118.712 0 115.989 C2.612 115.989 4.587 115.826 5.924 115.501 7.261 115.175 8.135 114.687 8.545 114.036 8.955 113.386 9.16 112.458 9.16 111.254 L9.16 85.925 C9.16 84.189 8.613 82.965 7.519 82.256 6.425 81.546 3.919 81.191 0 81.191 L0 78.41 13.262 78.232 C13.718 78.232 15.57 78.21 18.821 78.172 22.072 78.132 23.956 78.113 24.473 78.113 29.546 78.113 33.853 78.291 37.393 78.647 40.932 79.001 44.175 79.572 47.122 80.362 49.826 81.072 52.318 82.063 54.596 83.335 56.875 84.608 58.796 86.058 60.361 87.685 61.925 89.313 63.133 91.084 63.984 92.996 64.834 94.911 65.26 96.912 65.26 99.003" fill="#ffffff" fill-opacity="1" stroke="none"/>
 <path id="path-8" d="M137.292 81.309 C134.527 81.309 132.544 81.514 131.344 81.93 130.144 82.343 129.407 82.934 129.134 83.704 128.86 84.475 128.724 85.657 128.724 87.256 L128.724 102.051 C128.724 104.772 128.579 106.82 128.291 108.193 128.002 109.563 127.235 110.948 125.99 112.349 123.68 115.053 120.453 116.911 116.305 117.926 112.158 118.943 108.17 119.45 104.342 119.45 101.517 119.45 98.607 119.209 95.615 118.726 92.622 118.244 89.834 117.448 87.253 116.344 84.67 115.239 82.71 113.79 81.373 111.993 80.645 111.007 80.082 110.016 79.687 109.02 79.292 108.024 79.057 107.086 78.981 106.209 78.905 105.331 78.867 104.183 78.867 102.761 L78.776 86.043 C78.776 84.306 78.252 83.083 77.203 82.374 76.156 81.664 73.702 81.309 69.844 81.309 L69.844 78.586 101.016 78.586 101.016 81.309 C98.372 81.309 96.397 81.481 95.091 81.827 93.784 82.171 92.934 82.665 92.539 83.305 92.144 83.946 91.946 84.858 91.946 86.043 L91.946 102.761 C91.946 104.477 92.075 105.982 92.334 107.275 92.592 108.566 92.995 109.696 93.542 110.662 94.574 112.261 96.329 113.538 98.805 114.494 101.281 115.452 104.008 115.93 106.985 115.93 110.175 115.93 113.145 115.422 115.895 114.405 118.645 113.391 120.551 112.073 121.615 110.456 122.464 109.194 123.019 107.886 123.278 106.534 123.536 105.185 123.665 103.572 123.665 101.696 L123.665 87.256 C123.665 85.954 123.604 84.988 123.483 84.356 123.361 83.725 123.027 83.167 122.48 82.684 121.934 82.201 121.029 81.851 119.769 81.633 118.508 81.417 116.768 81.309 114.551 81.309 L114.551 78.586 137.292 78.586 137.292 81.309" fill="#ffffff" fill-opacity="1" stroke="none"/>
 <path id="path-9" d="M229.903 81.309 C226.955 81.309 224.843 81.5 223.567 81.885 222.291 82.27 221.501 82.837 221.196 83.586 220.892 84.337 220.741 85.56 220.741 87.256 L220.741 119.067 216.548 119.067 176.125 87.878 176.125 109.982 C176.125 111.659 176.285 112.878 176.604 113.637 176.923 114.396 177.736 114.978 179.043 115.382 180.348 115.787 182.46 115.989 185.376 115.989 L185.376 118.712 162.408 118.712 162.408 115.989 C165.143 115.989 167.125 115.787 168.356 115.382 169.585 114.978 170.345 114.396 170.635 113.637 170.923 112.878 171.067 111.659 171.067 109.982 L171.067 89.504 C171.067 87.847 170.999 86.604 170.861 85.775 170.725 84.948 170.399 84.223 169.883 83.602 169.365 82.98 168.523 82.477 167.353 82.092 166.183 81.707 164.565 81.447 162.499 81.309 L162.499 78.586 180.501 78.586 215.684 105.573 215.684 87.256 C215.684 85.757 215.524 84.608 215.204 83.808 214.887 83.009 214.095 82.393 212.835 81.959 211.575 81.525 209.577 81.309 206.843 81.309 L206.843 78.586 229.903 78.586 229.903 81.309" fill="#ffffff" fill-opacity="1" stroke="none"/>
 <path id="path-10" d="M289.128 98.53 C289.128 96.281 288.831 94.151 288.24 92.139 287.645 90.126 286.605 88.306 285.117 86.679 283.628 85.051 281.592 83.759 279.011 82.803 276.427 81.845 273.237 81.368 269.44 81.368 264.213 81.368 260.136 82.209 257.203 83.897 254.271 85.584 252.281 87.694 251.235 90.23 250.185 92.765 249.661 95.532 249.661 98.53 249.661 100.188 249.828 101.914 250.163 103.709 250.496 105.503 251.303 107.343 252.579 109.227 253.855 111.111 255.889 112.7 258.685 113.991 261.479 115.284 265.095 115.93 269.531 115.93 273.936 115.93 277.513 115.264 280.263 113.931 283.013 112.601 285.019 110.975 286.279 109.051 287.539 107.125 288.331 105.286 288.648 103.53 288.969 101.775 289.128 100.108 289.128 98.53 Z M303.893 98.649 C303.893 102.297 302.556 105.716 299.883 108.902 297.208 112.089 293.252 114.642 288.011 116.566 282.771 118.49 276.579 119.45 269.44 119.45 263.607 119.45 258.472 118.839 254.036 117.616 249.6 116.394 245.976 114.756 243.167 112.704 240.357 110.653 238.275 108.404 236.924 105.958 235.572 103.512 234.896 101.055 234.896 98.59 234.896 95.019 236.187 91.645 238.769 88.469 241.352 85.293 245.241 82.733 250.436 80.79 255.632 78.847 261.844 77.875 269.076 77.875 275.668 77.875 281.273 78.576 285.892 79.976 290.509 81.378 294.109 83.144 296.693 85.274 299.275 87.405 301.12 89.638 302.229 91.976 303.339 94.314 303.893 96.537 303.893 98.649" fill="#ffffff" fill-opacity="1" stroke="none"/>
 <path id="path-11" d="M350.904 89.267 C350.904 86.072 349.407 83.951 346.413 82.907 343.421 81.86 339.511 81.338 334.68 81.338 334.011 81.338 333.487 81.342 333.107 81.352 332.727 81.363 332.295 81.368 331.808 81.368 L331.808 97.494 334.68 97.494 C339.267 97.494 343.117 97.012 346.232 96.045 349.347 95.077 350.904 92.818 350.904 89.267 Z M376.516 118.712 L359.972 118.712 C359.364 118.278 358.612 117.647 357.716 116.818 356.82 115.989 355.84 115.016 354.777 113.903 353.713 112.79 352.832 111.865 352.135 111.136 L347.941 106.639 C346.057 104.627 344.637 103.249 343.68 102.509 342.724 101.77 341.631 101.296 340.399 101.09 339.169 100.883 337.079 100.78 334.133 100.78 L331.808 100.78 331.808 111.254 C331.808 112.36 331.991 113.248 332.356 113.917 332.72 114.588 333.579 115.102 334.929 115.457 336.281 115.812 338.248 115.989 340.832 115.989 L340.832 118.712 309.843 118.712 309.843 115.989 C313.609 115.989 316.032 115.633 317.112 114.924 318.189 114.214 318.729 112.99 318.729 111.254 L318.729 85.925 C318.729 84.208 318.205 82.99 317.156 82.27 316.109 81.55 313.671 81.191 309.843 81.191 L309.843 78.409 324.152 78.113 C325.245 78.072 326.5 78.043 327.912 78.024 329.325 78.004 330.639 77.994 331.855 77.994 332.796 77.994 334.36 78.014 336.548 78.053 339.616 78.113 342.487 78.232 345.161 78.409 347.835 78.586 349.947 78.813 351.496 79.088 353.775 79.464 355.94 80.086 357.989 80.954 360.041 81.821 361.711 82.965 363.003 84.386 364.295 85.807 364.94 87.454 364.94 89.327 364.94 90.67 364.491 91.972 363.596 93.233 362.699 94.496 361.255 95.62 359.265 96.606 357.276 97.594 354.655 98.372 351.405 98.945 353.623 99.793 355.507 100.844 357.056 102.097 358.605 103.349 361.035 105.652 364.348 109.006 366.261 110.917 367.841 112.363 369.087 113.34 370.332 114.317 371.479 114.978 372.528 115.323 373.576 115.668 374.905 115.89 376.516 115.989 L376.516 118.712" fill="#ffffff" fill-opacity="1" stroke="none"/>
 <path id="path-12" d="M428.495 98.827 C428.495 94.663 427.271 91.178 424.826 88.366 422.38 85.554 419.061 83.606 414.868 82.521 413.045 82.048 411.108 81.748 409.058 81.619 407.006 81.491 404.068 81.427 400.24 81.427 L400.24 109.625 C400.24 111.245 400.36 112.424 400.604 113.162 400.846 113.903 401.561 114.465 402.745 114.849 403.93 115.235 405.768 115.425 408.26 115.425 415.642 115.425 420.86 113.752 423.914 110.395 426.968 107.042 428.495 103.186 428.495 98.827 Z M443.26 99.003 C443.26 101.904 442.5 104.522 440.981 106.86 439.462 109.198 437.502 111.146 435.102 112.704 432.701 114.264 430.136 115.437 427.401 116.226 421.628 117.883 414.564 118.712 406.209 118.712 L378 118.712 378 115.989 C380.612 115.989 382.586 115.826 383.924 115.501 385.26 115.175 386.134 114.687 386.545 114.036 386.954 113.386 387.16 112.457 387.16 111.254 L387.16 85.925 C387.16 84.189 386.613 82.965 385.52 82.256 384.425 81.546 381.918 81.191 378 81.191 L378 78.409 391.261 78.232 C391.717 78.232 393.57 78.21 396.821 78.172 400.072 78.132 401.956 78.113 402.472 78.113 407.545 78.113 411.853 78.291 415.392 78.646 418.93 79.001 422.174 79.571 425.122 80.362 427.825 81.071 430.317 82.063 432.596 83.334 434.875 84.608 436.796 86.058 438.36 87.685 439.925 89.313 441.133 91.084 441.984 92.996 442.834 94.911 443.26 96.912 443.26 99.003" fill="#ffffff" fill-opacity="1" stroke="none"/>
 <path id="path-13" d="M85.859 193.862 L54.87 193.862 54.87 189.668 C57.543 189.668 59.503 189.403 60.748 188.871 61.994 188.339 62.807 187.565 63.187 186.547 63.566 185.529 63.756 184.139 63.756 182.377 L63.756 143.64 40.423 193.862 37.643 193.862 13.991 143.64 13.991 180.417 C13.991 182.363 14.059 183.851 14.196 184.883 14.333 185.917 14.682 186.797 15.244 187.527 15.806 188.256 16.695 188.795 17.91 189.144 19.125 189.495 20.811 189.668 22.969 189.668 L22.969 193.862 0.091 193.862 0.091 189.668 C2.279 189.668 3.972 189.487 5.172 189.121 6.372 188.757 7.246 188.21 7.793 187.481 8.339 186.752 8.674 185.877 8.795 184.86 8.917 183.843 8.978 182.363 8.978 180.417 L8.978 145.417 C8.978 142.805 8.841 140.921 8.568 139.767 8.294 138.612 7.542 137.738 6.312 137.147 5.081 136.552 3.008 136.257 0.091 136.257 L0.091 132.064 22.695 132.064 43.203 175.677 63.756 132.064 85.859 132.064 85.859 136.257 C82.061 136.257 79.608 136.812 78.499 137.92 77.39 139.029 76.836 140.905 76.836 143.55 L76.836 182.377 C76.836 184.047 77.018 185.4 77.383 186.433 77.747 187.467 78.591 188.264 79.912 188.826 81.234 189.388 83.216 189.668 85.859 189.668 L85.859 193.862" fill="#ffffff" fill-opacity="1" stroke="none"/>
 <path id="path-14" d="M158.875 136.257 C156.109 136.257 154.127 136.576 152.927 137.215 151.727 137.852 150.991 138.764 150.717 139.948 150.443 141.133 150.307 142.956 150.307 145.417 L150.307 168.204 C150.307 172.396 150.161 175.55 149.873 177.659 149.584 179.771 148.817 181.907 147.572 184.063 145.263 188.226 142.035 191.09 137.888 192.655 133.741 194.217 129.753 195 125.925 195 123.099 195 120.19 194.628 117.198 193.883 114.205 193.14 111.417 191.917 108.835 190.216 106.253 188.514 104.293 186.281 102.956 183.516 102.227 181.997 101.664 180.471 101.27 178.935 100.875 177.402 100.64 175.959 100.563 174.607 100.487 173.256 100.45 171.486 100.45 169.297 L100.359 143.55 C100.359 140.876 99.834 138.992 98.786 137.897 97.738 136.804 95.284 136.257 91.427 136.257 L91.427 132.064 122.598 132.064 122.598 136.257 C119.955 136.257 117.98 136.524 116.674 137.055 115.367 137.586 114.516 138.347 114.122 139.333 113.726 140.321 113.529 141.726 113.529 143.55 L113.529 169.297 C113.529 171.94 113.658 174.259 113.917 176.248 114.174 178.238 114.578 179.977 115.125 181.465 116.157 183.927 117.911 185.893 120.388 187.368 122.864 188.841 125.591 189.577 128.568 189.577 131.758 189.577 134.728 188.795 137.477 187.229 140.227 185.665 142.133 183.639 143.197 181.147 144.048 179.203 144.603 177.19 144.861 175.107 145.119 173.027 145.248 170.544 145.248 167.657 L145.248 145.417 C145.248 143.412 145.187 141.924 145.065 140.951 144.944 139.98 144.609 139.12 144.063 138.376 143.516 137.632 142.612 137.093 141.352 136.759 140.091 136.426 138.351 136.257 136.133 136.257 L136.133 132.064 158.875 132.064 158.875 136.257" fill="#ffffff" fill-opacity="1" stroke="none"/>
 <path id="path-15" d="M212.064 176.133 C212.064 178.047 211.655 180.076 210.835 182.216 210.015 184.36 208.775 186.409 207.121 188.371 205.463 190.328 203.373 191.926 200.853 193.155 198.332 194.385 195.415 195 192.103 195 188.821 195 185.564 194.286 182.328 192.859 179.092 191.431 176.351 189.304 174.103 186.479 173.129 188.727 172.507 190.808 172.233 192.721 L168.041 192.721 168.041 171.576 172.233 171.576 C172.993 174.615 174.041 177.471 175.379 180.144 176.715 182.819 178.607 185.119 181.052 187.047 183.496 188.977 186.499 189.941 190.053 189.941 193.152 189.941 195.636 189.092 197.504 187.389 199.373 185.688 200.305 183.547 200.305 180.964 200.305 179.505 200.017 178.229 199.441 177.136 198.863 176.043 198.027 175.063 196.933 174.196 195.84 173.331 194.343 172.404 192.447 171.417 190.545 170.431 188.381 169.388 185.952 168.295 182.215 166.533 179.145 164.756 176.745 162.963 174.345 161.169 172.529 159.431 171.3 157.745 170.069 156.057 169.217 154.456 168.747 152.938 168.276 151.417 168.041 149.883 168.041 148.333 168.041 145.569 168.785 142.841 170.273 140.155 171.763 137.464 173.943 135.263 176.813 133.545 179.685 131.829 183.004 130.97 186.772 130.97 189.657 130.97 192.408 131.616 195.02 132.907 197.632 134.198 199.897 135.969 201.811 138.216 202.357 136.94 202.857 135.15 203.313 132.839 L207.597 132.839 207.597 150.065 203.313 150.065 C200.275 140.677 194.988 135.984 187.455 135.984 184.72 135.984 182.524 136.707 180.869 138.15 179.213 139.592 178.385 141.452 178.385 143.731 178.385 145.524 178.903 147.081 179.936 148.402 180.968 149.724 182.328 150.856 184.015 151.797 185.701 152.74 188.425 154.092 192.193 155.853 196.751 158.01 200.313 159.88 202.881 161.459 205.449 163.04 207.621 165.029 209.4 167.429 211.176 169.828 212.064 172.731 212.064 176.133" fill="#ffffff" fill-opacity="1" stroke="none"/>
 <path id="path-16" d="M276.147 173.536 L275.645 193.862 220.593 193.862 220.593 189.668 C224.391 189.668 226.837 189.121 227.931 188.028 229.024 186.935 229.572 185.05 229.572 182.377 L229.572 143.55 C229.572 141.786 229.396 140.412 229.048 139.426 228.697 138.439 227.877 137.661 226.587 137.1 225.295 136.539 223.297 136.257 220.593 136.257 L220.593 132.064 271.863 132.064 272.684 148.105 268.491 148.105 C267.548 144.551 266.463 142.007 265.233 140.472 264.001 138.939 262.619 137.996 261.084 137.647 259.551 137.297 257.248 137.122 254.181 137.122 L242.605 137.122 242.605 158.952 248.895 158.952 C251.051 158.952 252.661 158.764 253.725 158.383 254.788 158.003 255.532 157.281 255.959 156.217 256.383 155.155 256.672 153.484 256.824 151.205 L261.199 151.205 261.199 171.759 257.007 171.759 C256.884 169.48 256.581 167.802 256.095 166.721 255.608 165.644 254.843 164.922 253.793 164.557 252.745 164.193 251.141 164.01 248.985 164.01 L242.605 164.01 242.605 178.55 C242.605 180.98 242.665 182.757 242.788 183.88 242.909 185.005 243.236 185.939 243.767 186.683 244.299 187.428 245.164 187.967 246.365 188.302 247.565 188.636 249.273 188.803 251.492 188.803 L256.46 188.803 C258.556 188.803 260.553 188.538 262.452 188.005 264.351 187.475 266.212 186.107 268.035 183.904 269.857 181.702 271.135 178.245 271.863 173.536 L276.147 173.536" fill="#ffffff" fill-opacity="1" stroke="none"/>
 <path id="path-17" d="M350.301 136.257 C347.534 136.257 345.553 136.576 344.354 137.215 343.152 137.852 342.417 138.764 342.142 139.948 341.869 141.133 341.733 142.956 341.733 145.417 L341.733 168.204 C341.733 172.396 341.588 175.55 341.3 177.659 341.01 179.771 340.244 181.907 338.998 184.063 336.689 188.226 333.461 191.09 329.314 192.655 325.167 194.217 321.18 195 317.352 195 314.526 195 311.616 194.628 308.625 193.883 305.632 193.14 302.844 191.917 300.261 190.216 297.678 188.514 295.719 186.281 294.382 183.516 293.653 181.997 293.09 180.471 292.696 178.935 292.301 177.402 292.065 175.959 291.989 174.607 291.914 173.256 291.876 171.486 291.876 169.297 L291.785 143.55 C291.785 140.876 291.26 138.992 290.213 137.897 289.164 136.804 286.71 136.257 282.853 136.257 L282.853 132.064 314.024 132.064 314.024 136.257 C311.381 136.257 309.406 136.524 308.1 137.055 306.793 137.586 305.943 138.347 305.548 139.333 305.152 140.321 304.956 141.726 304.956 143.55 L304.956 169.297 C304.956 171.94 305.084 174.259 305.344 176.248 305.6 178.238 306.004 179.977 306.55 181.465 307.584 183.927 309.337 185.893 311.814 187.368 314.29 188.841 317.017 189.577 319.995 189.577 323.185 189.577 326.153 188.795 328.904 187.229 331.653 185.665 333.56 183.639 334.624 181.147 335.473 179.203 336.028 177.19 336.286 175.107 336.544 173.027 336.674 170.544 336.674 167.657 L336.674 145.417 C336.674 143.412 336.613 141.924 336.492 140.951 336.369 139.98 336.036 139.12 335.489 138.376 334.943 137.632 334.037 137.093 332.778 136.759 331.517 136.426 329.777 136.257 327.56 136.257 L327.56 132.064 350.301 132.064 350.301 136.257" fill="#ffffff" fill-opacity="1" stroke="none"/>
 <path id="path-18" d="M442.229 193.862 L411.24 193.862 411.24 189.668 C413.912 189.668 415.872 189.403 417.119 188.871 418.363 188.339 419.176 187.565 419.556 186.547 419.936 185.529 420.127 184.139 420.127 182.377 L420.127 143.64 396.793 193.862 394.013 193.862 370.361 143.64 370.361 180.417 C370.361 182.363 370.428 183.851 370.567 184.883 370.701 185.917 371.051 186.797 371.613 187.527 372.176 188.256 373.064 188.795 374.28 189.144 375.495 189.495 377.181 189.668 379.339 189.668 L379.339 193.862 356.461 193.862 356.461 189.668 C358.648 189.668 360.341 189.487 361.543 189.121 362.743 188.757 363.616 188.21 364.163 187.481 364.709 186.752 365.043 185.877 365.165 184.86 365.287 183.843 365.348 182.363 365.348 180.417 L365.348 145.417 C365.348 142.805 365.211 140.921 364.937 139.767 364.664 138.612 363.912 137.738 362.681 137.147 361.452 136.552 359.377 136.257 356.461 136.257 L356.461 132.064 379.065 132.064 399.573 175.677 420.127 132.064 442.229 132.064 442.229 136.257 C438.431 136.257 435.977 136.812 434.868 137.92 433.759 139.029 433.205 140.905 433.205 143.55 L433.205 182.377 C433.205 184.047 433.388 185.4 433.752 186.433 434.117 187.467 434.96 188.264 436.283 188.826 437.603 189.388 439.585 189.668 442.229 189.668 L442.229 193.862" fill="#ffffff" fill-opacity="1" stroke="none"/>
</svg>
