<?xml version="1.0" encoding="UTF-8"?>
<svg viewBox="0 0 24 24" version="1.1" xmlns="http://www.w3.org/2000/svg" xmlns:xlink="http://www.w3.org/1999/xlink">
    <path d="M13.634,18.4 C14.013,18.4 14.3246,18.0786 14.3336,17.6978 L14.537,9.0624 C14.546,8.6758 14.2402,8.3504 13.8536,8.3414 C13.461,8.3356 13.1464,8.6358 13.1374,9.0222 L12.934,17.666 C12.9248,18.0524 13.2306,18.4 13.6172,18.4 L13.634,18.4 Z M10.3354,18.4 L10.3522,18.4 C10.7388,18.4 11.0446,18.0282 11.0356,17.6416 L10.8322,8.9948 C10.823,8.6082 10.506,8.2924 10.1158,8.301 C9.7294,8.31 9.4234,8.6254 9.4326,9.012 L9.636,17.6772 C9.645,18.058 9.9564,18.4 10.3354,18.4 L10.3354,18.4 Z M10,5.4 L14,5.4 L14,4.4 L10,4.4 L10,5.4 Z M20.6,6.2 C20.6,6.6418 20.2418,7 19.8,7 L4.2,7 C3.7582,7 3.4,6.6418 3.4,6.2 C3.4,5.7582 3.7582,5.4 4.2,5.4 L8.6,5.4 L8.6,3.6 C8.6,3.2134 8.8578,3 9.2444,3 L14.7554,3 C15.142,3 15.4,3.2134 15.4,3.6 L15.4,5.4 L19.8,5.4 C20.2418,5.4 20.6,5.7582 20.6,6.2 L20.6,6.2 Z M18.4794,8.8776 L17.8688,20.4422 C17.8464,20.867 17.4954,21.2 17.07,21.2 L6.93,21.2 C6.5046,21.2 6.1536,20.867 6.1312,20.4422 L5.5208,8.8776 C5.4974,8.4364 5.8362,8.0598 6.2774,8.0366 C6.7208,8.0152 7.0954,8.3522 7.1186,8.7932 L7.689,19.6 L16.311,19.6 L16.8814,8.7932 C16.9048,8.352 17.284,8.0166 17.7226,8.0366 C18.1638,8.0598 18.5026,8.4364 18.4794,8.8776 L18.4794,8.8776 Z" id="path-1"></path>
</svg>