<svg viewBox="0 0 240 240"><path d="M121.858,91 C121.858,94.846 118.742,98 114.896,98 L98,98 L98,113.97 C98,117.814 94.846,120.932 91,120.932 C87.156,120.932 84,117.814 84,113.97 L84,98 L66.228,98 C62.382,98 59.266,94.846 59.266,91 C59.266,87.154 62.382,84 66.228,84 L84,84 L84,65.872 C84,62.026 87.156,58.91 91,58.91 C94.846,58.91 98,62.026 98,65.872 L98,84 L114.896,84 C118.742,84 121.858,87.154 121.858,91 M43.914,89.92 C43.914,64.552 64.84,43.914 90.562,43.914 C116.282,43.914 137.208,64.552 137.208,89.92 C137.208,115.288 116.282,135.926 90.562,135.926 C64.84,135.926 43.914,115.288 43.914,89.92 M209.342,196.682 L139.842,127.994 C148.15,117.482 153.122,104.268 153.122,89.92 C153.122,55.776 125.058,28 90.562,28 C56.066,28 28,55.776 28,89.92 C28,124.062 56.066,151.84 90.562,151.84 C104.08,151.84 116.6,147.56 126.842,140.316 L196.758,209.416 C198.502,211.14 200.776,212 203.05,212 C205.358,212 207.666,211.112 209.416,209.34 C212.892,205.824 212.858,200.158 209.342,196.682" fill-rule="nonzero"/></svg>
