<svg viewBox="0 0 240 240"><path d="M195.9995,120.000006 C195.9995,124.418006 192.4175,128.000006 187.9995,128.000006 L71.2775,128.000006 L107.5295,164.350006 C110.6495,167.480006 110.6435,172.544006 107.5155,175.664006 C105.9535,177.222006 103.9095,178.000006 101.8655,178.000006 C99.8155,178.000006 97.7635,177.216006 96.2015,175.650006 L46.3355,125.650006 C43.2215,122.526006 43.2215,117.474006 46.3355,114.350006 L96.2015,64.350006 C99.3215,61.222006 104.3855,61.216006 107.5155,64.336006 C110.6435,67.456006 110.6495,72.520006 107.5295,75.650006 L71.2775,112.000006 L187.9995,112.000006 C192.4175,112.000006 195.9995,115.582006 195.9995,120.000006"/></svg>
