<svg version="1.1" id="Logo" xmlns="http://www.w3.org/2000/svg" xmlns:xlink="http://www.w3.org/1999/xlink" x="0px" y="0px" viewBox="0 0 595.3 841.9" style="enable-background:new 0 0 595.3 841.9;" xml:space="preserve">
	<style type="text/css">
		.st0{fill:#FFFFFF;}
	</style>
	<g>
		<path class="st0" d="M276.5,132.1v4.9h6.5v2h-6.5v7.6h-2.6v-16.7h9.6v2.1H276.5z"/>
		<path class="st0" d="M296.8,146.7l-3.1-6c-0.5-0.9-1.2-1.4-2.1-1.4h-1.5v7.4h-2.6v-16.7h4.6c1,0,1.9,0,2.6,0.1
			c1.2,0.1,2.1,0.6,2.7,1.3c0.7,0.8,1,1.7,1,2.8c0,1.1-0.4,2-1,2.8c-0.7,0.8-1.6,1.3-2.7,1.4c0.7,0.2,1.2,0.6,1.6,1.4l3.7,6.8H296.8z
			M294.8,132.7c-0.5-0.4-1.4-0.6-2.6-0.6h-2.1v5.3h2c1.1,0,2-0.3,2.6-0.8c0.6-0.5,0.9-1.2,0.9-2.1
			C295.7,133.8,295.4,133.2,294.8,132.7z"/>
		<path class="st0" d="M303.5,146.7l0-16.7h9.7v2.1h-7.1v4.9h6.7v2h-6.7v5.5h7.6v2.2H303.5z"/>
		<path class="st0" d="M329.6,144.8c-0.9,0.7-1.9,1.2-3,1.5c-1.1,0.3-2.5,0.4-4.4,0.4H318v-16.7h4.6c1.8,0,3.3,0.1,4.6,0.4
			c1.6,0.4,3,1.3,4,2.8c1.1,1.4,1.6,3.1,1.6,5C332.8,141,331.8,143.2,329.6,144.8z M328.5,134c-0.6-0.7-1.3-1.1-2.1-1.4
			c-0.8-0.3-1.9-0.4-3.2-0.4h-2.5v12.4h2.4c2.2,0,3.9-0.5,5.1-1.7c1.3-1.1,1.9-2.7,1.9-4.6C330.1,136.6,329.6,135.1,328.5,134z"/>
		<path class="st0" d="M336.6,146.7l0-16.7h9.7v2.1h-7.1v4.9h6.7v2h-6.7v5.5h7.6v2.2H336.6z"/>
		<path class="st0" d="M360.5,146.7l-3.1-6c-0.5-0.9-1.2-1.4-2.1-1.4h-1.5v7.4h-2.6v-16.7h4.6c1,0,1.9,0,2.6,0.1
			c1.2,0.1,2.1,0.6,2.7,1.3c0.7,0.8,1,1.7,1,2.8c0,1.1-0.4,2-1,2.8c-0.7,0.8-1.6,1.3-2.8,1.4c0.7,0.2,1.2,0.6,1.6,1.4l3.7,6.8H360.5z
			M358.5,132.7c-0.5-0.4-1.4-0.6-2.6-0.6h-2.1v5.3h2c1.1,0,2-0.3,2.6-0.8s1-1.2,1-2.1C359.3,133.8,359,133.2,358.5,132.7z"/>
		<path class="st0" d="M367.1,146.7v-16.7h2.7v16.7H367.1z"/>
		<path class="st0" d="M385.1,146.7l-7.4-8.3v8.3H375v-16.7h2.6v7.4l7.2-7.4h3.3l-7.7,7.8l8.2,8.9H385.1z"/>
		<path class="st0" d="M399.7,145.7c-1.3,0.9-3,1.4-5.1,1.4c-1.3,0-2.7-0.2-4.2-0.6l0.4-2.1c1.4,0.3,2.6,0.4,3.6,0.4
			c1.4,0,2.4-0.3,3.3-0.8c0.8-0.5,1.2-1.2,1.2-2c0-0.6-0.3-1.1-0.7-1.5c-0.5-0.4-1.4-0.9-2.8-1.5c-1.6-0.7-2.8-1.3-3.5-2
			c-0.8-0.7-1.2-1.6-1.2-2.8c0-1.4,0.6-2.5,1.7-3.3s2.8-1.3,4.7-1.3c1.3,0,2.5,0.2,3.7,0.5l-0.4,1.9c-1.1-0.2-2.1-0.3-3.1-0.3
			c-1.2,0-2.2,0.2-2.9,0.6c-0.7,0.4-1.1,1-1.1,1.7c0,0.5,0.2,0.9,0.7,1.3s1.2,0.8,2.4,1.3c1.8,0.7,3.1,1.4,4,2.2
			c0.8,0.7,1.2,1.7,1.2,3C401.6,143.5,401,144.7,399.7,145.7z"/>
		<path class="st0" d="M415.7,145.4c-1.2,0.9-2.7,1.3-4.7,1.3h-5.1v-16.7h4.7c1.8,0,3.3,0.3,4.2,0.8c1.2,0.7,1.8,1.7,1.8,3.2
			c0,1.1-0.4,2-1.1,2.7c-0.4,0.4-1.1,0.8-1.9,1c1.2,0.2,2.1,0.6,2.8,1.3s1,1.6,1,2.7C417.5,143.3,416.9,144.5,415.7,145.4z
			M410.6,132.1h-2.2v4.9h1.8c1.1,0,1.9-0.1,2.4-0.4c0.9-0.5,1.3-1.3,1.3-2.2C414,132.8,412.9,132.1,410.6,132.1z M412.9,139.2
			c-0.5-0.2-1.2-0.3-2.4-0.3h-2.1v5.8h2c1.2,0,2.2-0.2,2.8-0.5c0.9-0.5,1.4-1.4,1.4-2.5C414.6,140.4,414.1,139.6,412.9,139.2z"/>
		<path class="st0" d="M421.8,146.7l0-16.7h9.7v2.1h-7.1v4.9h6.7v2h-6.7v5.5h7.6v2.2H421.8z"/>
		<path class="st0" d="M445.7,146.7l-3.1-6c-0.5-0.9-1.2-1.4-2.1-1.4H439v7.4h-2.6v-16.7h4.6c1,0,1.9,0,2.6,0.1
			c1.2,0.1,2.1,0.6,2.7,1.3c0.7,0.8,1,1.7,1,2.8c0,1.1-0.4,2-1,2.8c-0.7,0.8-1.6,1.3-2.8,1.4c0.7,0.2,1.2,0.6,1.6,1.4l3.7,6.8H445.7z
			M443.7,132.7c-0.5-0.4-1.4-0.6-2.6-0.6H439v5.3h2c1.1,0,2-0.3,2.6-0.8s1-1.2,1-2.1C444.6,133.8,444.3,133.2,443.7,132.7z"/>
		<path class="st0" d="M462.4,146.9c-0.7,0.2-1.6,0.3-2.8,0.3c-2.6,0-4.7-0.8-6.4-2.4s-2.5-3.6-2.5-6.1c0-2.6,0.9-4.7,2.7-6.3
			c1.8-1.7,4.1-2.5,6.9-2.5c1,0,1.7,0,2.4,0.2s1.5,0.4,2.5,0.8l-0.7,1.9c-1.5-0.5-2.8-0.7-4-0.7c-2.1,0-3.8,0.6-5.1,1.8
			c-1.3,1.2-1.9,2.8-1.9,4.8c0,1.9,0.6,3.5,1.8,4.7c1.2,1.2,2.8,1.8,4.7,1.8c0.8,0,1.8-0.1,2.8-0.5v-5.8h2.6v7.1
			C464.2,146.4,463.2,146.7,462.4,146.9z"/>
		<path class="st0" d="M282.3,169.7c-1.3,0.9-3,1.4-5.1,1.4c-1.3,0-2.7-0.2-4.2-0.6l0.4-2.1c1.4,0.3,2.6,0.4,3.6,0.4
			c1.4,0,2.4-0.3,3.3-0.8c0.8-0.5,1.2-1.2,1.2-2c0-0.6-0.3-1.1-0.7-1.5c-0.5-0.4-1.4-0.9-2.8-1.5c-1.6-0.7-2.8-1.3-3.5-2
			c-0.8-0.7-1.2-1.6-1.2-2.8c0-1.4,0.6-2.5,1.7-3.3c1.2-0.8,2.7-1.3,4.7-1.3c1.2,0,2.5,0.2,3.7,0.5l-0.4,1.9
			c-1.1-0.2-2.1-0.3-3.1-0.3c-1.2,0-2.2,0.2-2.9,0.6c-0.7,0.4-1.1,1-1.1,1.7c0,0.5,0.2,0.9,0.7,1.3c0.4,0.4,1.2,0.8,2.4,1.3
			c1.8,0.7,3.1,1.4,4,2.2c0.8,0.7,1.2,1.7,1.2,3C284.2,167.5,283.6,168.7,282.3,169.7z"/>
		<path class="st0" d="M294,156.1v14.6h-2.6v-14.6H286v-2.1h13.3v2.1H294z"/>
		<path class="st0" d="M312.2,170.7l-2.2-5.5h-6.7l-2.2,5.5h-2.6l6.9-16.7h2.8l6.9,16.7H312.2z M306.6,156.7l-2.6,6.6h5.2
			L306.6,156.7z"/>
		<path class="st0" d="M329.4,168.8c-0.9,0.7-1.9,1.2-3,1.5c-1.1,0.3-2.5,0.4-4.4,0.4h-4.2v-16.7h4.6c1.8,0,3.3,0.1,4.6,0.4
			c1.6,0.4,3,1.3,4,2.8c1.1,1.4,1.6,3.1,1.6,5C332.6,165,331.5,167.2,329.4,168.8z M328.3,158c-0.6-0.7-1.3-1.1-2.1-1.4
			c-0.8-0.3-1.9-0.4-3.2-0.4h-2.5v12.4h2.4c2.2,0,3.9-0.5,5.1-1.7c1.3-1.1,1.9-2.7,1.9-4.6C329.8,160.6,329.3,159.1,328.3,158z"/>
		<path class="st0" d="M344.5,169.7c-1.3,0.9-3,1.4-5.1,1.4c-1.3,0-2.7-0.2-4.2-0.6l0.4-2.1c1.4,0.3,2.6,0.4,3.6,0.4
			c1.4,0,2.4-0.3,3.3-0.8c0.8-0.5,1.2-1.2,1.2-2c0-0.6-0.3-1.1-0.7-1.5c-0.5-0.4-1.4-0.9-2.8-1.5c-1.6-0.7-2.8-1.3-3.5-2
			c-0.8-0.7-1.2-1.6-1.2-2.8c0-1.4,0.6-2.5,1.7-3.3s2.8-1.3,4.7-1.3c1.3,0,2.5,0.2,3.7,0.5l-0.4,1.9c-1.1-0.2-2.1-0.3-3.1-0.3
			c-1.2,0-2.2,0.2-2.9,0.6c-0.7,0.4-1.1,1-1.1,1.7c0,0.5,0.2,0.9,0.7,1.3s1.2,0.8,2.4,1.3c1.8,0.7,3.1,1.4,4,2.2
			c0.8,0.7,1.2,1.7,1.2,3C346.4,167.5,345.8,168.7,344.5,169.7z"/>
		<path class="st0" d="M362,170.7l-2.2-5.5h-6.7l-2.2,5.5h-2.6l6.9-16.7h2.8l6.9,16.7H362z M356.5,156.7l-2.6,6.6h5.2L356.5,156.7z"
			/>
		<path class="st0" d="M377.4,170.7l-3.1-6c-0.5-0.9-1.2-1.4-2.1-1.4h-1.5v7.4H368v-16.7h4.6c1,0,1.9,0,2.6,0.1
			c1.2,0.1,2.1,0.6,2.7,1.3c0.7,0.8,1,1.7,1,2.8c0,1.1-0.4,2-1,2.8c-0.7,0.8-1.6,1.3-2.8,1.4c0.7,0.2,1.2,0.6,1.6,1.4l3.7,6.8H377.4z
			M375.4,156.7c-0.5-0.4-1.4-0.6-2.6-0.6h-2.1v5.3h2c1.1,0,2-0.3,2.6-0.8s1-1.2,1-2.1C376.3,157.8,376,157.2,375.4,156.7z"/>
		<path class="st0" d="M394.2,170.7l-7.4-8.3v8.3h-2.6v-16.7h2.6v7.4l7.2-7.4h3.3l-7.7,7.8l8.2,8.9H394.2z"/>
		<path class="st0" d="M400.6,170.7v-16.7h2.7v16.7H400.6z"/>
		<path class="st0" d="M415.9,170.7h-2.8l-6.4-16.7h2.8l5.1,13.9l5.2-13.9h2.6L415.9,170.7z"/>
	</g>
</svg>
