<?xml version="1.0" encoding="UTF-8" standalone="no"?>
<svg
   xmlns:dc="http://purl.org/dc/elements/1.1/"
   xmlns:cc="http://creativecommons.org/ns#"
   xmlns:rdf="http://www.w3.org/1999/02/22-rdf-syntax-ns#"
   xmlns:svg="http://www.w3.org/2000/svg"
   xmlns="http://www.w3.org/2000/svg"
   xmlns:xlink="http://www.w3.org/1999/xlink"
   xmlns:sodipodi="http://sodipodi.sourceforge.net/DTD/sodipodi-0.dtd"
   xmlns:inkscape="http://www.inkscape.org/namespaces/inkscape"
   version="1.1"
   preserveAspectRatio="xMidYMid meet"
   viewBox="9.00143247416554 9.000014253474262 504 111.85000000000002"
   width="500"
   height="107.85"
   id="svg4187"
   sodipodi:docname="frb-arkiv.svg"
   inkscape:version="0.92.2 5c3e80d, 2017-08-06">
  <metadata
     id="metadata4191">
    <rdf:RDF>
      <cc:Work
         rdf:about="">
        <dc:format>image/svg+xml</dc:format>
        <dc:type
           rdf:resource="http://purl.org/dc/dcmitype/StillImage" />
      </cc:Work>
    </rdf:RDF>
  </metadata>
  <sodipodi:namedview
     pagecolor="#ffffff"
     bordercolor="#666666"
     borderopacity="1"
     objecttolerance="10"
     gridtolerance="10"
     guidetolerance="10"
     inkscape:pageopacity="0"
     inkscape:pageshadow="2"
     inkscape:window-width="1440"
     inkscape:window-height="802"
     id="namedview4189"
     showgrid="false"
     inkscape:zoom="1"
     inkscape:cx="207.46698"
     inkscape:cy="31.142751"
     inkscape:window-x="0"
     inkscape:window-y="1"
     inkscape:window-maximized="1"
     inkscape:current-layer="svg4187" />
  <defs
     id="defs3999">
    <path
       d="M19.1 29.23L35.99 29.23L35.99 34.43L19.1 34.43L19.1 54.18L12.34 54.18L12.34 10.78L37.29 10.78L37.29 16.24L19.1 16.24L19.1 29.23Z"
       id="d2wvDGyESl" />
    <path
       d="M60.07 11.04L60.28 11.04L60.49 11.04L60.7 11.04L60.91 11.04L61.12 11.04L61.33 11.04L61.53 11.04L61.74 11.05L61.94 11.05L62.14 11.05L62.34 11.05L62.54 11.05L62.73 11.06L62.93 11.06L63.12 11.07L63.31 11.07L63.5 11.08L63.68 11.08L63.87 11.09L64.05 11.1L64.23 11.11L64.41 11.12L64.59 11.13L64.76 11.14L64.94 11.15L65.11 11.16L65.28 11.18L65.44 11.19L65.61 11.21L65.77 11.22L65.93 11.24L66.09 11.26L66.24 11.28L66.39 11.3L66.65 11.32L66.91 11.35L67.16 11.39L67.4 11.42L67.65 11.47L67.89 11.51L68.13 11.57L68.36 11.62L68.59 11.68L68.81 11.75L69.03 11.81L69.25 11.89L69.47 11.96L69.68 12.04L69.89 12.13L70.09 12.22L70.29 12.31L70.49 12.4L70.68 12.5L70.87 12.61L71.06 12.71L71.24 12.82L71.42 12.93L71.59 13.05L71.76 13.17L71.93 13.29L72.1 13.42L72.26 13.55L72.41 13.68L72.57 13.81L72.72 13.95L72.86 14.09L73 14.23L73.14 14.38L73.28 14.53L73.41 14.68L73.56 14.85L73.7 15.03L73.84 15.2L73.98 15.38L74.11 15.56L74.24 15.74L74.36 15.92L74.47 16.11L74.58 16.29L74.69 16.48L74.79 16.66L74.89 16.85L74.99 17.04L75.08 17.24L75.16 17.43L75.24 17.63L75.32 17.82L75.39 18.02L75.46 18.23L75.52 18.43L75.58 18.63L75.64 18.84L75.69 19.05L75.74 19.26L75.78 19.47L75.82 19.69L75.86 19.9L75.89 20.12L75.92 20.34L75.94 20.57L75.96 20.79L75.98 21.02L75.99 21.25L76 21.48L76.01 21.72L76.01 21.95L76.01 22.19L76 22.43L75.99 22.66L75.97 22.89L75.95 23.12L75.93 23.34L75.9 23.56L75.86 23.79L75.82 24.01L75.78 24.22L75.73 24.44L75.68 24.65L75.63 24.86L75.57 25.07L75.51 25.28L75.44 25.48L75.37 25.68L75.3 25.89L75.22 26.08L75.14 26.28L75.05 26.48L74.96 26.67L74.87 26.86L74.78 27.06L74.68 27.25L74.58 27.43L74.47 27.62L74.37 27.8L74.26 27.99L74.14 28.17L74.03 28.35L73.91 28.53L73.79 28.71L73.67 28.88L73.54 29.06L73.41 29.23L73.26 29.4L73.1 29.57L72.95 29.73L72.79 29.89L72.62 30.05L72.46 30.2L72.29 30.35L72.12 30.5L71.95 30.64L71.77 30.78L71.6 30.91L71.42 31.04L71.24 31.17L71.05 31.29L70.87 31.41L70.68 31.52L70.49 31.63L70.29 31.73L70.1 31.83L69.9 31.93L69.7 32.02L69.49 32.11L69.29 32.19L69.08 32.27L68.87 32.35L68.66 32.42L68.44 32.48L68.22 32.55L68 32.6L67.78 32.65L67.56 32.7L67.33 32.74L67.1 32.78L66.87 32.82L66.63 32.85L66.39 32.87L66.54 32.91L66.69 32.96L66.84 33.01L66.98 33.06L67.12 33.12L67.26 33.18L67.4 33.24L67.53 33.3L67.67 33.36L67.8 33.43L67.92 33.51L68.05 33.58L68.17 33.66L68.3 33.74L68.42 33.83L68.53 33.92L68.65 34.01L68.77 34.1L68.88 34.2L68.99 34.31L69.1 34.41L69.21 34.52L69.31 34.64L69.42 34.76L69.52 34.88L69.62 35L69.72 35.14L69.82 35.27L69.91 35.41L70.01 35.55L70.1 35.7L70.2 35.85L70.29 36.01L70.38 36.17L70.47 36.34L70.55 36.51L80.17 54.18L71.85 54.18L71.45 53.42L71.07 52.69L70.69 51.97L70.32 51.27L69.96 50.59L69.61 49.93L69.28 49.28L68.95 48.66L68.63 48.06L68.32 47.47L68.02 46.9L67.73 46.35L67.46 45.82L67.19 45.31L66.93 44.82L66.68 44.35L66.44 43.89L66.21 43.46L65.99 43.04L65.78 42.65L65.59 42.27L65.4 41.91L65.22 41.57L65.05 41.24L64.89 40.94L64.74 40.66L64.6 40.39L64.47 40.14L64.35 39.91L64.24 39.71L64.14 39.52L64.05 39.34L63.97 39.19L63.91 39.06L63.85 38.94L63.8 38.85L63.69 38.65L63.57 38.47L63.46 38.28L63.34 38.11L63.22 37.93L63.1 37.77L62.98 37.6L62.85 37.44L62.72 37.29L62.59 37.14L62.46 37L62.32 36.86L62.18 36.73L62.04 36.6L61.9 36.48L61.76 36.37L61.61 36.26L61.46 36.15L61.3 36.05L61.15 35.96L60.99 35.87L60.83 35.78L60.67 35.7L60.5 35.63L60.34 35.56L60.17 35.5L59.99 35.45L59.82 35.4L59.64 35.35L59.46 35.32L59.28 35.28L59.1 35.26L58.91 35.24L58.72 35.22L58.53 35.21L58.34 35.21L54.44 35.21L54.44 54.44L47.68 54.44L47.68 11.04L59.64 11.04L59.85 11.04L60.07 11.04ZM54.44 30.27L59.64 30.27L60.48 30.25L61.29 30.18L62.06 30.07L62.8 29.91L63.5 29.72L64.17 29.48L64.79 29.21L65.37 28.91L65.9 28.57L66.39 28.19L66.84 27.79L67.24 27.35L67.59 26.88L67.89 26.38L68.15 25.85L68.36 25.29L68.52 24.7L68.64 24.08L68.71 23.42L68.73 22.73L68.78 22.2L68.77 21.67L68.69 21.17L68.56 20.68L68.38 20.2L68.13 19.74L67.84 19.3L67.49 18.87L67.1 18.45L66.65 18.06L66.23 17.76L65.75 17.49L65.21 17.26L64.61 17.06L63.96 16.89L63.25 16.75L62.49 16.64L61.67 16.56L60.81 16.51L59.9 16.5L54.44 16.5L54.44 30.27Z"
       id="bamg2ivEP" />
    <path
       d="M89.26 11.04L114.47 11.04L114.47 16.5L96.02 16.5L96.02 29.23L113.43 29.23L113.43 34.43L96.02 34.43L96.02 48.72L115.77 48.72L115.77 54.44L89.26 54.44L89.26 11.04Z"
       id="b3mbXyy3z" />
    <path
       d="M139.86 11.04L140.33 11.05L140.79 11.06L141.25 11.06L141.71 11.08L142.15 11.09L142.6 11.1L143.04 11.12L143.47 11.14L143.9 11.17L144.32 11.19L144.74 11.22L145.16 11.25L145.57 11.28L145.97 11.32L146.37 11.36L146.77 11.4L147.16 11.45L147.55 11.5L147.93 11.55L148.31 11.6L148.69 11.66L149.06 11.72L149.43 11.79L149.79 11.85L150.15 11.93L150.5 12L150.85 12.08L151.28 12.19L151.71 12.31L152.13 12.44L152.54 12.58L152.96 12.73L153.36 12.89L153.77 13.06L154.17 13.24L154.56 13.43L154.95 13.63L155.33 13.84L155.71 14.06L156.09 14.28L156.45 14.52L156.82 14.77L157.17 15.03L157.53 15.3L157.87 15.58L158.21 15.87L158.54 16.17L158.87 16.48L159.19 16.8L159.51 17.13L159.81 17.48L160.12 17.83L160.41 18.2L160.7 18.57L160.98 18.96L161.25 19.36L161.54 19.73L161.82 20.12L162.09 20.51L162.34 20.91L162.59 21.31L162.83 21.71L163.05 22.12L163.26 22.54L163.47 22.96L163.66 23.39L163.84 23.82L164.01 24.25L164.18 24.7L164.33 25.14L164.47 25.59L164.6 26.05L164.72 26.51L164.83 26.97L164.93 27.44L165.02 27.91L165.1 28.39L165.18 28.87L165.24 29.35L165.29 29.84L165.33 30.34L165.36 30.83L165.39 31.34L165.4 31.84L165.41 32.35L165.4 33.1L165.37 33.83L165.32 34.56L165.26 35.27L165.17 35.97L165.07 36.67L164.95 37.35L164.8 38.02L164.64 38.67L164.46 39.32L164.26 39.96L164.04 40.58L163.79 41.2L163.53 41.8L163.25 42.39L162.95 42.97L162.62 43.54L162.28 44.1L161.91 44.64L161.53 45.18L161.12 45.7L160.69 46.22L160.24 46.72L159.77 47.21L159.28 47.69L158.77 48.16L158.23 48.62L157.67 49.07L157.09 49.5L156.85 49.69L156.6 49.87L156.36 50.05L156.11 50.22L155.86 50.4L155.61 50.56L155.35 50.73L155.1 50.89L154.84 51.05L154.58 51.2L154.32 51.35L154.05 51.49L153.79 51.63L153.52 51.77L153.25 51.91L152.98 52.04L152.71 52.17L152.44 52.29L152.16 52.41L151.88 52.52L151.6 52.64L151.32 52.74L151.04 52.85L150.75 52.95L150.46 53.05L150.17 53.14L149.88 53.23L149.59 53.32L149.29 53.4L149 53.48L148.69 53.55L148.38 53.63L148.07 53.69L147.74 53.76L147.42 53.82L147.08 53.88L146.74 53.93L146.39 53.98L146.04 54.03L145.68 54.08L145.31 54.12L144.93 54.16L144.55 54.19L144.16 54.23L143.76 54.26L143.36 54.29L142.95 54.31L142.53 54.34L142.1 54.36L141.66 54.37L141.22 54.39L140.76 54.4L140.3 54.41L139.83 54.42L139.35 54.43L138.86 54.44L138.37 54.44L137.86 54.44L126.95 54.44L126.95 11.04L138.9 11.04L139.38 11.04L139.86 11.04ZM133.96 48.98L140.2 48.98L141.09 48.97L141.96 48.94L142.81 48.88L143.64 48.8L144.44 48.7L145.23 48.58L145.99 48.43L146.73 48.25L147.45 48.05L148.15 47.83L148.82 47.57L149.48 47.3L150.11 46.99L150.72 46.66L151.31 46.3L151.88 45.91L152.42 45.49L152.95 45.04L153.45 44.56L153.97 44.1L154.46 43.62L154.92 43.11L155.35 42.59L155.75 42.05L156.12 41.48L156.46 40.9L156.77 40.3L157.06 39.68L157.31 39.05L157.54 38.39L157.74 37.72L157.92 37.04L158.06 36.34L158.18 35.62L158.27 34.89L158.34 34.14L158.38 33.38L158.39 32.61L158.38 31.92L158.35 31.23L158.29 30.56L158.22 29.89L158.12 29.24L157.99 28.6L157.85 27.96L157.68 27.34L157.49 26.74L157.27 26.14L157.03 25.56L156.77 24.99L156.48 24.44L156.17 23.9L155.83 23.37L155.47 22.86L155.08 22.37L154.67 21.89L154.23 21.43L153.98 21.15L153.73 20.89L153.47 20.63L153.21 20.38L152.95 20.15L152.68 19.93L152.4 19.72L152.12 19.51L151.84 19.32L151.55 19.13L151.26 18.96L150.97 18.79L150.67 18.63L150.36 18.48L150.05 18.33L149.74 18.19L149.42 18.05L149.1 17.92L148.77 17.8L148.44 17.68L148.09 17.57L147.73 17.46L147.36 17.37L146.98 17.28L146.58 17.21L146.17 17.13L145.75 17.07L145.32 17.01L144.88 16.96L144.43 16.91L143.97 16.88L143.5 16.84L143.01 16.82L142.52 16.79L142.02 16.78L141.51 16.77L140.99 16.76L140.46 16.76L133.96 16.76L133.96 48.98Z"
       id="a2LIefMW0v" />
    <path
       d="M175.28 11.04L200.49 11.04L200.49 16.5L182.04 16.5L182.04 29.23L199.45 29.23L199.45 34.43L182.04 34.43L182.04 48.72L201.79 48.72L201.79 54.44L175.28 54.44L175.28 11.04Z"
       id="fBp9c5mA7" />
    <path
       d="M225.61 11.04L225.82 11.04L226.03 11.04L226.25 11.04L226.45 11.04L226.66 11.04L226.87 11.04L227.07 11.04L227.28 11.05L227.48 11.05L227.68 11.05L227.88 11.05L228.08 11.05L228.27 11.06L228.47 11.06L228.66 11.07L228.85 11.07L229.04 11.08L229.22 11.08L229.41 11.09L229.59 11.1L229.77 11.11L229.95 11.12L230.13 11.13L230.3 11.14L230.48 11.15L230.65 11.16L230.82 11.18L230.98 11.19L231.15 11.21L231.31 11.22L231.47 11.24L231.63 11.26L231.78 11.28L231.93 11.3L232.19 11.32L232.45 11.35L232.7 11.39L232.95 11.42L233.19 11.47L233.43 11.51L233.67 11.57L233.9 11.62L234.13 11.68L234.35 11.75L234.58 11.81L234.79 11.89L235.01 11.96L235.22 12.04L235.43 12.13L235.63 12.22L235.83 12.31L236.03 12.4L236.22 12.5L236.41 12.61L236.6 12.71L236.78 12.82L236.96 12.93L237.13 13.05L237.3 13.17L237.47 13.29L237.64 13.42L237.8 13.55L237.95 13.68L238.11 13.81L238.26 13.95L238.4 14.09L238.55 14.23L238.68 14.38L238.82 14.53L238.95 14.68L239.1 14.85L239.25 15.03L239.38 15.2L239.52 15.38L239.65 15.56L239.78 15.74L239.9 15.92L240.01 16.11L240.13 16.29L240.23 16.48L240.34 16.66L240.43 16.85L240.53 17.04L240.62 17.24L240.7 17.43L240.78 17.63L240.86 17.82L240.93 18.02L241 18.23L241.07 18.43L241.13 18.63L241.18 18.84L241.23 19.05L241.28 19.26L241.32 19.47L241.36 19.69L241.4 19.9L241.43 20.12L241.46 20.34L241.48 20.57L241.5 20.79L241.52 21.02L241.53 21.25L241.54 21.48L241.55 21.72L241.55 21.95L241.55 22.19L241.54 22.43L241.53 22.66L241.51 22.89L241.49 23.12L241.47 23.34L241.44 23.56L241.4 23.79L241.36 24.01L241.32 24.22L241.27 24.44L241.22 24.65L241.17 24.86L241.11 25.07L241.05 25.28L240.98 25.48L240.91 25.68L240.84 25.89L240.76 26.08L240.68 26.28L240.59 26.48L240.5 26.67L240.41 26.86L240.32 27.06L240.22 27.25L240.12 27.43L240.02 27.62L239.91 27.8L239.8 27.99L239.69 28.17L239.57 28.35L239.45 28.53L239.33 28.71L239.21 28.88L239.08 29.06L238.95 29.23L238.8 29.4L238.64 29.57L238.49 29.73L238.33 29.89L238.16 30.05L238 30.2L237.83 30.35L237.66 30.5L237.49 30.64L237.31 30.78L237.13 30.91L236.95 31.04L236.77 31.17L236.58 31.29L236.39 31.41L236.2 31.52L236 31.63L235.8 31.73L235.6 31.83L235.39 31.93L235.19 32.02L234.97 32.11L234.76 32.19L234.54 32.27L234.32 32.35L234.1 32.42L233.87 32.48L233.64 32.55L233.41 32.6L233.17 32.65L232.93 32.7L232.69 32.74L232.44 32.78L232.19 32.82L231.93 32.85L231.68 32.87L231.83 32.91L231.97 32.96L232.12 33.01L232.26 33.06L232.4 33.12L232.54 33.18L232.68 33.24L232.81 33.3L232.95 33.36L233.08 33.43L233.2 33.51L233.33 33.58L233.45 33.66L233.58 33.74L233.7 33.83L233.82 33.92L233.93 34.01L234.05 34.1L234.16 34.2L234.27 34.31L234.38 34.41L234.49 34.52L234.59 34.64L234.7 34.76L234.8 34.88L234.9 35L235 35.14L235.1 35.27L235.2 35.41L235.29 35.55L235.38 35.7L235.48 35.85L235.57 36.01L235.66 36.17L235.75 36.34L235.83 36.51L245.45 54.18L237.39 54.18L236.99 53.42L236.61 52.69L236.23 51.97L235.86 51.27L235.5 50.59L235.15 49.93L234.82 49.28L234.49 48.66L234.17 48.06L233.86 47.47L233.56 46.9L233.27 46.35L233 45.82L232.73 45.31L232.47 44.82L232.22 44.35L231.98 43.89L231.75 43.46L231.53 43.04L231.33 42.65L231.13 42.27L230.94 41.91L230.76 41.57L230.59 41.24L230.43 40.94L230.28 40.66L230.14 40.39L230.01 40.14L229.89 39.91L229.78 39.71L229.68 39.52L229.59 39.34L229.52 39.19L229.45 39.06L229.39 38.94L229.34 38.85L229.23 38.65L229.11 38.47L229 38.28L228.88 38.11L228.76 37.93L228.64 37.77L228.52 37.6L228.39 37.44L228.26 37.29L228.13 37.14L228 37L227.86 36.86L227.73 36.73L227.58 36.6L227.44 36.48L227.3 36.37L227.15 36.26L227 36.15L226.84 36.05L226.69 35.96L226.53 35.87L226.37 35.78L226.21 35.7L226.04 35.63L225.88 35.56L225.71 35.5L225.54 35.45L225.36 35.4L225.18 35.35L225 35.32L224.82 35.28L224.64 35.26L224.45 35.24L224.26 35.22L224.07 35.21L223.88 35.21L219.98 35.21L219.98 54.44L213.22 54.44L213.22 11.04L225.18 11.04L225.39 11.04L225.61 11.04ZM219.98 30.27L225.18 30.27L226.02 30.25L226.83 30.18L227.6 30.07L228.34 29.91L229.04 29.72L229.71 29.48L230.33 29.21L230.91 28.91L231.44 28.57L231.93 28.19L232.39 27.79L232.8 27.35L233.18 26.88L233.52 26.38L233.82 25.85L234.07 25.29L234.27 24.7L234.41 24.08L234.5 23.42L234.53 22.73L234.44 22.2L234.32 21.67L234.16 21.17L233.97 20.68L233.75 20.2L233.5 19.74L233.22 19.3L232.91 18.87L232.57 18.45L232.19 18.06L231.77 17.76L231.29 17.49L230.75 17.26L230.15 17.06L229.5 16.89L228.79 16.75L228.03 16.64L227.21 16.56L226.35 16.51L225.44 16.5L219.98 16.5L219.98 30.27Z"
       id="aDnkIzC64" />
    <path
       d="M254.54 11.04L261.56 11.04L261.56 54.44L254.54 54.44L254.54 11.04Z"
       id="m17Ham4quf" />
    <path
       d="M282.09 32.87L282.09 54.44L275.07 54.44L275.07 11.04L281.83 11.04L281.83 30.27L300.54 11.04L309.12 11.04L289.11 31.31L310.42 54.44L301.32 54.44L282.09 32.87Z"
       id="aDRd9EIU4" />
    <path
       d="M326.01 55.48C322.63 55.48 318.99 54.96 315.09 53.92C315.2 53.37 316.03 49.01 316.13 48.46C319.77 49.24 322.89 49.5 325.49 49.5C329.13 49.5 331.73 48.72 334.07 47.42C336.14 46.12 337.18 44.3 337.18 42.23C337.18 40.67 336.4 39.37 335.37 38.33C334.07 37.29 331.73 35.99 328.09 34.43C323.93 32.61 320.81 31.05 318.99 29.23C316.91 27.41 315.87 25.07 315.87 21.95C315.87 18.32 317.43 15.46 320.29 13.38C323.15 11.3 327.57 10 332.51 10C335.89 10 339 10.52 342.12 11.3C342.02 11.79 341.19 15.74 341.08 16.24C338.22 15.72 335.63 15.46 333.03 15.46C329.91 15.46 327.31 15.98 325.49 17.02C323.67 18.06 322.63 19.62 322.63 21.43C322.63 22.73 323.15 23.77 324.45 24.81C325.75 25.85 327.57 26.89 330.69 28.19C335.37 30.01 338.74 31.83 341.08 33.91C343.16 35.73 344.2 38.33 344.2 41.71C344.2 46.12 342.64 49.24 339.26 51.84C335.89 54.18 331.47 55.48 326.01 55.48Z"
       id="f44P3Jwks" />
    <path
       d="M368.58 11.05L369.07 11.07L369.54 11.09L370.02 11.11L370.48 11.14L370.94 11.18L371.39 11.22L371.83 11.27L372.27 11.33L372.69 11.38L373.11 11.45L373.52 11.52L373.92 11.59L374.32 11.67L374.7 11.75L375.07 11.84L375.44 11.94L375.79 12.04L376.14 12.14L376.47 12.25L376.79 12.36L377.11 12.47L377.41 12.59L377.7 12.72L377.98 12.85L378.25 12.98L378.5 13.12L378.83 13.32L379.15 13.52L379.45 13.73L379.75 13.95L380.03 14.17L380.29 14.4L380.55 14.64L380.8 14.88L381.03 15.13L381.25 15.39L381.46 15.66L381.65 15.93L381.84 16.21L382.01 16.5L382.17 16.79L382.32 17.1L382.46 17.41L382.59 17.73L382.7 18.06L382.8 18.4L382.89 18.75L382.97 19.1L383.03 19.47L383.09 19.84L383.13 20.23L383.16 20.62L383.18 21.02L383.18 21.43L383.18 21.74L383.17 22.04L383.15 22.34L383.12 22.63L383.08 22.92L383.04 23.2L382.99 23.48L382.93 23.76L382.87 24.03L382.8 24.3L382.72 24.56L382.63 24.82L382.54 25.08L382.44 25.33L382.33 25.58L382.21 25.83L382.09 26.07L381.96 26.3L381.83 26.54L381.69 26.76L381.54 26.99L381.38 27.21L381.22 27.43L381.05 27.64L380.88 27.85L380.7 28.05L380.52 28.25L380.32 28.45L380.21 28.56L380.09 28.67L379.96 28.78L379.83 28.9L379.7 29.01L379.55 29.11L379.41 29.22L379.25 29.33L379.1 29.44L378.94 29.54L378.77 29.65L378.6 29.75L378.42 29.85L378.24 29.95L378.06 30.04L377.87 30.14L377.68 30.23L377.49 30.32L377.29 30.41L377.09 30.49L376.89 30.57L376.68 30.65L376.47 30.73L376.26 30.8L376.04 30.87L375.83 30.93L375.61 30.99L375.39 31.05L375.72 31.11L376.04 31.17L376.36 31.24L376.68 31.31L376.98 31.38L377.29 31.46L377.58 31.54L377.87 31.63L378.16 31.72L378.44 31.82L378.72 31.92L378.99 32.03L379.25 32.14L379.51 32.25L379.77 32.37L380.02 32.5L380.26 32.63L380.5 32.77L380.74 32.91L380.97 33.05L381.2 33.21L381.42 33.36L381.64 33.53L381.85 33.7L382.06 33.87L382.26 34.05L382.47 34.24L382.66 34.43L382.85 34.63L383.04 34.83L383.21 35.03L383.38 35.24L383.54 35.45L383.69 35.67L383.84 35.89L383.97 36.12L384.1 36.34L384.23 36.58L384.34 36.81L384.45 37.05L384.55 37.3L384.64 37.55L384.73 37.8L384.81 38.06L384.88 38.32L384.95 38.58L385.01 38.85L385.06 39.12L385.11 39.4L385.15 39.68L385.19 39.96L385.21 40.25L385.23 40.54L385.25 40.84L385.26 41.14L385.26 41.45L385.28 41.89L385.29 42.32L385.28 42.75L385.26 43.16L385.23 43.58L385.18 43.98L385.12 44.37L385.04 44.76L384.96 45.14L384.86 45.51L384.74 45.88L384.61 46.24L384.47 46.59L384.32 46.94L384.15 47.27L383.97 47.6L383.78 47.93L383.58 48.24L383.36 48.56L383.13 48.86L382.89 49.16L382.63 49.45L382.36 49.73L382.08 50.01L381.79 50.28L381.49 50.55L381.17 50.81L380.84 51.06L380.51 51.31L380.16 51.54L379.81 51.77L379.46 51.98L379.1 52.19L378.73 52.39L378.35 52.58L377.97 52.75L377.58 52.92L377.18 53.08L376.78 53.23L376.36 53.37L375.94 53.5L375.52 53.63L375.08 53.74L374.64 53.85L374.18 53.94L373.72 54.03L373.26 54.11L372.78 54.18L372.29 54.24L371.8 54.29L371.29 54.34L370.78 54.38L370.26 54.4L369.72 54.42L369.18 54.44L368.63 54.44L355.38 54.44L355.38 11.04L367.59 11.04L368.09 11.04L368.58 11.05ZM361.87 49.24L367.07 49.24L367.91 49.23L368.72 49.19L369.5 49.13L370.24 49.05L370.95 48.94L371.62 48.82L372.26 48.68L372.85 48.52L373.4 48.34L373.9 48.15L374.35 47.94L374.96 47.56L375.52 47.13L376.02 46.66L376.47 46.14L376.87 45.58L377.2 44.97L377.48 44.33L377.7 43.66L377.86 42.95L377.95 42.21L377.98 41.45L377.95 40.56L377.85 39.73L377.68 38.97L377.44 38.26L377.13 37.62L376.74 37.03L376.27 36.51L375.72 36.04L375.09 35.62L374.37 35.26L373.57 34.95L373.2 34.81L372.8 34.69L372.37 34.58L371.91 34.48L371.4 34.4L370.85 34.33L370.25 34.27L369.61 34.23L368.91 34.19L368.15 34.18L367.33 34.17L361.87 34.17L361.87 49.24ZM361.87 29.23L366.55 29.23L367.47 29.22L368.34 29.19L369.15 29.13L369.9 29.05L370.59 28.95L371.23 28.81L371.81 28.64L372.33 28.43L372.79 28.19L373.52 27.73L374.16 27.22L374.7 26.65L375.16 26.04L375.53 25.39L375.81 24.71L376.01 23.99L376.13 23.24L376.17 22.47L376.14 21.17L375.88 20.04L375.39 19.08L374.66 18.27L373.71 17.62L372.53 17.12L371.11 16.77L369.47 16.57L367.59 16.5L361.87 16.5L361.87 29.23Z"
       id="cQTDh9N4j" />
    <path
       d="M396.7 11.04L421.9 11.04L421.9 16.5L403.45 16.5L403.45 29.23L420.86 29.23L420.86 34.43L403.45 34.43L403.45 48.72L423.2 48.72L423.2 54.44L396.7 54.44L396.7 11.04Z"
       id="i4pf2HZsv" />
    <path
       d="M447.02 11.04L447.24 11.04L447.45 11.04L447.66 11.04L447.87 11.04L448.08 11.04L448.28 11.04L448.49 11.04L448.69 11.05L448.89 11.05L449.09 11.05L449.29 11.05L449.49 11.05L449.69 11.06L449.88 11.06L450.07 11.07L450.26 11.07L450.45 11.08L450.64 11.08L450.82 11.09L451.01 11.1L451.19 11.11L451.37 11.12L451.54 11.13L451.72 11.14L451.89 11.15L452.06 11.16L452.23 11.18L452.4 11.19L452.56 11.21L452.72 11.22L452.88 11.24L453.04 11.26L453.2 11.28L453.35 11.3L453.61 11.32L453.86 11.35L454.11 11.39L454.36 11.42L454.6 11.47L454.84 11.51L455.08 11.57L455.31 11.62L455.54 11.68L455.77 11.75L455.99 11.81L456.21 11.89L456.42 11.96L456.63 12.04L456.84 12.13L457.04 12.22L457.24 12.31L457.44 12.4L457.63 12.5L457.82 12.61L458.01 12.71L458.19 12.82L458.37 12.93L458.55 13.05L458.72 13.17L458.89 13.29L459.05 13.42L459.21 13.55L459.37 13.68L459.52 13.81L459.67 13.95L459.82 14.09L459.96 14.23L460.1 14.38L460.23 14.53L460.37 14.68L460.51 14.85L460.66 15.03L460.8 15.2L460.93 15.38L461.06 15.56L461.19 15.74L461.31 15.92L461.43 16.11L461.54 16.29L461.65 16.48L461.75 16.66L461.85 16.85L461.94 17.04L462.03 17.24L462.12 17.43L462.2 17.63L462.27 17.82L462.35 18.02L462.42 18.23L462.48 18.43L462.54 18.63L462.6 18.84L462.65 19.05L462.69 19.26L462.74 19.47L462.78 19.69L462.81 19.9L462.85 20.12L462.87 20.34L462.9 20.57L462.92 20.79L462.93 21.02L462.95 21.25L462.96 21.48L462.96 21.72L462.96 21.95L462.96 22.19L462.95 22.43L462.94 22.66L462.93 22.89L462.91 23.12L462.88 23.34L462.85 23.56L462.82 23.79L462.78 24.01L462.73 24.22L462.69 24.44L462.64 24.65L462.58 24.86L462.52 25.07L462.46 25.28L462.39 25.48L462.32 25.68L462.25 25.89L462.17 26.08L462.09 26.28L462.01 26.48L461.92 26.67L461.83 26.86L461.73 27.06L461.63 27.25L461.53 27.43L461.43 27.62L461.32 27.8L461.21 27.99L461.1 28.17L460.98 28.35L460.87 28.53L460.74 28.71L460.62 28.88L460.49 29.06L460.37 29.23L460.21 29.4L460.06 29.57L459.9 29.73L459.74 29.89L459.58 30.05L459.41 30.2L459.24 30.35L459.07 30.5L458.9 30.64L458.72 30.78L458.54 30.91L458.36 31.04L458.18 31.17L457.99 31.29L457.8 31.41L457.61 31.52L457.41 31.63L457.21 31.73L457.01 31.83L456.81 31.93L456.6 32.02L456.39 32.11L456.17 32.19L455.96 32.27L455.74 32.35L455.51 32.42L455.29 32.48L455.06 32.55L454.82 32.6L454.58 32.65L454.34 32.7L454.1 32.74L453.85 32.78L453.6 32.82L453.35 32.85L453.09 32.87L453.24 32.91L453.39 32.96L453.53 33.01L453.68 33.06L453.82 33.12L453.96 33.18L454.09 33.24L454.23 33.3L454.36 33.36L454.49 33.43L454.62 33.51L454.74 33.58L454.87 33.66L454.99 33.74L455.11 33.83L455.23 33.92L455.35 34.01L455.46 34.1L455.57 34.2L455.68 34.31L455.79 34.41L455.9 34.52L456.01 34.64L456.11 34.76L456.21 34.88L456.31 35L456.41 35.14L456.51 35.27L456.61 35.41L456.7 35.55L456.8 35.7L456.89 35.85L456.98 36.01L457.07 36.17L457.16 36.34L457.25 36.51L466.86 54.18L458.81 54.18L458.41 53.42L458.02 52.69L457.64 51.97L457.27 51.27L456.92 50.59L456.57 49.93L456.23 49.28L455.9 48.66L455.58 48.06L455.28 47.47L454.98 46.9L454.69 46.35L454.41 45.82L454.14 45.31L453.88 44.82L453.63 44.35L453.4 43.89L453.17 43.46L452.95 43.04L452.74 42.65L452.54 42.27L452.35 41.91L452.17 41.57L452 41.24L451.84 40.94L451.69 40.66L451.56 40.39L451.43 40.14L451.31 39.91L451.2 39.71L451.1 39.52L451.01 39.34L450.93 39.19L450.86 39.06L450.8 38.94L450.75 38.85L450.64 38.65L450.53 38.47L450.41 38.28L450.3 38.11L450.18 37.93L450.06 37.77L449.93 37.6L449.81 37.44L449.68 37.29L449.55 37.14L449.41 37L449.28 36.86L449.14 36.73L449 36.6L448.85 36.48L448.71 36.37L448.56 36.26L448.41 36.15L448.26 36.05L448.1 35.96L447.95 35.87L447.79 35.78L447.62 35.7L447.46 35.63L447.29 35.56L447.12 35.5L446.95 35.45L446.77 35.4L446.6 35.35L446.42 35.32L446.24 35.28L446.05 35.26L445.87 35.24L445.68 35.22L445.49 35.21L445.29 35.21L441.39 35.21L441.39 54.44L434.64 54.44L434.64 11.04L446.59 11.04L446.81 11.04L447.02 11.04ZM441.39 30.27L446.59 30.27L447.43 30.25L448.24 30.18L449.02 30.07L449.76 29.91L450.46 29.72L451.12 29.48L451.74 29.21L452.32 28.91L452.86 28.57L453.35 28.19L453.8 27.79L454.22 27.35L454.6 26.88L454.94 26.38L455.23 25.85L455.48 25.29L455.68 24.7L455.83 24.08L455.92 23.42L455.95 22.73L455.92 22.2L455.85 21.67L455.74 21.17L455.57 20.68L455.36 20.2L455.11 19.74L454.8 19.3L454.45 18.87L454.05 18.45L453.61 18.06L453.19 17.76L452.71 17.49L452.17 17.26L451.57 17.06L450.91 16.89L450.2 16.75L449.44 16.64L448.63 16.56L447.76 16.51L446.85 16.5L441.39 16.5L441.39 30.27Z"
       id="d6L5WQGgex" />
    <path
       d="M494.93 55.74C488.17 55.74 482.71 53.66 478.3 49.5C473.88 45.34 471.8 40.15 471.8 33.65C471.8 26.89 474.14 21.43 478.82 17.28C483.49 12.86 489.47 10.78 496.75 10.78C499.35 10.78 501.17 10.78 502.98 11.3C504.8 11.82 506.88 12.34 509.48 13.38C509.3 13.87 507.84 17.82 507.66 18.32C503.76 17.02 500.39 16.5 497.27 16.5C491.81 16.5 487.39 18.06 484.01 21.17C480.64 24.29 479.08 28.45 479.08 33.65C479.08 38.59 480.64 42.74 483.75 45.86C486.87 48.98 491.03 50.54 495.97 50.54C498.05 50.54 500.65 50.28 503.24 49.24C503.24 48.24 503.24 43.21 503.24 34.17L510 34.17C510 45.24 510 51.39 510 52.62C506.88 53.66 504.28 54.44 502.21 54.96C500.39 55.48 498.05 55.74 494.93 55.74Z"
       id="aKWir11Pf" />
    <path
       d="M20.92 117.85C17.54 117.85 13.9 117.33 10 116.29C10.11 115.74 10.94 111.38 11.04 110.83C14.68 111.61 17.8 111.87 20.4 111.87C24.03 111.87 26.63 111.09 28.97 109.79C31.05 108.49 32.09 106.68 32.09 104.6C32.09 103.04 31.31 101.74 30.27 100.7C28.97 99.66 26.63 98.36 23 96.8C18.84 94.98 15.72 93.42 13.9 91.6C11.82 89.78 10.78 87.44 10.78 84.33C10.78 80.69 12.34 77.83 15.2 75.75C18.32 73.67 22.22 72.37 27.41 72.37C30.53 72.37 33.91 72.89 37.03 73.67C36.92 74.16 36.09 78.11 35.99 78.61C33.13 78.09 30.53 77.83 27.93 77.83C24.81 77.83 22.22 78.35 20.4 79.39C18.58 80.43 17.54 81.99 17.54 83.81C17.54 85.11 18.06 86.14 19.36 87.18C20.4 88.22 22.48 89.26 25.59 90.56C30.27 92.38 33.65 94.2 35.99 96.28C38.07 98.1 39.11 100.7 39.11 104.08C39.11 108.49 37.55 111.61 34.17 114.21C30.79 116.55 26.37 117.85 20.92 117.85Z"
       id="i9589Dsrw" />
    <path
       d="M64.58 116.81L57.82 116.81L57.82 78.87L43.79 78.87L43.79 73.41L78.35 73.41L78.35 78.87L64.58 78.87L64.58 116.81Z"
       id="a2s5d51p6v" />
    <path
       d="M111.87 116.81L106.16 102.52L88.74 102.52L83.03 116.81L76.27 116.81L94.2 73.41L101.48 73.41L119.41 116.81L111.87 116.81ZM104.08 97.58L97.32 80.43L90.56 97.58L104.08 97.58Z"
       id="a6UpWbULv" />
    <path
       d="M139.34 73.41L139.81 73.42L140.27 73.43L140.73 73.44L141.19 73.45L141.63 73.46L142.08 73.48L142.52 73.49L142.95 73.51L143.38 73.54L143.8 73.56L144.22 73.59L144.64 73.62L145.05 73.66L145.45 73.69L145.85 73.73L146.25 73.77L146.64 73.82L147.03 73.87L147.41 73.92L147.79 73.97L148.17 74.03L148.54 74.09L148.91 74.16L149.27 74.22L149.63 74.3L149.98 74.37L150.33 74.45L150.76 74.56L151.19 74.68L151.61 74.81L152.02 74.96L152.44 75.11L152.84 75.26L153.25 75.43L153.65 75.61L154.04 75.8L154.43 76L154.81 76.21L155.19 76.43L155.57 76.65L155.93 76.89L156.3 77.14L156.65 77.4L157.01 77.67L157.35 77.95L157.69 78.24L158.02 78.54L158.35 78.85L158.67 79.17L158.99 79.51L159.29 79.85L159.6 80.2L159.89 80.57L160.18 80.94L160.46 81.33L160.73 81.73L161.02 82.11L161.3 82.49L161.57 82.88L161.82 83.28L162.07 83.68L162.31 84.08L162.53 84.49L162.74 84.91L162.95 85.33L163.14 85.76L163.32 86.19L163.5 86.63L163.66 87.07L163.81 87.51L163.95 87.96L164.08 88.42L164.2 88.88L164.31 89.34L164.41 89.81L164.5 90.28L164.58 90.76L164.66 91.24L164.72 91.72L164.77 92.21L164.81 92.71L164.85 93.21L164.87 93.71L164.88 94.21L164.89 94.72L164.88 95.47L164.85 96.2L164.8 96.93L164.72 97.64L164.63 98.35L164.52 99.04L164.39 99.72L164.24 100.39L164.07 101.04L163.88 101.69L163.67 102.33L163.44 102.95L163.19 103.57L162.92 104.17L162.63 104.76L162.32 105.34L161.99 105.91L161.65 106.47L161.28 107.02L160.89 107.55L160.49 108.08L160.07 108.59L159.62 109.09L159.16 109.58L158.68 110.06L158.18 110.53L157.66 110.99L157.13 111.44L156.57 111.87L156.33 112.06L156.08 112.24L155.84 112.42L155.59 112.6L155.34 112.77L155.09 112.94L154.83 113.1L154.58 113.26L154.32 113.42L154.06 113.57L153.8 113.72L153.53 113.86L153.27 114.01L153 114.14L152.73 114.28L152.46 114.41L152.19 114.54L151.92 114.66L151.64 114.78L151.36 114.89L151.08 115.01L150.8 115.12L150.52 115.22L150.23 115.32L149.94 115.42L149.65 115.51L149.36 115.6L149.07 115.69L148.77 115.77L148.48 115.85L148.17 115.92L147.86 116L147.55 116.06L147.22 116.13L146.9 116.19L146.56 116.25L146.22 116.3L145.87 116.35L145.52 116.4L145.16 116.45L144.79 116.49L144.41 116.53L144.03 116.57L143.64 116.6L143.24 116.63L142.84 116.66L142.43 116.68L142.01 116.71L141.58 116.73L141.14 116.75L140.7 116.76L140.24 116.77L139.78 116.79L139.31 116.79L138.83 116.8L138.34 116.81L137.85 116.81L137.34 116.81L126.43 116.81L126.43 73.41L138.38 73.41L138.86 73.41L139.34 73.41ZM133.44 111.35L139.68 111.35L140.57 111.34L141.44 111.31L142.29 111.25L143.12 111.18L143.92 111.07L144.71 110.95L145.47 110.8L146.21 110.62L146.93 110.42L147.63 110.2L148.3 109.95L148.96 109.67L149.59 109.36L150.2 109.03L150.79 108.67L151.36 108.28L151.9 107.86L152.43 107.41L152.93 106.94L153.45 106.47L153.94 105.99L154.4 105.49L154.83 104.96L155.23 104.42L155.6 103.85L155.94 103.27L156.25 102.67L156.54 102.05L156.79 101.42L157.02 100.76L157.22 100.09L157.4 99.41L157.54 98.71L157.66 97.99L157.75 97.26L157.82 96.51L157.86 95.75L157.87 94.98L157.82 94.29L157.75 93.6L157.67 92.93L157.57 92.26L157.44 91.61L157.31 90.97L157.15 90.34L156.97 89.72L156.77 89.11L156.56 88.51L156.32 87.93L156.07 87.36L155.79 86.81L155.5 86.27L155.18 85.74L154.85 85.24L154.49 84.74L154.11 84.27L153.71 83.81L153.46 83.52L153.21 83.26L152.95 83L152.69 82.76L152.43 82.52L152.16 82.3L151.88 82.09L151.6 81.88L151.32 81.69L151.03 81.51L150.74 81.33L150.45 81.16L150.15 81L149.84 80.85L149.53 80.7L149.22 80.56L148.9 80.42L148.58 80.29L148.26 80.17L147.92 80.05L147.57 79.94L147.21 79.84L146.84 79.74L146.46 79.66L146.06 79.58L145.65 79.5L145.23 79.44L144.8 79.38L144.36 79.33L143.91 79.29L143.45 79.25L142.98 79.21L142.49 79.19L142 79.16L141.5 79.15L140.99 79.14L140.47 79.13L139.94 79.13L133.44 79.13L133.44 111.35Z"
       id="n5v3lhMn7X" />
    <path
       d="M182.56 117.85C179.18 117.85 175.54 117.33 171.64 116.29C171.75 115.74 172.58 111.38 172.68 110.83C176.32 111.61 179.44 111.87 182.04 111.87C185.68 111.87 188.28 111.09 190.61 109.79C192.69 108.49 193.73 106.68 193.73 104.6C193.73 103.04 192.95 101.74 191.91 100.7C190.61 99.66 188.28 98.36 184.64 96.8C180.48 94.98 177.36 93.42 175.54 91.6C173.46 89.78 172.42 87.44 172.42 84.33C172.42 80.69 173.98 77.83 176.84 75.75C179.7 73.67 184.12 72.37 189.06 72.37C192.43 72.37 195.55 72.89 198.67 73.67C198.57 74.16 197.74 78.11 197.63 78.61C194.77 78.09 192.17 77.83 189.58 77.83C186.46 77.83 183.86 78.35 182.04 79.39C180.22 80.43 179.18 81.99 179.18 83.81C179.18 85.11 179.7 86.14 181 87.18C182.3 88.22 184.12 89.26 187.24 90.56C191.91 92.38 195.29 94.2 197.63 96.28C199.71 98.1 200.75 100.7 200.75 104.08C200.75 108.49 199.19 111.61 195.81 114.21C192.43 116.55 188.02 117.85 182.56 117.85Z"
       id="aexkhmVNU" />
    <path
       d="M241.29 116.81L235.57 102.52L218.16 102.52L212.44 116.81L205.69 116.81L223.62 73.41L230.9 73.41L248.83 116.81L241.29 116.81ZM233.75 97.58L227 80.43L220.24 97.58L233.75 97.58Z"
       id="beyyWY4QZ" />
    <path
       d="M269.27 73.41L269.48 73.41L269.69 73.41L269.9 73.41L270.11 73.41L270.32 73.41L270.53 73.41L270.73 73.41L270.94 73.42L271.14 73.42L271.34 73.42L271.54 73.42L271.74 73.43L271.93 73.43L272.13 73.43L272.32 73.44L272.51 73.44L272.7 73.45L272.88 73.46L273.07 73.46L273.25 73.47L273.43 73.48L273.61 73.49L273.79 73.5L273.96 73.51L274.14 73.52L274.31 73.53L274.48 73.55L274.64 73.56L274.81 73.58L274.97 73.59L275.13 73.61L275.29 73.63L275.44 73.65L275.59 73.67L275.85 73.69L276.11 73.72L276.36 73.76L276.6 73.79L276.85 73.84L277.09 73.88L277.32 73.94L277.56 73.99L277.79 74.05L278.01 74.12L278.23 74.19L278.45 74.26L278.67 74.33L278.88 74.41L279.09 74.5L279.29 74.59L279.49 74.68L279.69 74.77L279.88 74.87L280.07 74.98L280.26 75.08L280.44 75.19L280.62 75.31L280.79 75.42L280.96 75.54L281.13 75.66L281.29 75.79L281.46 75.92L281.61 76.05L281.77 76.19L281.92 76.32L282.06 76.46L282.2 76.61L282.34 76.75L282.48 76.9L282.61 77.05L282.76 77.22L282.9 77.4L283.04 77.57L283.18 77.75L283.31 77.93L283.43 78.11L283.56 78.29L283.67 78.48L283.78 78.66L283.89 78.85L283.99 79.03L284.09 79.22L284.19 79.42L284.28 79.61L284.36 79.8L284.44 80L284.52 80.2L284.59 80.39L284.66 80.6L284.72 80.8L284.78 81L284.84 81.21L284.89 81.42L284.94 81.63L284.98 81.84L285.02 82.06L285.06 82.27L285.09 82.49L285.12 82.72L285.14 82.94L285.16 83.16L285.18 83.39L285.19 83.62L285.2 83.85L285.21 84.09L285.21 84.33L285.21 84.56L285.2 84.8L285.19 85.03L285.17 85.26L285.15 85.49L285.13 85.71L285.1 85.94L285.06 86.16L285.02 86.38L284.98 86.59L284.93 86.81L284.88 87.02L284.83 87.23L284.77 87.44L284.71 87.65L284.64 87.85L284.57 88.06L284.49 88.26L284.42 88.46L284.34 88.65L284.25 88.85L284.16 89.04L284.07 89.24L283.98 89.43L283.88 89.62L283.78 89.8L283.67 89.99L283.57 90.17L283.46 90.36L283.34 90.54L283.23 90.72L283.11 90.9L282.99 91.08L282.87 91.25L282.74 91.43L282.61 91.6L282.46 91.77L282.3 91.94L282.14 92.11L281.98 92.27L281.82 92.42L281.66 92.58L281.49 92.72L281.32 92.87L281.14 93.01L280.97 93.15L280.79 93.28L280.61 93.41L280.42 93.54L280.24 93.66L280.05 93.78L279.85 93.89L279.66 94L279.46 94.1L279.26 94.2L279.05 94.3L278.84 94.39L278.63 94.48L278.42 94.56L278.2 94.64L277.98 94.72L277.76 94.79L277.53 94.85L277.3 94.92L277.07 94.97L276.83 95.03L276.59 95.07L276.35 95.12L276.1 95.15L275.85 95.19L275.59 95.22L275.33 95.24L275.48 95.29L275.63 95.33L275.78 95.38L275.92 95.43L276.06 95.49L276.2 95.55L276.34 95.61L276.47 95.67L276.61 95.74L276.74 95.81L276.86 95.88L276.99 95.95L277.11 96.03L277.24 96.11L277.36 96.2L277.47 96.29L277.59 96.38L277.71 96.47L277.82 96.57L277.93 96.68L278.04 96.78L278.15 96.89L278.25 97.01L278.36 97.13L278.46 97.25L278.56 97.38L278.66 97.51L278.76 97.64L278.85 97.78L278.95 97.92L279.04 98.07L279.14 98.22L279.23 98.38L279.32 98.54L279.4 98.71L279.49 98.88L289.11 116.55L281.31 116.55L280.91 115.79L280.53 115.06L280.15 114.34L279.78 113.64L279.42 112.96L279.07 112.3L278.74 111.66L278.41 111.03L278.09 110.43L277.78 109.84L277.48 109.27L277.19 108.73L276.92 108.2L276.65 107.69L276.39 107.19L276.14 106.72L275.9 106.27L275.67 105.83L275.45 105.41L275.24 105.02L275.05 104.64L274.86 104.28L274.68 103.94L274.51 103.61L274.35 103.31L274.2 103.03L274.06 102.76L273.93 102.51L273.81 102.29L273.7 102.08L273.6 101.89L273.51 101.72L273.43 101.56L273.36 101.43L273.3 101.31L273.26 101.22L273.15 101.03L273.03 100.84L272.92 100.65L272.8 100.48L272.68 100.3L272.56 100.14L272.44 99.97L272.31 99.82L272.18 99.66L272.05 99.51L271.92 99.37L271.78 99.23L271.64 99.1L271.5 98.98L271.36 98.85L271.21 98.74L271.07 98.63L270.92 98.52L270.76 98.42L270.61 98.33L270.45 98.24L270.29 98.15L270.13 98.08L269.96 98L269.8 97.94L269.63 97.87L269.45 97.82L269.28 97.77L269.1 97.72L268.92 97.69L268.74 97.65L268.56 97.63L268.37 97.61L268.18 97.59L267.99 97.58L267.8 97.58L263.9 97.58L263.9 116.81L256.88 116.81L256.88 73.41L268.84 73.41L269.05 73.41L269.27 73.41ZM263.9 92.64L269.1 92.64L269.94 92.62L270.75 92.55L271.52 92.44L272.26 92.28L272.96 92.09L273.63 91.86L274.25 91.58L274.83 91.28L275.36 90.94L275.85 90.56L276.31 90.16L276.72 89.72L277.1 89.25L277.44 88.75L277.74 88.22L277.99 87.66L278.19 87.07L278.33 86.45L278.42 85.79L278.45 85.11L278.43 84.57L278.36 84.04L278.24 83.54L278.08 83.05L277.87 82.57L277.61 82.11L277.31 81.67L276.96 81.24L276.56 80.82L276.11 80.43L275.69 80.13L275.21 79.87L274.67 79.63L274.07 79.43L273.42 79.26L272.71 79.12L271.95 79.01L271.13 78.93L270.27 78.88L269.36 78.87L263.9 78.87L263.9 92.64Z"
       id="b6n47LhDUU" />
    <path
       d="M305.74 95.24L305.74 116.81L298.98 116.81L298.98 73.41L305.74 73.41L305.74 92.64L324.45 73.41L333.03 73.41L313.02 93.68L334.33 116.81L324.97 116.81L305.74 95.24Z"
       id="egRoSu0in" />
    <path
       d="M341.6 73.41L348.62 73.41L348.62 116.81L341.6 116.81L341.6 73.41Z"
       id="a4uo7AeDgd" />
    <path
       d="M374.09 116.81L357.45 73.41L364.73 73.41L377.98 109.53L391.5 73.41L398.26 73.41L381.36 116.81L374.09 116.81Z"
       id="b507cg7DIf" />
  </defs>
  <g
     id="g4185"
     transform="matrix(0.82850166,0,0,0.82850166,9.7682609,16.148474)">
    <g
       id="g4007">
      <use
         xlink:href="#d2wvDGyESl"
         id="use4001"
         style="opacity:1;fill:#ffffff;fill-opacity:1"
         x="0"
         y="0"
         width="100%"
         height="100%" />
      <g
         id="g4005">
        <use
           xlink:href="#d2wvDGyESl"
           id="use4003"
           style="opacity:1;fill-opacity:0;stroke:#000000;stroke-width:1;stroke-opacity:0"
           x="0"
           y="0"
           width="100%"
           height="100%" />
      </g>
    </g>
    <g
       id="g4015">
      <use
         xlink:href="#bamg2ivEP"
         id="use4009"
         style="opacity:1;fill:#ffffff;fill-opacity:1"
         x="0"
         y="0"
         width="100%"
         height="100%" />
      <g
         id="g4013">
        <use
           xlink:href="#bamg2ivEP"
           id="use4011"
           style="opacity:1;fill-opacity:0;stroke:#000000;stroke-width:1;stroke-opacity:0"
           x="0"
           y="0"
           width="100%"
           height="100%" />
      </g>
    </g>
    <g
       id="g4023">
      <use
         xlink:href="#b3mbXyy3z"
         id="use4017"
         style="opacity:1;fill:#ffffff;fill-opacity:1"
         x="0"
         y="0"
         width="100%"
         height="100%" />
      <g
         id="g4021">
        <use
           xlink:href="#b3mbXyy3z"
           id="use4019"
           style="opacity:1;fill-opacity:0;stroke:#000000;stroke-width:1;stroke-opacity:0"
           x="0"
           y="0"
           width="100%"
           height="100%" />
      </g>
    </g>
    <g
       id="g4031">
      <use
         xlink:href="#a2LIefMW0v"
         id="use4025"
         style="opacity:1;fill:#ffffff;fill-opacity:1"
         x="0"
         y="0"
         width="100%"
         height="100%" />
      <g
         id="g4029">
        <use
           xlink:href="#a2LIefMW0v"
           id="use4027"
           style="opacity:1;fill-opacity:0;stroke:#000000;stroke-width:1;stroke-opacity:0"
           x="0"
           y="0"
           width="100%"
           height="100%" />
      </g>
    </g>
    <g
       id="g4039">
      <use
         xlink:href="#fBp9c5mA7"
         id="use4033"
         style="opacity:1;fill:#ffffff;fill-opacity:1"
         x="0"
         y="0"
         width="100%"
         height="100%" />
      <g
         id="g4037">
        <use
           xlink:href="#fBp9c5mA7"
           id="use4035"
           style="opacity:1;fill-opacity:0;stroke:#000000;stroke-width:1;stroke-opacity:0"
           x="0"
           y="0"
           width="100%"
           height="100%" />
      </g>
    </g>
    <g
       id="g4047">
      <use
         xlink:href="#aDnkIzC64"
         id="use4041"
         style="opacity:1;fill:#ffffff;fill-opacity:1"
         x="0"
         y="0"
         width="100%"
         height="100%" />
      <g
         id="g4045">
        <use
           xlink:href="#aDnkIzC64"
           id="use4043"
           style="opacity:1;fill-opacity:0;stroke:#000000;stroke-width:1;stroke-opacity:0"
           x="0"
           y="0"
           width="100%"
           height="100%" />
      </g>
    </g>
    <g
       id="g4055">
      <use
         xlink:href="#m17Ham4quf"
         id="use4049"
         style="opacity:1;fill:#ffffff;fill-opacity:1"
         x="0"
         y="0"
         width="100%"
         height="100%" />
      <g
         id="g4053">
        <use
           xlink:href="#m17Ham4quf"
           id="use4051"
           style="opacity:1;fill-opacity:0;stroke:#000000;stroke-width:1;stroke-opacity:0"
           x="0"
           y="0"
           width="100%"
           height="100%" />
      </g>
    </g>
    <g
       id="g4063">
      <use
         xlink:href="#aDRd9EIU4"
         id="use4057"
         style="opacity:1;fill:#ffffff;fill-opacity:1"
         x="0"
         y="0"
         width="100%"
         height="100%" />
      <g
         id="g4061">
        <use
           xlink:href="#aDRd9EIU4"
           id="use4059"
           style="opacity:1;fill-opacity:0;stroke:#000000;stroke-width:1;stroke-opacity:0"
           x="0"
           y="0"
           width="100%"
           height="100%" />
      </g>
    </g>
    <g
       id="g4071">
      <use
         xlink:href="#f44P3Jwks"
         id="use4065"
         style="opacity:1;fill:#ffffff;fill-opacity:1"
         x="0"
         y="0"
         width="100%"
         height="100%" />
      <g
         id="g4069">
        <use
           xlink:href="#f44P3Jwks"
           id="use4067"
           style="opacity:1;fill-opacity:0;stroke:#000000;stroke-width:1;stroke-opacity:0"
           x="0"
           y="0"
           width="100%"
           height="100%" />
      </g>
    </g>
    <g
       id="g4079">
      <use
         xlink:href="#cQTDh9N4j"
         id="use4073"
         style="opacity:1;fill:#ffffff;fill-opacity:1"
         x="0"
         y="0"
         width="100%"
         height="100%" />
      <g
         id="g4077">
        <use
           xlink:href="#cQTDh9N4j"
           id="use4075"
           style="opacity:1;fill-opacity:0;stroke:#000000;stroke-width:1;stroke-opacity:0"
           x="0"
           y="0"
           width="100%"
           height="100%" />
      </g>
    </g>
    <g
       id="g4087">
      <use
         xlink:href="#i4pf2HZsv"
         id="use4081"
         style="opacity:1;fill:#ffffff;fill-opacity:1"
         x="0"
         y="0"
         width="100%"
         height="100%" />
      <g
         id="g4085">
        <use
           xlink:href="#i4pf2HZsv"
           id="use4083"
           style="opacity:1;fill-opacity:0;stroke:#000000;stroke-width:1;stroke-opacity:0"
           x="0"
           y="0"
           width="100%"
           height="100%" />
      </g>
    </g>
    <g
       id="g4095">
      <use
         xlink:href="#d6L5WQGgex"
         id="use4089"
         style="opacity:1;fill:#ffffff;fill-opacity:1"
         x="0"
         y="0"
         width="100%"
         height="100%" />
      <g
         id="g4093">
        <use
           xlink:href="#d6L5WQGgex"
           id="use4091"
           style="opacity:1;fill-opacity:0;stroke:#000000;stroke-width:1;stroke-opacity:0"
           x="0"
           y="0"
           width="100%"
           height="100%" />
      </g>
    </g>
    <g
       id="g4103">
      <use
         xlink:href="#aKWir11Pf"
         id="use4097"
         style="opacity:1;fill:#ffffff;fill-opacity:1"
         x="0"
         y="0"
         width="100%"
         height="100%" />
      <g
         id="g4101">
        <use
           xlink:href="#aKWir11Pf"
           id="use4099"
           style="opacity:1;fill-opacity:0;stroke:#000000;stroke-width:1;stroke-opacity:0"
           x="0"
           y="0"
           width="100%"
           height="100%" />
      </g>
    </g>
    <g
       id="g4111">
      <use
         xlink:href="#i9589Dsrw"
         id="use4105"
         style="opacity:1;fill:#ffffff;fill-opacity:1"
         x="0"
         y="0"
         width="100%"
         height="100%" />
      <g
         id="g4109">
        <use
           xlink:href="#i9589Dsrw"
           id="use4107"
           style="opacity:1;fill-opacity:0;stroke:#000000;stroke-width:1;stroke-opacity:0"
           x="0"
           y="0"
           width="100%"
           height="100%" />
      </g>
    </g>
    <g
       id="g4119">
      <use
         xlink:href="#a2s5d51p6v"
         id="use4113"
         style="opacity:1;fill:#ffffff;fill-opacity:1"
         x="0"
         y="0"
         width="100%"
         height="100%" />
      <g
         id="g4117">
        <use
           xlink:href="#a2s5d51p6v"
           id="use4115"
           style="opacity:1;fill-opacity:0;stroke:#000000;stroke-width:1;stroke-opacity:0"
           x="0"
           y="0"
           width="100%"
           height="100%" />
      </g>
    </g>
    <g
       id="g4127">
      <use
         xlink:href="#a6UpWbULv"
         id="use4121"
         style="opacity:1;fill:#ffffff;fill-opacity:1"
         x="0"
         y="0"
         width="100%"
         height="100%" />
      <g
         id="g4125">
        <use
           xlink:href="#a6UpWbULv"
           id="use4123"
           style="opacity:1;fill-opacity:0;stroke:#000000;stroke-width:1;stroke-opacity:0"
           x="0"
           y="0"
           width="100%"
           height="100%" />
      </g>
    </g>
    <g
       id="g4135">
      <use
         xlink:href="#n5v3lhMn7X"
         id="use4129"
         style="opacity:1;fill:#ffffff;fill-opacity:1"
         x="0"
         y="0"
         width="100%"
         height="100%" />
      <g
         id="g4133">
        <use
           xlink:href="#n5v3lhMn7X"
           id="use4131"
           style="opacity:1;fill-opacity:0;stroke:#000000;stroke-width:1;stroke-opacity:0"
           x="0"
           y="0"
           width="100%"
           height="100%" />
      </g>
    </g>
    <g
       id="g4143">
      <use
         xlink:href="#aexkhmVNU"
         id="use4137"
         style="opacity:1;fill:#ffffff;fill-opacity:1"
         x="0"
         y="0"
         width="100%"
         height="100%" />
      <g
         id="g4141">
        <use
           xlink:href="#aexkhmVNU"
           id="use4139"
           style="opacity:1;fill-opacity:0;stroke:#000000;stroke-width:1;stroke-opacity:0"
           x="0"
           y="0"
           width="100%"
           height="100%" />
      </g>
    </g>
    <g
       id="g4151">
      <use
         xlink:href="#beyyWY4QZ"
         id="use4145"
         style="opacity:1;fill:#ffffff;fill-opacity:1"
         x="0"
         y="0"
         width="100%"
         height="100%" />
      <g
         id="g4149">
        <use
           xlink:href="#beyyWY4QZ"
           id="use4147"
           style="opacity:1;fill-opacity:0;stroke:#000000;stroke-width:1;stroke-opacity:0"
           x="0"
           y="0"
           width="100%"
           height="100%" />
      </g>
    </g>
    <g
       id="g4159">
      <use
         xlink:href="#b6n47LhDUU"
         id="use4153"
         style="opacity:1;fill:#ffffff;fill-opacity:1"
         x="0"
         y="0"
         width="100%"
         height="100%" />
      <g
         id="g4157">
        <use
           xlink:href="#b6n47LhDUU"
           id="use4155"
           style="opacity:1;fill-opacity:0;stroke:#000000;stroke-width:1;stroke-opacity:0"
           x="0"
           y="0"
           width="100%"
           height="100%" />
      </g>
    </g>
    <g
       id="g4167">
      <use
         xlink:href="#egRoSu0in"
         id="use4161"
         style="opacity:1;fill:#ffffff;fill-opacity:1"
         x="0"
         y="0"
         width="100%"
         height="100%" />
      <g
         id="g4165">
        <use
           xlink:href="#egRoSu0in"
           id="use4163"
           style="opacity:1;fill-opacity:0;stroke:#000000;stroke-width:1;stroke-opacity:0"
           x="0"
           y="0"
           width="100%"
           height="100%" />
      </g>
    </g>
    <g
       id="g4175">
      <use
         xlink:href="#a4uo7AeDgd"
         id="use4169"
         style="opacity:1;fill:#ffffff;fill-opacity:1"
         x="0"
         y="0"
         width="100%"
         height="100%" />
      <g
         id="g4173">
        <use
           xlink:href="#a4uo7AeDgd"
           id="use4171"
           style="opacity:1;fill-opacity:0;stroke:#000000;stroke-width:1;stroke-opacity:0"
           x="0"
           y="0"
           width="100%"
           height="100%" />
      </g>
    </g>
    <g
       id="g4183">
      <use
         xlink:href="#b507cg7DIf"
         id="use4177"
         style="opacity:1;fill:#ffffff;fill-opacity:1"
         x="0"
         y="0"
         width="100%"
         height="100%" />
      <g
         id="g4181">
        <use
           xlink:href="#b507cg7DIf"
           id="use4179"
           style="opacity:1;fill-opacity:0;stroke:#000000;stroke-width:1;stroke-opacity:0"
           x="0"
           y="0"
           width="100%"
           height="100%" />
      </g>
    </g>
  </g>
</svg>
