<?xml version="1.0" encoding="UTF-8" standalone="no"?>
<svg
  xmlns:dc="http://purl.org/dc/elements/1.1/"
  xmlns:cc="http://creativecommons.org/ns#"
  xmlns:rdf="http://www.w3.org/1999/02/22-rdf-syntax-ns#"
  xmlns:svg="http://www.w3.org/2000/svg"
  xmlns="http://www.w3.org/2000/svg"
  viewBox="0 0 184.8 81.653336"
  height="81.653336"
  width="184.8"
  xml:space="preserve"
  id="svg2"
  version="1.1"><metadata
    id="metadata8"><rdf:RDF><cc:Work
        rdf:about=""><dc:format>image/svg+xml</dc:format><dc:type
          rdf:resource="http://purl.org/dc/dcmitype/StillImage" /></cc:Work></rdf:RDF></metadata><defs
    id="defs6" /><g
    transform="matrix(1.3333333,0,0,-1.3333333,0,81.653333)"
    id="g10"><g
      transform="scale(0.1)"
      id="g12"><path
        id="path14"
        style="fill:#fff;fill-opacity:1;fill-rule:nonzero;stroke:none"
        d="m 664.086,195.309 v 38.554 h 9.941 v -3.097 c 3.02,2.707 6.68,3.898 10.411,3.898 5.246,0 9.929,-2.394 12.96,-6.047 3.094,3.262 7.95,6.047 13.668,6.047 5.325,0 10.414,-2.394 13.52,-6.203 2.461,-3.027 3.894,-7 3.894,-12.723 v -20.429 h -10.339 v 20.828 c 0,3.496 -0.715,5.246 -1.907,6.601 -1.589,1.75 -3.816,2.383 -5.8,2.383 -4.454,0 -7.95,-3.105 -9.305,-5.086 0.164,-1.281 0.32,-2.707 0.32,-4.297 v -20.429 h -10.332 v 20.828 c 0,3.496 -0.722,5.246 -1.914,6.601 -1.594,1.75 -3.808,2.383 -5.801,2.383 -4.367,0 -7.547,-2.937 -8.972,-4.773 v -25.039 h -10.344" /><path
        id="path16"
        style="fill:#fff;fill-opacity:1;fill-rule:nonzero;stroke:none"
        d="m 791.227,233.863 v -38.554 h -9.946 v 3.093 c -3.015,-2.695 -6.668,-3.886 -10.406,-3.886 -5.324,0 -10.098,2.461 -13.117,6.203 -2.473,3.015 -3.899,6.992 -3.899,12.715 v 20.429 h 10.332 v -20.832 c 0,-3.496 0.715,-5.242 1.918,-6.59 1.582,-1.75 3.809,-2.394 5.797,-2.394 4.375,0 7.551,2.949 8.989,4.777 v 25.039 h 10.332" /><path
        id="path18"
        style="fill:#fff;fill-opacity:1;fill-rule:nonzero;stroke:none"
        d="m 820.258,207.074 c 2.629,-2.383 6.68,-3.816 10.578,-3.816 2.781,0 4.922,1.347 4.922,3.262 0,5.8 -18.684,3.73 -18.684,16.132 0,7.391 7.16,12.012 14.785,12.012 5.008,0 10.5,-1.914 13.039,-3.898 l -4.843,-7.469 c -1.992,1.426 -4.614,2.617 -7.395,2.617 -2.859,0 -5.242,-1.113 -5.242,-3.098 0,-5.007 18.68,-3.027 18.68,-16.375 0,-7.394 -7.239,-11.925 -15.352,-11.925 -5.32,0 -10.969,1.828 -15.496,5.168 l 5.008,7.39" /><path
        id="path20"
        style="fill:#fff;fill-opacity:1;fill-rule:nonzero;stroke:none"
        d="m 894.762,219.555 c -0.324,3.418 -3.418,6.758 -7.637,6.758 -4.289,0 -7.785,-3.262 -8.266,-6.758 z m 9.617,-18.125 c -3.738,-4.453 -9.863,-6.914 -15.82,-6.914 -11.532,0 -20.196,7.949 -20.196,20.031 0,10.73 7.317,20.117 18.762,20.117 10.652,0 18.211,-8.984 18.211,-19.719 0,-1.035 -0.086,-2.07 -0.242,-2.937 h -26.711 c 0.558,-5.41 4.933,-9.153 10.41,-9.153 4.375,0 7.871,2.473 9.695,4.454 l 5.891,-5.879" /><path
        id="path22"
        style="fill:#fff;fill-opacity:1;fill-rule:nonzero;stroke:none"
        d="m 966.559,233.863 v -38.554 h -9.934 v 3.093 c -3.016,-2.695 -6.68,-3.886 -10.422,-3.886 -5.32,0 -10.086,2.461 -13.113,6.203 -2.461,3.015 -3.899,6.992 -3.899,12.715 v 20.429 h 10.344 v -20.832 c 0,-3.496 0.715,-5.242 1.906,-6.59 1.59,-1.75 3.817,-2.394 5.797,-2.394 4.375,0 7.563,2.949 8.989,4.777 v 25.039 h 10.332" /><path
        id="path24"
        style="fill:#fff;fill-opacity:1;fill-rule:nonzero;stroke:none"
        d="m 994.398,195.309 v 38.554 h 9.942 v -3.097 c 3.02,2.707 6.68,3.898 10.41,3.898 5.25,0 9.94,-2.394 12.96,-6.047 3.1,3.262 7.95,6.047 13.67,6.047 5.33,0 10.42,-2.394 13.52,-6.203 2.47,-3.027 3.89,-7 3.89,-12.723 v -20.429 h -10.33 v 20.828 c 0,3.496 -0.71,5.246 -1.9,6.601 -1.6,1.75 -3.82,2.383 -5.81,2.383 -4.46,0 -7.95,-3.105 -9.3,-5.086 0.16,-1.281 0.31,-2.707 0.31,-4.297 v -20.429 h -10.33 v 20.828 c 0,3.496 -0.71,5.246 -1.9,6.601 -1.6,1.75 -3.82,2.383 -5.82,2.383 -4.36,0 -7.54,-2.937 -8.97,-4.773 v -25.039 h -10.342" /><path
        id="path26"
        style="fill:#fff;fill-opacity:1;fill-rule:nonzero;stroke:none"
        d="m 1140.55,204.047 c 6.05,0 10.18,4.699 10.18,10.5 0,5.801 -4.13,10.574 -10.18,10.574 -6.04,0 -10.17,-4.773 -10.17,-10.574 0,-5.801 4.13,-10.5 10.17,-10.5 z m 0,30.617 c 11.69,0 20.51,-8.984 20.51,-20.117 0,-11.133 -8.82,-20.031 -20.51,-20.031 -11.69,0 -20.51,8.898 -20.51,20.031 0,11.133 8.82,20.117 20.51,20.117" /><path
        id="path28"
        style="fill:#fff;fill-opacity:1;fill-rule:nonzero;stroke:none"
        d="m 1211.56,243.004 c -0.87,0.242 -2.15,0.398 -3.1,0.398 -2.55,0 -4.53,-0.711 -5.81,-2.226 -0.87,-1.113 -1.43,-2.539 -1.43,-6.121 v -1.192 h 11.93 v -8.742 h -11.93 v -29.812 h -10.33 v 29.812 h -9.94 v 8.742 h 9.94 v 1.59 c 0,6.203 1.43,9.942 4.13,12.559 2.71,2.629 6.76,4.531 12.01,4.531 2.07,0 3.97,-0.156 6.12,-0.711 l -1.59,-8.828" /><path
        id="path30"
        style="fill:#fff;fill-opacity:1;fill-rule:nonzero;stroke:none"
        d="m 500.484,106.676 c 0,-14.1721 10.832,-25.0119 24.907,-25.0119 9.48,0 16.363,4.582 20.632,10.1093 l 9.696,-8.6523 c -6.461,-8.2344 -17.301,-13.9648 -30.641,-13.9648 -22.719,0 -38.668,16.5703 -38.668,37.5197 0,20.945 15.738,37.519 38.457,37.519 10.84,0 20.117,-4.062 26.68,-10.422 l -9.067,-9.589 c -4.375,4.375 -10.523,7.5 -17.714,7.5 -13.864,0 -24.282,-11.141 -24.282,-25.008" /><path
        id="path32"
        style="fill:#fff;fill-opacity:1;fill-rule:nonzero;stroke:none"
        d="m 618.488,81.6641 c 13.758,0 23.965,11.25 23.965,25.0119 0,13.758 -10.207,25.008 -23.965,25.008 -13.758,0 -23.968,-11.25 -23.968,-25.008 0,-13.7619 10.21,-25.0119 23.968,-25.0119 z m 0,62.5309 c 22.512,0 38.039,-16.777 38.039,-37.519 0,-20.7424 -15.527,-37.5197 -38.039,-37.5197 -22.508,0 -38.039,16.7773 -38.039,37.5197 0,20.742 15.531,37.519 38.039,37.519" /><path
        id="path34"
        style="fill:#fff;fill-opacity:1;fill-rule:nonzero;stroke:none"
        d="m 714.816,112.406 c 4.797,0 7.192,1.145 8.86,2.922 1.562,1.668 2.39,3.75 2.39,6.152 0,2.391 -0.828,4.579 -2.39,6.25 -1.668,1.766 -4.063,2.918 -8.86,2.918 H 702.105 V 112.406 Z M 702.105,99.8984 V 70.1992 h -14.074 v 72.9488 h 27.41 c 9.375,0 14.907,-2.285 18.965,-6.562 3.645,-3.75 5.735,-9.375 5.735,-15.106 0,-5.734 -2.09,-11.367 -5.735,-15.117 -3.965,-4.172 -9.59,-6.4646 -18.965,-6.4646 h -13.336" /><path
        id="path36"
        style="fill:#fff;fill-opacity:1;fill-rule:nonzero;stroke:none"
        d="m 784.672,130.648 v -15.117 h 22.402 v -12.5 H 784.672 V 82.7109 h 30.742 V 70.1992 h -44.812 v 72.9488 h 43.765 v -12.5 h -29.695" /><path
        id="path38"
        style="fill:#fff;fill-opacity:1;fill-rule:nonzero;stroke:none"
        d="m 847.953,143.148 h 9.902 L 898.5,95.6289 v 47.5191 h 14.07 V 70.1992 h -9.898 L 862.027,117.719 V 70.1992 h -14.074 v 72.9488" /><path
        id="path40"
        style="fill:#fff;fill-opacity:1;fill-rule:nonzero;stroke:none"
        d="M 999.945,103.031 H 963.473 V 70.1992 h -14.075 v 72.9488 h 14.075 v -27.617 h 36.472 v 27.617 h 14.075 V 70.1992 h -14.075 v 32.8318" /><path
        id="path42"
        style="fill:#fff;fill-opacity:1;fill-rule:nonzero;stroke:none"
        d="m 1069.29,98.8633 h 18.55 l -9.28,21.5707 z m -26.89,-28.6641 31.27,72.9488 h 9.9 l 31.26,-72.9488 h -14.7 l -6.87,16.1524 h -29.29 l -6.88,-16.1524 h -14.69" /><path
        id="path44"
        style="fill:#fff;fill-opacity:1;fill-rule:nonzero;stroke:none"
        d="m 1149.47,106.676 c 0,-14.1721 10.83,-25.0119 24.9,-25.0119 6.67,0 12.09,2.2968 16.26,5.625 v 15.7419 h -18.76 v 12.5 h 32.83 V 83.1211 c -6.46,-8.2344 -17.3,-13.9648 -30.64,-13.9648 -22.72,0 -38.67,16.5703 -38.67,37.5197 0,20.945 15.74,37.519 38.46,37.519 10.84,0 20.11,-4.062 26.68,-10.422 l -9.07,-9.589 c -4.38,4.375 -10.52,7.5 -17.72,7.5 -13.85,0 -24.27,-11.141 -24.27,-25.008" /><path
        id="path46"
        style="fill:#fff;fill-opacity:1;fill-rule:nonzero;stroke:none"
        d="m 1253.51,130.648 v -15.117 h 22.4 v -12.5 h -22.4 V 82.7109 h 30.74 V 70.1992 h -44.81 v 72.9488 h 43.77 v -12.5 h -29.7" /><path
        id="path48"
        style="fill:#fff;fill-opacity:1;fill-rule:nonzero;stroke:none"
        d="m 1316.79,143.148 h 9.9 l 40.65,-47.5191 v 47.5191 h 14.07 V 70.1992 h -9.9 l -40.65,47.5198 V 70.1992 h -14.07 v 72.9488" /><path
        id="path50"
        style="fill:#fff;fill-opacity:1;fill-rule:nonzero;stroke:none"
        d="m 505.691,498.055 v -35.848 h -14.066 v 72.949 h 14.066 v -29.179 l 27.618,29.179 h 18.55 l -32.097,-33.351 35.957,-39.598 h -18.035 l -31.993,35.848" /><path
        id="path52"
        style="fill:#fff;fill-opacity:1;fill-rule:nonzero;stroke:none"
        d="m 633.699,512.441 -30.742,-36.269 c 3.125,-1.563 6.773,-2.5 10.633,-2.5 13.754,0 23.965,11.25 23.965,25.008 0,5 -1.457,9.797 -3.856,13.761 z m -40.332,-27.519 30.746,36.269 c -3.129,1.563 -6.773,2.5 -10.523,2.5 -13.762,0 -23.973,-11.25 -23.973,-25.011 0,-5.106 1.356,-9.793 3.75,-13.758 z m 20.223,51.277 c 7.183,0 13.648,-1.765 19.172,-4.793 l 3.851,4.793 h 17.09 l -10.84,-13.027 c 5.532,-6.563 8.762,-15.106 8.762,-24.492 0,-20.742 -15.527,-37.52 -38.035,-37.52 -7.297,0 -13.762,1.778 -19.285,4.797 l -3.957,-4.797 h -16.989 l 10.942,12.934 c -5.625,6.558 -8.754,15.211 -8.754,24.586 0,20.742 15.531,37.519 38.043,37.519" /><path
        id="path54"
        style="fill:#fff;fill-opacity:1;fill-rule:nonzero;stroke:none"
        d="m 713.148,474.719 c 4.895,0 7.61,1.25 9.375,3.219 1.668,1.781 2.61,4.074 2.61,6.671 0,2.61 -0.942,4.903 -2.61,6.668 -1.765,1.985 -4.48,3.235 -9.375,3.235 h -14.074 v -19.793 z m -14.074,32.301 h 9.906 c 4.375,0 6.356,1.046 7.813,2.609 1.25,1.348 2.09,3.23 2.09,5.203 0,1.984 -0.84,3.859 -2.09,5.215 -1.457,1.562 -3.438,2.609 -7.813,2.609 h -9.906 z m 10.735,28.136 c 8.234,0 12.824,-1.972 16.367,-5.109 4.062,-3.535 6.777,-8.75 6.777,-14.688 0,-4.793 -2.297,-9.695 -4.695,-12.195 6.465,-3.234 10.945,-10.527 10.945,-18.652 0,-6.153 -2.605,-11.778 -6.672,-15.742 -4.058,-4.063 -9.695,-6.563 -19.07,-6.563 h -28.445 v 72.949 h 24.793" /><path
        id="path56"
        style="fill:#fff;fill-opacity:1;fill-rule:nonzero;stroke:none"
        d="m 786.234,522.656 v -15.117 h 22.414 v -12.5 h -22.414 v -20.32 h 30.743 V 462.207 H 772.16 v 72.949 h 43.781 v -12.5 h -29.707" /><path
        id="path58"
        style="fill:#fff;fill-opacity:1;fill-rule:nonzero;stroke:none"
        d="m 851.5,535.156 h 9.902 l 40.645,-47.519 v 47.519 h 14.07 v -72.949 h -9.902 l -40.645,47.52 v -47.52 H 851.5 v 72.949" /><path
        id="path60"
        style="fill:#fff;fill-opacity:1;fill-rule:nonzero;stroke:none"
        d="m 1005.26,495.039 h -36.479 v -32.832 h -14.07 v 72.949 h 14.07 v -27.617 h 36.479 v 27.617 h 14.07 v -72.949 h -14.07 v 32.832" /><path
        id="path62"
        style="fill:#fff;fill-opacity:1;fill-rule:nonzero;stroke:none"
        d="m 1076.48,490.867 h 18.55 l -9.27,21.574 z m -26.89,-28.66 31.26,72.949 h 9.91 l 31.27,-72.949 h -14.7 l -6.88,16.152 h -29.28 l -6.89,-16.152 h -14.69" /><path
        id="path64"
        style="fill:#fff;fill-opacity:1;fill-rule:nonzero;stroke:none"
        d="m 1138.72,535.156 h 14.5 l 19.9,-49.812 20.01,49.812 h 14.49 l -29.5,-72.949 h -9.89 l -29.51,72.949" /><path
        id="path66"
        style="fill:#fff;fill-opacity:1;fill-rule:nonzero;stroke:none"
        d="m 1239.02,535.156 h 9.9 l 40.64,-47.519 v 47.519 h 14.08 v -72.949 h -9.91 l -40.64,47.52 v -47.52 h -14.07 v 72.949" /><path
        id="path68"
        style="fill:#fff;fill-opacity:1;fill-rule:nonzero;stroke:none"
        d="m 1344.12,481.699 c 4.16,-4.59 10.51,-8.027 17.18,-8.027 6.26,0 10.64,3.855 10.64,9.172 0,9.383 -13.55,10.523 -23.35,16.258 -5.72,3.328 -10.31,8.339 -10.31,16.57 0,13.027 11.98,20.527 24.07,20.527 7.4,0 14.28,-1.765 21.16,-6.875 l -7.3,-10.418 c -2.92,2.703 -7.82,4.785 -12.61,4.785 -5.31,0 -11.25,-2.285 -11.25,-7.921 0,-11.778 33.66,-8.125 33.66,-32.723 0,-12.918 -11.57,-21.887 -24.71,-21.887 -9.79,0 -18.85,4.063 -26.36,10.949 l 9.18,9.59" /><path
        id="path70"
        style="fill:#fff;fill-opacity:1;fill-rule:nonzero;stroke:none"
        d="m 709.66,366.832 v 38.559 h 9.945 v -3.094 c 3.016,2.703 6.676,3.894 10.411,3.894 5.254,0 9.937,-2.39 12.957,-6.046 3.105,3.261 7.949,6.046 13.672,6.046 5.332,0 10.421,-2.39 13.515,-6.203 2.473,-3.023 3.899,-7 3.899,-12.722 v -20.434 h -10.332 v 20.832 c 0,3.496 -0.715,5.246 -1.907,6.602 -1.59,1.75 -3.816,2.382 -5.808,2.382 -4.453,0 -7.949,-3.101 -9.297,-5.085 0.152,-1.282 0.312,-2.708 0.312,-4.297 v -20.434 h -10.336 v 20.832 c 0,3.496 -0.711,5.246 -1.902,6.602 -1.594,1.75 -3.816,2.382 -5.809,2.382 -4.367,0 -7.55,-2.937 -8.976,-4.773 V 366.832 H 709.66" /><path
        id="path72"
        style="fill:#fff;fill-opacity:1;fill-rule:nonzero;stroke:none"
        d="m 836.801,405.391 v -38.559 h -9.934 v 3.094 c -3.015,-2.696 -6.676,-3.887 -10.418,-3.887 -5.32,0 -10.09,2.461 -13.113,6.203 -2.461,3.016 -3.898,6.996 -3.898,12.719 v 20.43 h 10.339 v -20.832 c 0,-3.496 0.715,-5.243 1.907,-6.59 1.593,-1.754 3.82,-2.399 5.8,-2.399 4.375,0 7.559,2.953 8.985,4.782 v 25.039 h 10.332" /><path
        id="path74"
        style="fill:#fff;fill-opacity:1;fill-rule:nonzero;stroke:none"
        d="m 865.836,378.602 c 2.625,-2.387 6.68,-3.821 10.574,-3.821 2.781,0 4.934,1.348 4.934,3.266 0,5.801 -18.684,3.73 -18.684,16.133 0,7.39 7.149,12.011 14.785,12.011 5.008,0 10.489,-1.914 13.039,-3.894 l -4.855,-7.473 c -1.981,1.426 -4.609,2.617 -7.395,2.617 -2.859,0 -5.242,-1.113 -5.242,-3.097 0,-5.008 18.684,-3.028 18.684,-16.375 0,-7.399 -7.238,-11.93 -15.344,-11.93 -5.32,0 -10.969,1.828 -15.496,5.168 l 5,7.395" /><path
        id="path76"
        style="fill:#fff;fill-opacity:1;fill-rule:nonzero;stroke:none"
        d="m 940.336,391.086 c -0.313,3.418 -3.418,6.758 -7.625,6.758 -4.301,0 -7.793,-3.266 -8.273,-6.758 z m 9.617,-18.133 c -3.726,-4.453 -9.851,-6.914 -15.816,-6.914 -11.528,0 -20.188,7.949 -20.188,20.035 0,10.731 7.317,20.117 18.762,20.117 10.652,0 18.199,-8.984 18.199,-19.718 0,-1.035 -0.074,-2.071 -0.23,-2.938 h -26.719 c 0.555,-5.41 4.93,-9.156 10.418,-9.156 4.375,0 7.871,2.476 9.695,4.461 l 5.879,-5.887" /><path
        id="path78"
        style="fill:#fff;fill-opacity:1;fill-rule:nonzero;stroke:none"
        d="m 1012.14,405.391 v -38.559 h -9.94 v 3.094 c -3.016,-2.696 -6.669,-3.887 -10.407,-3.887 -5.324,0 -10.102,2.461 -13.117,6.203 -2.473,3.016 -3.899,6.996 -3.899,12.719 v 20.43 h 10.332 v -20.832 c 0,-3.496 0.715,-5.243 1.918,-6.59 1.582,-1.754 3.809,-2.399 5.797,-2.399 4.375,0 7.556,2.953 8.986,4.782 v 25.039 h 10.33" /><path
        id="path80"
        style="fill:#fff;fill-opacity:1;fill-rule:nonzero;stroke:none"
        d="m 1039.98,366.832 v 38.559 h 9.94 v -3.094 c 3.02,2.703 6.68,3.894 10.42,3.894 5.24,0 9.93,-2.39 12.96,-6.046 3.09,3.261 7.94,6.046 13.67,6.046 5.32,0 10.41,-2.39 13.51,-6.203 2.46,-3.023 3.9,-7 3.9,-12.722 v -20.434 h -10.34 v 20.832 c 0,3.496 -0.72,5.246 -1.91,6.602 -1.59,1.75 -3.82,2.382 -5.8,2.382 -4.45,0 -7.95,-3.101 -9.3,-5.085 0.16,-1.282 0.32,-2.708 0.32,-4.297 v -20.434 h -10.33 v 20.832 c 0,3.496 -0.73,5.246 -1.92,6.602 -1.59,1.75 -3.82,2.382 -5.8,2.382 -4.37,0 -7.55,-2.937 -8.98,-4.773 v -25.043 h -10.34" /><path
        id="path82"
        style="fill:#fff;fill-opacity:1;fill-rule:nonzero;stroke:none"
        d="M 355.391,612.348 97.7695,354.898 V 538.797 H 0 V 73.5508 H 97.7695 V 257.457 L 355.391,0.00390625 V 137.457 L 186.918,305.836 355.391,474.18 v 138.168" /></g></g></svg>
