<svg viewBox="0 0 8480 2240" xmlns="http://www.w3.org/2000/svg"><path d="M7463 1926v-42c-14 15-19 20-28 27-38 29-82 30-98 29-87 0-127-46-140-81-8-20-10-41-10-61v-399c0-32 2-63 13-93 29-77 116-95 187-95 57 0 133 12 168 65 20 30 19 64 19 74l-1 102h-129v-67c1-24 2-48-21-63-6-4-19-10-39-10-6 0-26 0-41 11-20 14-25 36-25 79v370c0 4-1 21 5 37 6 15 19 31 55 31 7 0 34 2 51-17 16-17 15-41 15-63v-109h-79v-105h208v380h-110zm-2678-36c-42 39-99 47-152 47-52 0-105-7-146-41-21-17-31-34-35-44-12-25-15-54-15-80l1-392c0-15-3-86 44-127 25-23 74-46 153-46 101 0 154 42 175 83 11 23 16 45 16 93l-1 390c0 44-7 85-40 117zm-429-49c-34 97-164 95-179 95-30 0-58-5-66-7-52-10-98-33-119-83-9-26-9-48-9-74v-380l2-37c2-45 14-79 50-108 29-23 68-40 145-40 45 0 92 6 131 32 19 13 35 30 44 51 11 23 11 37 11 79v108l-127-1v-88c0-53-8-82-66-82-50 0-60 30-60 76v375c0 45 10 79 63 79 58 0 63-33 63-86v-91h127v99c0 28-1 57-10 83zm-1042-157l-2 63c-4 50-12 111-53 146-23 20-58 37-121 37-20 0-95 3-136-57-6-8-15-22-21-45-11-38-11-119-11-221l3-189c2-80 13-120 38-151 21-28 62-58 142-58 20 0 107 1 143 78 10 20 15 40 17 62 6 50 6 163 5 211 0 42-3 83-4 124zm-1269 222c-42 23-87 22-101 22-43 0-96-9-128-41-7-7-20-23-29-47-13-38-12-88-12-96l1-526h88v464c-1 60-3 102 7 127 10 26 33 36 42 39s17 5 35 5c26 0 46-4 63-26 3-4 9-12 12-25 3-14 4-47 4-86l1-497h88v522c0 65-6 130-71 165zm6037 21h121l-10-524 123 524h163l1-699-118-1 12 514-125-514h-166l-1 700zm-6835-30c-44 30-93 30-109 30-25 0-126-2-158-96-9-26-11-52-11-79v-77h83l-1 35c0 47 0 69 8 92 7 19 28 51 79 51 33 0 66-15 80-46 8-17 8-34 8-41 0-60-27-85-65-124l-94-98c-55-56-81-94-81-175 0-10 0-38 9-67 13-45 52-96 155-96 23 1 118 2 141 92 6 24 6 56 6 81v45h-77l-1-58c0-32-5-62-38-78-16-7-31-7-37-7-20 0-38 5-52 19-8 6-12 15-14 18-4 9-7 24-7 47 0 6 0 24 6 41 11 32 40 59 63 84l110 117 22 27c17 22 39 58 39 125-1 83-34 119-64 138zm6421 29l349 1 1-108-221-1 1-215h198v-106h-198v-164h210v-106l-339-1-1 700zm-6843-21c-42 22-86 21-101 21-43 0-96-9-128-40-7-7-20-23-29-48-13-38-12-87-12-96l1-525h88v463c0 60-3 103 7 127 10 26 33 36 42 39s17 5 35 5c27 0 46-4 63-26 3-4 9-12 12-24 3-14 4-48 4-87l1-497h88v522c0 66-5 130-71 166zm5894 20h129l19-114h119l17 114h131l-130-700h-148l-137 700zm-436-1h129l1-320h118l-1 320 130 1 1-700h-130v274h-118v-274l-129-1-1 700zm-496-1l121 1-10-525 123 525h163l1-700h-118l12 514-125-514h-166l-1 699zm-414 0h350v-108h-221l1-215h198v-106h-198v-165l210 1 1-106-340-1-1 700zm-101-326c-21 25-50 34-114 34h-109v291h-131l1-699h261c3 0 20 0 34 3 42 9 62 36 69 50 15 29 15 74 14 105v92c0 65-3 97-25 124zm-1773-298v206h191v77l-192-1v339h-88l1-699h308v78h-220zm-909 620l13-633-105 633h-111l-103-634 13 634h-85l1-700h131l97 625 97-625 133 1-1 699h-80zm-1205-2l1-699h308v78h-221v208l193 1v79h-193l-1 255 229 1-1 78-315-1zM0 1915l85 1-13-634 104 634h110l105-633-13 633h81l1-700H327l-97 624-98-624H1l-1 699zm3228-500c0-28 1-72-14-98-8-14-29-34-67-34-10 0-32 1-52 16-34 27-35 74-35 155v48l1 203c0 50-1 80 6 102 7 21 24 51 76 51 29 0 56-12 68-40 14-30 15-87 16-165 2-30 2-61 2-93l-1-145zm1468-23c0-4 3-36-8-57-6-13-21-30-54-31-6 0-25 1-41 13-29 20-25 51-25 80l-1 353c0 21-1 47 12 65 15 21 47 21 53 21s25-1 40-12c24-17 23-45 23-71l1-361zm2187 311l47-300 42 300h-89zm-1713-306c0-19 3-40-9-56-15-19-43-15-48-15h-64v205h63c26 0 41-3 49-14 9-12 9-34 9-48v-72zm-670-469c-16 56-63 107-182 106-50 0-102-7-144-39-23-18-32-37-37-48-8-20-14-33-13-72V773h128v81c0 26-2 55 22 71 8 5 20 10 40 10 23 0 36-5 45-13 19-14 19-45 19-93 0-9 2-40-14-64-10-15-25-24-30-28l-122-82c-27-18-40-29-58-58-15-25-25-51-25-111 0-10-1-59 17-96 40-85 160-85 174-85 21 0 133 0 170 92 6 18 10 25 10 59v69h-129v-71c0-21-8-51-57-51-30 0-58 11-58 69 0 3-2 45 14 68 4 6 13 13 27 23l125 86c9 6 36 27 57 55 31 40 28 71 28 121 0 53 0 76-7 103zm2362 83c-42 23-86 22-101 22-43 0-96-9-128-41-7-7-20-23-29-48-13-37-12-87-12-96l1-525h88v464c0 59-2 102 7 127 10 26 33 36 42 39s17 4 35 5c27 0 46-4 63-26 3-4 9-12 12-25 3-14 4-47 4-86l1-498 88 1v522c0 65-5 130-71 165zm-798-9c-44 30-92 30-109 30-25 0-125-2-158-97-9-25-11-51-11-78v-77h83v35c0 47 0 69 7 92 7 19 28 50 79 50 34 0 66-14 80-45 8-17 8-35 8-42 0-59-26-84-65-124l-94-97c-55-56-81-94-80-175 0-10 0-38 8-67 14-45 52-96 155-96 23 0 118 1 141 92 6 23 6 56 6 81v45l-77-1-1-57c0-32-5-62-38-78-16-7-30-7-36-7-21 0-39 5-53 18-8 7-12 16-14 19-4 9-7 24-7 47 0 6 0 24 6 40 11 33 41 60 63 85l110 117 22 27c17 21 39 58 39 125 0 83-34 118-64 138zm-422 8c-42 22-86 21-101 21-43 0-95-9-128-41-7-7-20-22-29-47-13-38-12-87-12-96l1-526 88 1v463c0 60-2 102 8 127 9 26 32 36 41 39s17 5 35 5c27 0 47-4 63-26 3-4 9-12 12-25s4-47 4-86l1-497h89l-1 522c0 66-5 130-71 166zM817 392c11 18 20 32 20 72l-1 399c0 20-2 40-8 60-15 45-65 107-178 106-72 0-108-24-134-42l-20 38-58-31 33-61c-10-17-20-36-20-75V466c0-42 5-70 33-103 54-62 131-63 156-63 68 0 110 22 133 38l20-38 57 28-33 64zm6590 632l13-633-105 633h-111l-103-634 13 633h-85l1-699h131l97 624 97-624h133l-1 700h-80zm-1205-2l1-699h309l-1 78h-221v208h193v80l-193-1-1 256h229v79l-316-1zm-1007-1l13-633-105 633h-110l-103-634 13 633h-86l1-699h131l98 624 97-624h133l-1 700h-81zm-1322-2l-123-524 10 524h-121l1-700h166l125 514-12-514 118 1-1 699h-163zm-423-1h-130l-138-700 137 1 68 462 64-462h132l-133 699zm-415 0l-16-114h-119l-19 114-129-1 136-699h148l130 700h-131zm-472-1V697h-118v320h-129l1-700h129l-1 275h119V318h129l-1 699h-129zm-744-1h122l-11-524 124 524 163 1 1-700h-119l13 513-126-513-166-1-1 700zm-413 0h349V908h-220V693h199V587h-199V422h211V316h-339l-1 700zm-93-118c-2 16-6 78-62 103-31 14-67 14-100 14H930l1-700 217 1c42 0 82-1 117 26 39 31 41 72 41 116v63c0 2 0 31-4 49-13 59-57 65-78 69 41 8 57 18 70 34 22 28 20 61 20 94v99l-1 32zM0 1014h131l1-342 136 342h140L245 617l160-302-133-1-140 273V314H1l-1 700zm706-398L582 855v16c0 15 4 21 7 27 7 14 21 28 53 28 5 0 26 0 42-12 22-16 22-43 22-68V616zm481 146c0-21 0-29-4-39-10-29-42-30-68-30h-55l-1 221h55c11 0 23 0 33-2 27-4 39-21 39-68l1-82zm1776-267l-47 301h89l-42-301zM707 456c0-10-1-21-7-31-6-11-23-24-52-24-5 0-25 1-41 11-25 17-25 50-25 75v226l125-239v-18zm471 24c0-17-1-22-3-31-9-32-37-33-63-33h-52v176h46c18 0 27-1 35-2 25-5 37-20 37-62v-48z"/></svg>
