<?xml version="1.0" encoding="UTF-8"?>
<svg viewBox="0 0 112 112" version="1.1" xmlns="http://www.w3.org/2000/svg" xmlns:xlink="http://www.w3.org/1999/xlink">
    <path d="M60.001,56.599 C55.082,56.599 51.081,52.484 51.081,47.426 C51.081,42.368 55.082,38.253 60.001,38.253 C64.92,38.253 68.923,42.368 68.923,47.426 C68.923,52.484 64.92,56.599 60.001,56.599 M60.001,31.253 C51.223,31.253 44.081,38.508 44.081,47.426 C44.081,56.344 51.223,63.599 60.001,63.599 C68.78,63.599 75.923,56.344 75.923,47.426 C75.923,38.508 68.78,31.253 60.001,31.253 M59.997,96.136 C57.294,93.136 53.023,88.136 48.769,82.103 C39.761,69.328 35,57.875 35,48.982 C35,23.946 54.135,22 60,22 C83.197,22 85,42.652 85,48.982 C85,66.589 67.087,88.252 59.997,96.136 M82.449,21.938 C76.705,16.82 68.732,14 60,14 C51.268,14 43.295,16.82 37.551,21.938 C30.648,28.09 27,37.441 27,48.982 C27,74.12 55.929,103.576 57.16,104.817 C57.911,105.575 58.934,106 60,106 C61.066,106 62.089,105.575 62.84,104.817 C64.071,103.576 93,74.12 93,48.982 C93,37.441 89.352,28.09 82.449,21.938" id="path-1"></path>
</svg>
