<svg viewBox="0 0 686 1000" xmlns="http://www.w3.org/2000/svg">
  <path d="M642 16c25 39 2 93 6 140 4 32 28 63 32 98 4 30 2 62 0 91-3 34-22 64-28 101-13 84 0 184 0 277v272c-96 15-178-15-255-24s-147 7-234 0c9-40 17-80 31-116A587 587 0 0 1 40 576c-8-40-4-81-10-126-8-54-37-108-28-192 4-38 20-68 35-102-2-44-11-95 7-140 47-14 92 23 136 21 24-1 49-18 70-24 62-17 126-17 189 0 17 5 37 22 59 24 45 4 93-34 144-21zm-95 958v4c15-9-14-7-21-11-116-52-187-155-182-321-87 12-198-48-251-105-16-17-25-40-46-49 40 287 196 459 500 482zM362 646c-13 187 87 314 269 328-2-161 5-331-3-486a324 324 0 0 1-266 158zM194 946c44-2 98 5 136-3-44-18-80-45-115-74-8 25-14 51-21 77zm182-318a309 309 0 0 0 276-259c-26 68-150 108-227 60-34 20-54 54-84 77-31-23-51-57-84-77-80 50-200 4-231-60 40 155 157 277 350 259zm-95-206c24 16 37 43 63 56 7-15 61-42 60-60-1-7-30-27-39-38-12-17-15-30-28-42-8 39-38 55-56 84zm70-115c22 158 261 164 304 17 33-110-58-218-174-199-85 14-143 87-130 182zm-328 3c30 157 270 157 304 4 25-114-61-203-171-189C65 136 4 214 23 310zm136-112c126-24 127 172 7 161-88-8-97-143-7-161zm339 0c116-22 133 161 18 161-103 0-108-143-18-161zm-391 70c-10 98 116 98 136 32 16-55-26-101-84-88-35 8-50 31-52 56zm339 11c1 77 116 91 136 21 17-59-34-99-84-88-34 8-53 27-52 67zm56-39c103-33 34 138-21 63-20-27-3-55 21-63zm-343 0c56-21 82 66 28 77-41 9-82-57-28-77zM495 58c-75-51-236-48-311 0-41-11-84-19-126-28-8 32-2 78-4 116 74-73 263-46 283 70 36-82 145-146 245-98 20 9 36 34 49 28-4-46 11-88-3-116L495 58z"/>
</svg>
