<svg viewBox="0 0 23625 23625"><path d="M11811 20673c1155 0 2021-833 2259-1678 121 892 981 1181 1706 788 403-221 791-601 1055-1157 14-25 14-58-10-72-20-14-52-3-66 21-196 281-429 514-698 595-954 298-1807-335-1923-1226-5-35-22-53-50-56-28 0-40 19-50 52-231 889-1107 1658-2223 1658-1112 0-1988-769-2216-1658-11-33-25-52-53-52-31 3-43 21-46 56-120 891-974 1524-1926 1226-270-81-500-314-697-595-17-24-48-35-64-21-25 14-23 47-12 72 264 556 652 936 1056 1157 725 393 1585 104 1703-788 241 845 1101 1678 2255 1678zm0-2061c1155 0 2088-820 2273-1752 222 1463 2115 2073 3029 997 342-404 524-974 623-1575 5-26-3-58-31-66-23-6-48 14-56 43-203 643-509 946-972 1106-1222 422-2335-425-2531-1479-9-35-19-57-51-60-28 0-45 17-48 54-115 592-898 1626-2236 1626-1331 0-2118-1034-2227-1626-9-37-25-54-54-54-28 3-39 25-44 60-202 1054-1312 1901-2537 1479-460-160-767-463-969-1106-11-29-34-49-56-43-28 8-40 40-34 66 98 601 284 1171 627 1575 910 1076 2805 466 3025-997 188 932 1115 1752 2269 1752zm0-2061c-1188 0-1980-768-2289-1602-480 1711-2654 2038-3407 857-284-444-410-1078-464-1667 0-26 12-58 40-63 19-6 45 17 53 48 194 748 565 992 1037 1166 1140 413 2460-157 2705-1427 5-36 16-57 44-57 29 0 42 21 48 55 194 870 1144 1584 2233 1584 1096 0 2045-714 2239-1584 6-34 17-55 45-55 32 0 42 21 51 57 239 1270 1562 1840 2702 1427 472-174 843-418 1037-1166 8-31 30-54 53-48 29 5 39 37 36 63-56 589-179 1223-462 1667-751 1181-2925 854-3406-857-312 834-1101 1602-2295 1602zm1835-7385v532l-225 244 115 4272h-1053v-1602c0-409-301-700-669-700-362 0-663 291-663 700v1602h-1061l118-4272-223-244v-532h3661zm-4624 5048H6140l90-3429 211-198 28-1196-239-249v-414h2705v414l-242 249 31 1196 214 198 84 3429zm8377-5486v414l-239 249 28 1196 213 198 84 3429h-2876l84-3429 212-198 30-1196-239-249v-414h2703zm-6568-1198h657v-602h649v602h661v-611h670v708l-221 214 28 958h-2921l28-958-223-214v-708h672v611zm-2151 813H6483v-416c0-675 497-1151 1098-1151 604 0 1099 476 1099 1151v416zm8466 0h-2196v-416c0-675 497-1151 1095-1151 604 0 1101 476 1101 1151v416zm-3989-1708h-2683l1340-2277 1343 2277zm2888-1873l188 595 609-137-424 459 424 457-609-137-188 597-183-597-609 139 423-459-423-459 609 137 183-595zm-8464 0l-186 595-606-137 424 459-424 457 606-137 186 597 185-597 610 139-422-459 422-459-610 137-185-595zm3699-1162a619 619 0 0 1 588-649c258-12 404 128 438 154 14 12 20 32 8 48-8 14-31 17-48 9-39-20-92-57-222-51a448 448 0 0 0-426 472 447 447 0 0 0 469 427c129-8 183-50 219-71 16-11 36-11 50 6 9 12 9 31-5 45-31 30-160 182-422 196a618 618 0 0 1-649-586z"/></svg>
