<svg viewBox="0 0 240 240"><path d="M194.878148,56.932 L84.4101485,167.396 L72.7121485,155.698 L183.074148,45.134 C184.058148,44.146 185.206148,44 185.804148,44 C186.400148,44 187.548148,44.146 188.534148,45.132 L194.878148,51.476 C196.382148,52.98 196.382148,55.428 194.878148,56.932 L194.878148,56.932 Z M57.5421485,171.332 L68.7821485,182.572 L50.2101485,189.844 L57.5421485,171.332 Z M206.194148,40.164 L199.848148,33.82 C196.098148,30.066 191.112148,28 185.806148,28 L185.802148,28 C180.492148,28.002 175.502148,30.072 171.750148,33.83 L45.3381485,160.474 C44.5661485,161.244 43.9641485,162.166 43.5621485,163.18 L28.5621485,201.054 C27.3901485,204.016 28.0841485,207.39 30.3321485,209.644 C31.8621485,211.182 33.9121485,212 36.0021485,212 C36.9821485,212 37.9701485,211.82 38.9181485,211.448 L76.9141485,196.572 C77.9421485,196.17 78.8741485,195.558 79.6541485,194.78 L206.192148,68.246 C213.934148,60.508 213.936148,47.91 206.194148,40.164 L206.194148,40.164 Z"/></svg>