<?xml version="1.0" encoding="UTF-8"?>
<svg viewBox="0 0 88 86" version="1.1"
  xmlns="http://www.w3.org/2000/svg"
  xmlns:xlink="http://www.w3.org/1999/xlink">
  <!-- Generator: Sketch 50.2 (55047) - http://www.bohemiancoding.com/sketch -->
  <g id="Page-1" stroke="none" stroke-width="1" fill-rule="evenodd">
    <path d="M64.2321192,38.3371192 C64.9681192,39.0731192 65.3961192,40.0971192 65.3961192,41.1411192 C65.3961192,42.1951192 64.9681192,43.2191192 64.2321192,43.9551192 C63.4971192,44.7011192 62.4621192,45.1181192 61.4191192,45.1181192 C60.3751192,45.1181192 59.3511192,44.7011192 58.6051192,43.9551192 C57.8691192,43.2191192 57.4421192,42.1951192 57.4421192,41.1411192 C57.4421192,40.0971192 57.8691192,39.0731192 58.6051192,38.3371192 C59.3511192,37.5911192 60.3751192,37.1641192 61.4191192,37.1641192 C62.4621192,37.1641192 63.4971192,37.5911192 64.2321192,38.3371192 M71.5591192,30.7061192 C71.3261192,32.4551192 69.8321192,33.7271192 68.1141192,33.7271192 C67.9611192,33.7271192 67.8061192,33.7171192 67.6501192,33.6961192 C65.7451192,33.4421192 64.4071192,31.6921192 64.6611192,29.7861192 C65.3551192,24.5781192 59.5501192,21.8561192 59.3021192,21.7431192 C57.5621192,20.9461192 56.7831192,18.8891192 57.5691192,17.1441192 C58.3551192,15.3991192 60.3921192,14.6141192 62.1421192,15.3881192 C62.5841192,15.5841192 72.9461192,20.3061192 71.5591192,30.7061192 M56.0401192,53.7301192 C43.3531192,53.7301192 33.0331192,43.2381192 33.0331192,30.3421192 C33.0331192,17.4471192 43.3531192,6.95511917 56.0401192,6.95511917 C68.7251192,6.95511917 79.0461192,17.4471192 79.0461192,30.3421192 C79.0461192,43.2381192 68.7251192,53.7301192 56.0401192,53.7301192 M56.0401192,-0.999880835 C38.9681192,-0.999880835 25.0791192,13.0601192 25.0791192,30.3421192 C25.0791192,37.6041192 27.5371192,44.2911192 31.6471192,49.6111192 L2.28811917,79.3841192 C0.553119165,81.1441192 0.573119165,83.9771192 2.33311917,85.7121192 C3.20411917,86.5721192 4.33911917,87.0001192 5.47411917,87.0001192 C6.62911917,87.0001192 7.78411917,86.5561192 8.66011917,85.6681192 L38.0701192,55.8421192 C43.1411192,59.5141192 49.3431192,61.6851192 56.0401192,61.6851192 C73.1121192,61.6851192 87.0001192,47.6251192 87.0001192,30.3421192 C87.0001192,13.0601192 73.1121192,-0.999880835 56.0401192,-0.999880835" id="search" transform="translate(44.000000, 43.000119) rotate(-90.000000) translate(-44.000000, -43.000119) "></path>
  </g>
</svg>