<?xml version="1.0" encoding="UTF-8"?>
<svg viewBox="0 0 112 112" version="1.1" xmlns="http://www.w3.org/2000/svg" xmlns:xlink="http://www.w3.org/1999/xlink">
    <path d="M41.17,55.4 C42.38,54.2 44.05,53.5 45.76,53.5 C47.48,53.5 49.15,54.2 50.36,55.4 C51.57,56.61 52.26,58.29 52.26,60 C52.26,61.71 51.57,63.39 50.36,64.6 C49.15,65.81 47.48,66.5 45.76,66.5 C44.05,66.5 42.38,65.81 41.17,64.6 C39.96,63.39 39.27,61.71 39.27,60 C39.27,58.29 39.96,56.61 41.17,55.4 L41.17,55.4 Z M98,78 L44.547,78 L24.06,60.001 L44.547,42 L98,42 L98,78 Z M102,34 L43.04,34 C42.068,34 41.129,34.354 40.399,34.995 L15.36,56.996 C14.496,57.755 14,58.85 14,60.001 C14,61.151 14.496,62.246 15.36,63.005 L40.399,85.005 C41.129,85.647 42.068,86 43.04,86 L102,86 C104.209,86 106,84.209 106,82 L106,38 C106,35.791 104.209,34 102,34 L102,34 Z" id="path-1"></path>
</svg>